SplineFontDB: 3.2
FontName: binaryhoriontal5
FullName: binaryhoriontal5
FamilyName: binaryhoriontal5
Weight: Book
Copyright: Copyright 2022 The Noto Project Authors (https://github.com/notofonts/devanagari)
Version: 2.003
ItalicAngle: 0
UnderlinePosition: -125
UnderlineWidth: 50
Ascent: 800
Descent: 200
InvalidEm: 0
sfntRevision: 0x000200c5
LayerCount: 2
Layer: 0 1 "Back" 1
Layer: 1 1 "Fore" 0
XUID: [1021 467 -1121320856 3670528]
StyleMap: 0x0040
FSType: 0
OS2Version: 4
OS2_WeightWidthSlopeOnly: 0
OS2_UseTypoMetrics: 1
CreationTime: 1432194851
ModificationTime: 1733201747
PfmFamily: 81
TTFWeight: 400
TTFWidth: 5
LineGap: 0
VLineGap: 0
Panose: 0 0 0 0 0 0 0 0 0 0
OS2TypoAscent: 896
OS2TypoAOffset: 0
OS2TypoDescent: -408
OS2TypoDOffset: 0
OS2TypoLinegap: 0
OS2WinAscent: 896
OS2WinAOffset: 0
OS2WinDescent: 408
OS2WinDOffset: 0
HheadAscent: 896
HheadAOffset: 0
HheadDescent: -408
HheadDOffset: 0
OS2SubXSize: 650
OS2SubYSize: 600
OS2SubXOff: 0
OS2SubYOff: 75
OS2SupXSize: 650
OS2SupYSize: 600
OS2SupXOff: 0
OS2SupYOff: 350
OS2StrikeYSize: 50
OS2StrikeYPos: 322
OS2CapHeight: 622
OS2XHeight: 536
OS2Vendor: 'GOOG'
OS2CodePages: 00000093.00000000
OS2UnicodeRanges: 80008023.00002046.00000000.00000000
Lookup: 1 0 0 "'aalt' Access All Alternates in Devanagari2 lookup 0" { "'aalt' Access All Alternates in Devanagari2 lookup 0 subtable"  } ['aalt' ('DFLT' <'dflt' > 'dev2' <'MAR ' 'NEP ' 'dflt' > 'latn' <'MOL ' 'ROM ' > ) ]
Lookup: 1 0 0 "Single Substitution lookup 1" { "Single Substitution lookup 1 subtable"  } []
Lookup: 1 0 0 "Single Substitution lookup 2" { "Single Substitution lookup 2 subtable"  } []
Lookup: 1 0 0 "Single Substitution lookup 3" { "Single Substitution lookup 3 subtable"  } []
Lookup: 1 0 0 "Single Substitution lookup 4" { "Single Substitution lookup 4 subtable"  } []
Lookup: 1 0 0 "Single Substitution lookup 5" { "Single Substitution lookup 5 subtable"  } []
Lookup: 1 0 0 "Single Substitution lookup 6" { "Single Substitution lookup 6 subtable"  } []

StartChar: exclam.deva
Encoding: 33 33 3
Width: 383
Flags: W
LayerCount: 2
Fore
SplineSet
181 201 m 1,0,-1
 156 714 l 1,1,-1
 263 714 l 1,2,-1
 238 201 l 1,3,-1
 181 201 l 1,0,-1
147 54 m 0,4,5
 147 91 147 91 165 106 c 128,-1,6
 183 121 183 121 209 121 c 0,7,8
 234 121 234 121 252.5 106 c 128,-1,9
 271 91 271 91 271 54 c 0,10,11
 271 18 271 18 252.5 2 c 128,-1,12
 234 -14 234 -14 209 -14 c 0,13,14
 183 -14 183 -14 165 2 c 128,-1,15
 147 18 147 18 147 54 c 0,4,5
EndSplineSet
Validated: 1
EndChar

StartChar: quotedbl.deva
Encoding: 34 34 4
Width: 502
Flags: W
LayerCount: 2
Fore
SplineSet
140 471 m 1,0,-1
 115 729 l 1,1,-1
 226 729 l 1,2,-1
 201 471 l 1,3,-1
 140 471 l 1,0,-1
316 471 m 1,4,-1
 291 729 l 1,5,-1
 401 729 l 1,6,-1
 376 471 l 1,7,-1
 316 471 l 1,4,-1
EndSplineSet
Validated: 1
EndChar

StartChar: numbersign.deva
Encoding: 35 35 5
Width: 653
Flags: W
LayerCount: 2
Fore
SplineSet
159 176 m 1,0,-1
 34 176 l 1,1,-1
 34 242 l 1,2,-1
 171 242 l 1,3,-1
 202 394 l 1,4,-1
 70 394 l 1,5,-1
 70 459 l 1,6,-1
 213 459 l 1,7,-1
 247 632 l 1,8,-1
 317 632 l 1,9,-1
 284 459 l 1,10,-1
 424 459 l 1,11,-1
 458 632 l 1,12,-1
 527 632 l 1,13,-1
 493 459 l 1,14,-1
 619 459 l 1,15,-1
 619 394 l 1,16,-1
 480 394 l 1,17,-1
 451 242 l 1,18,-1
 584 242 l 1,19,-1
 584 176 l 1,20,-1
 438 176 l 1,21,-1
 404 0 l 1,22,-1
 334 0 l 1,23,-1
 369 176 l 1,24,-1
 229 176 l 1,25,-1
 195 0 l 1,26,-1
 126 0 l 1,27,-1
 159 176 l 1,0,-1
381 242 m 1,28,-1
 411 394 l 1,29,-1
 271 394 l 1,30,-1
 242 242 l 1,31,-1
 381 242 l 1,28,-1
EndSplineSet
Validated: 1
EndChar

StartChar: percent.deva
Encoding: 37 37 6
Width: 828
Flags: W
LayerCount: 2
Fore
SplineSet
569 622 m 1,0,-1
 646 622 l 1,1,-1
 261 0 l 1,2,-1
 183 0 l 1,3,-1
 569 622 l 1,0,-1
202 271 m 0,4,5
 131 271 131 271 94 319 c 128,-1,6
 57 367 57 367 57 452 c 0,7,8
 57 538 57 538 91.5 585 c 128,-1,9
 126 632 126 632 202 632 c 0,10,11
 274 632 274 632 311.5 585 c 128,-1,12
 349 538 349 538 349 452 c 0,13,14
 349 367 349 367 314 319 c 128,-1,15
 279 271 279 271 202 271 c 0,4,5
201 334 m 256,16,17
 239 334 239 334 257.5 364 c 128,-1,18
 276 394 276 394 276 452 c 0,19,20
 276 511 276 511 257.5 540 c 128,-1,21
 239 569 239 569 201 569 c 256,22,23
 163 569 163 569 146 540 c 128,-1,24
 129 511 129 511 129 452 c 0,25,26
 129 394 129 394 146 364 c 128,-1,27
 163 334 163 334 201 334 c 256,16,17
624 -10 m 0,28,29
 552 -10 552 -10 515.5 38.5 c 128,-1,30
 479 87 479 87 479 171 c 0,31,32
 479 257 479 257 513.5 304.5 c 128,-1,33
 548 352 548 352 624 352 c 0,34,35
 697 352 697 352 733.5 304.5 c 128,-1,36
 770 257 770 257 770 171 c 0,37,38
 770 87 770 87 735.5 38.5 c 128,-1,39
 701 -10 701 -10 624 -10 c 0,28,29
624 55 m 256,40,41
 662 55 662 55 680.5 84 c 128,-1,42
 699 113 699 113 699 171 c 0,43,44
 699 230 699 230 680.5 259.5 c 128,-1,45
 662 289 662 289 624 289 c 256,46,47
 586 289 586 289 569 259.5 c 128,-1,48
 552 230 552 230 552 171 c 0,49,50
 552 113 552 113 569 84 c 128,-1,51
 586 55 586 55 624 55 c 256,40,41
EndSplineSet
Validated: 1
EndChar

StartChar: quotesingle.deva
Encoding: 39 39 7
Width: 326
Flags: W
LayerCount: 2
Fore
SplineSet
140 471 m 1,0,-1
 115 729 l 1,1,-1
 226 729 l 1,2,-1
 201 471 l 1,3,-1
 140 471 l 1,0,-1
EndSplineSet
Validated: 1
EndChar

StartChar: parenleft.deva
Encoding: 40 40 8
Width: 354
Flags: W
LayerCount: 2
Fore
SplineSet
213 -165 m 1,0,1
 138 -62 138 -62 103 68.5 c 128,-1,2
 68 199 68 199 68 337 c 0,3,4
 68 477 68 477 102.5 603.5 c 128,-1,5
 137 730 137 730 213 832 c 1,6,-1
 294 832 l 1,7,8
 249 762 249 762 217.5 681.5 c 128,-1,9
 186 601 186 601 169.5 514 c 128,-1,10
 153 427 153 427 153 336 c 0,11,12
 153 248 153 248 169 160 c 128,-1,13
 185 72 185 72 216.5 -10 c 128,-1,14
 248 -92 248 -92 295 -165 c 1,15,-1
 213 -165 l 1,0,1
EndSplineSet
Validated: 1
EndChar

StartChar: parenright.deva
Encoding: 41 41 9
Width: 354
Flags: W
LayerCount: 2
Fore
SplineSet
60 -165 m 1,0,1
 105 -94 105 -94 136.5 -13 c 128,-1,2
 168 68 168 68 184 155 c 128,-1,3
 200 242 200 242 200 330 c 0,4,5
 200 419 200 419 184 506.5 c 128,-1,6
 168 594 168 594 137 676.5 c 128,-1,7
 106 759 106 759 59 832 c 1,8,-1
 141 832 l 1,9,10
 216 729 216 729 251 598 c 128,-1,11
 286 467 286 467 286 329 c 0,12,13
 286 190 286 190 251 63 c 128,-1,14
 216 -64 216 -64 141 -165 c 1,15,-1
 60 -165 l 1,0,1
EndSplineSet
Validated: 1
EndChar

StartChar: asterisk.deva
Encoding: 42 42 10
Width: 607
Flags: W
LayerCount: 2
Fore
SplineSet
138 340 m 1,0,-1
 256 499 l 1,1,-1
 73 513 l 1,2,-1
 87 607 l 1,3,-1
 278 553 l 1,4,-1
 257 745 l 1,5,-1
 357 745 l 1,6,-1
 336 553 l 1,7,-1
 530 607 l 1,8,-1
 543 513 l 1,9,-1
 358 499 l 1,10,-1
 478 340 l 1,11,-1
 391 293 l 1,12,-1
 305 468 l 1,13,-1
 228 293 l 1,14,-1
 138 340 l 1,0,-1
EndSplineSet
Validated: 1
EndChar

StartChar: plus.deva
Encoding: 43 43 11
Width: 551
Flags: W
LayerCount: 2
Fore
SplineSet
239 286 m 1,0,-1
 50 286 l 1,1,-1
 50 359 l 1,2,-1
 239 359 l 1,3,-1
 239 548 l 1,4,-1
 312 548 l 1,5,-1
 312 359 l 1,6,-1
 501 359 l 1,7,-1
 501 286 l 1,8,-1
 312 286 l 1,9,-1
 312 97 l 1,10,-1
 239 97 l 1,11,-1
 239 286 l 1,0,-1
EndSplineSet
Validated: 1
EndChar

StartChar: comma.deva
Encoding: 44 44 12
Width: 268
Flags: W
LayerCount: 2
Fore
SplineSet
46 -129 m 1,0,1
 56 -89 56 -89 65.5 -45.5 c 128,-1,2
 75 -2 75 -2 82.5 40 c 128,-1,3
 90 82 90 82 95 116 c 1,4,-1
 192 116 l 1,5,-1
 199 105 l 1,6,7
 190 70 190 70 176 29.5 c 128,-1,8
 162 -11 162 -11 146 -51.5 c 128,-1,9
 130 -92 130 -92 113 -129 c 1,10,-1
 46 -129 l 1,0,1
EndSplineSet
Validated: 1
EndChar

StartChar: hyphen.deva
Encoding: 45 45 13
Width: 340
Flags: W
LayerCount: 2
Fore
SplineSet
49 338 m 1,0,-1
 291 338 l 1,1,-1
 291 256 l 1,2,-1
 49 256 l 1,3,-1
 49 338 l 1,0,-1
EndSplineSet
Validated: 1
EndChar

StartChar: period.deva
Encoding: 46 46 14
Width: 268
Flags: W
LayerCount: 2
Fore
SplineSet
72 54 m 0,0,1
 72 91 72 91 90 106 c 128,-1,2
 108 121 108 121 133 121 c 0,3,4
 159 121 159 121 177.5 106 c 128,-1,5
 196 91 196 91 196 54 c 0,6,7
 196 18 196 18 177.5 2 c 128,-1,8
 159 -14 159 -14 133 -14 c 0,9,10
 108 -14 108 -14 90 2 c 128,-1,11
 72 18 72 18 72 54 c 0,0,1
EndSplineSet
Validated: 1
EndChar

StartChar: slash.deva
Encoding: 47 47 15
Width: 429
Flags: W
LayerCount: 2
Fore
SplineSet
305 833 m 1,0,-1
 387 833 l 1,1,-1
 125 -166 l 1,2,-1
 42 -166 l 1,3,-1
 305 833 l 1,0,-1
EndSplineSet
Validated: 1
EndChar

StartChar: zero.deva
Encoding: 48 48 16
Width: 926
Flags: W
LayerCount: 2
Fore
SplineSet
776.555664062 655.2734375 m 256,0,1
 755.000976562 655.2734375 755.000976562 655.2734375 735.344726562 630.185546875 c 128,-1,2
 715.69140625 605.098632812 715.69140625 605.098632812 701.745117188 559.783203125 c 128,-1,3
 687.795898438 514.46484375 687.795898438 514.46484375 679.552734375 453.770507812 c 128,-1,4
 671.311523438 393.077148438 671.311523438 393.077148438 671.311523438 323.482421875 c 0,5,6
 671.311523438 252.26953125 671.311523438 252.26953125 679.552734375 191.57421875 c 128,-1,7
 687.795898438 130.883789062 687.795898438 130.883789062 701.745117188 86.375 c 128,-1,8
 715.69140625 41.8642578125 715.69140625 41.8642578125 735.344726562 15.96875 c 128,-1,9
 755.000976562 -9.9248046875 755.000976562 -9.9248046875 776.555664062 -9.9248046875 c 256,10,11
 798.11328125 -9.9248046875 798.11328125 -9.9248046875 817.133789062 15.96875 c 128,-1,12
 836.15625 41.8642578125 836.15625 41.8642578125 850.739257812 86.375 c 128,-1,13
 865.317382812 130.883789062 865.317382812 130.883789062 873.560546875 191.57421875 c 128,-1,14
 881.8046875 252.26953125 881.8046875 252.26953125 881.8046875 323.482421875 c 0,15,16
 881.8046875 393.077148438 881.8046875 393.077148438 873.560546875 453.770507812 c 128,-1,17
 865.317382812 514.46484375 865.317382812 514.46484375 850.739257812 559.783203125 c 128,-1,18
 836.15625 605.098632812 836.15625 605.098632812 817.133789062 630.185546875 c 128,-1,19
 798.11328125 655.2734375 798.11328125 655.2734375 776.555664062 655.2734375 c 256,0,1
774.51953125 597.200195312 m 0,20,21
 785.875 596.94140625 785.875 596.94140625 795.578125 576.907226562 c 0,22,23
 805.916992188 556.34765625 805.916992188 556.34765625 812.524414062 520.291015625 c 0,24,25
 819.696289062 484.387695312 819.696289062 484.387695312 823.822265625 434.8359375 c 0,26,27
 828.463867188 385.672851562 828.463867188 385.672851562 827.9296875 330.15234375 c 0,28,29
 828.463867188 272.196289062 828.463867188 272.196289062 823.822265625 224.399414062 c 0,30,31
 819.696289062 176.247070312 819.696289062 176.247070312 812.524414062 140.010742188 c 0,32,33
 805.916992188 103.366210938 805.916992188 103.366210938 795.578125 83.3974609375 c 0,34,35
 785.875 62.7705078125 785.875 62.7705078125 774.51953125 63.1005859375 c 0,36,37
 764.583007812 62.7705078125 764.583007812 62.7705078125 753.978515625 83.3974609375 c 0,38,39
 743.2890625 103.366210938 743.2890625 103.366210938 736.517578125 140.010742188 c 0,40,41
 729.510742188 176.247070312 729.510742188 176.247070312 725.21875 224.399414062 c 0,42,43
 720.743164062 272.196289062 720.743164062 272.196289062 721.111328125 330.15234375 c 0,44,45
 720.743164062 385.672851562 720.743164062 385.672851562 725.21875 434.8359375 c 0,46,47
 729.510742188 484.387695312 729.510742188 484.387695312 736.517578125 520.291015625 c 0,48,49
 743.2890625 556.34765625 743.2890625 556.34765625 753.978515625 576.907226562 c 0,50,51
 764.583007812 596.94140625 764.583007812 596.94140625 774.51953125 597.200195312 c 0,20,21
564.874023438 655.2734375 m 256,52,53
 543.3203125 655.2734375 543.3203125 655.2734375 523.6640625 630.185546875 c 128,-1,54
 504.009765625 605.098632812 504.009765625 605.098632812 490.064453125 559.783203125 c 128,-1,55
 476.11328125 514.46484375 476.11328125 514.46484375 467.872070312 453.770507812 c 128,-1,56
 459.630859375 393.077148438 459.630859375 393.077148438 459.630859375 323.482421875 c 0,57,58
 459.630859375 252.26953125 459.630859375 252.26953125 467.872070312 191.57421875 c 128,-1,59
 476.11328125 130.883789062 476.11328125 130.883789062 490.064453125 86.375 c 128,-1,60
 504.009765625 41.8642578125 504.009765625 41.8642578125 523.6640625 15.96875 c 128,-1,61
 543.3203125 -9.9248046875 543.3203125 -9.9248046875 564.874023438 -9.9248046875 c 256,62,63
 586.432617188 -9.9248046875 586.432617188 -9.9248046875 605.451171875 15.96875 c 128,-1,64
 624.473632812 41.8642578125 624.473632812 41.8642578125 639.057617188 86.375 c 128,-1,65
 653.635742188 130.883789062 653.635742188 130.883789062 661.87890625 191.57421875 c 128,-1,66
 670.124023438 252.26953125 670.124023438 252.26953125 670.124023438 323.482421875 c 0,67,68
 670.124023438 393.077148438 670.124023438 393.077148438 661.87890625 453.770507812 c 128,-1,69
 653.635742188 514.46484375 653.635742188 514.46484375 639.057617188 559.783203125 c 128,-1,70
 624.473632812 605.098632812 624.473632812 605.098632812 605.451171875 630.185546875 c 128,-1,71
 586.432617188 655.2734375 586.432617188 655.2734375 564.874023438 655.2734375 c 256,52,53
562.838867188 597.200195312 m 0,72,73
 574.194335938 596.94140625 574.194335938 596.94140625 583.896484375 576.907226562 c 0,74,75
 594.236328125 556.34765625 594.236328125 556.34765625 600.84375 520.291015625 c 0,76,77
 608.013671875 484.387695312 608.013671875 484.387695312 612.139648438 434.8359375 c 0,78,79
 616.782226562 385.672851562 616.782226562 385.672851562 616.248046875 330.15234375 c 0,80,81
 616.782226562 272.196289062 616.782226562 272.196289062 612.139648438 224.399414062 c 0,82,83
 608.013671875 176.247070312 608.013671875 176.247070312 600.84375 140.010742188 c 0,84,85
 594.236328125 103.366210938 594.236328125 103.366210938 583.896484375 83.3974609375 c 0,86,87
 574.194335938 62.7705078125 574.194335938 62.7705078125 562.838867188 63.1005859375 c 0,88,89
 552.90234375 62.7705078125 552.90234375 62.7705078125 542.296875 83.3974609375 c 0,90,91
 531.606445312 103.366210938 531.606445312 103.366210938 524.836914062 140.010742188 c 0,92,93
 517.830078125 176.247070312 517.830078125 176.247070312 513.538085938 224.399414062 c 0,94,95
 509.0625 272.196289062 509.0625 272.196289062 509.4296875 330.15234375 c 0,96,97
 509.0625 385.672851562 509.0625 385.672851562 513.538085938 434.8359375 c 0,98,99
 517.830078125 484.387695312 517.830078125 484.387695312 524.836914062 520.291015625 c 0,100,101
 531.606445312 556.34765625 531.606445312 556.34765625 542.296875 576.907226562 c 0,102,103
 552.90234375 596.94140625 552.90234375 596.94140625 562.838867188 597.200195312 c 0,72,73
353.193359375 655.2734375 m 256,104,105
 331.638671875 655.2734375 331.638671875 655.2734375 311.983398438 630.185546875 c 128,-1,106
 292.328125 605.098632812 292.328125 605.098632812 278.381835938 559.783203125 c 128,-1,107
 264.432617188 514.46484375 264.432617188 514.46484375 256.190429688 453.770507812 c 128,-1,108
 247.94921875 393.077148438 247.94921875 393.077148438 247.94921875 323.482421875 c 0,109,110
 247.94921875 252.26953125 247.94921875 252.26953125 256.190429688 191.57421875 c 128,-1,111
 264.432617188 130.883789062 264.432617188 130.883789062 278.381835938 86.375 c 128,-1,112
 292.328125 41.8642578125 292.328125 41.8642578125 311.983398438 15.96875 c 128,-1,113
 331.638671875 -9.9248046875 331.638671875 -9.9248046875 353.193359375 -9.9248046875 c 256,114,115
 374.750976562 -9.9248046875 374.750976562 -9.9248046875 393.770507812 15.96875 c 128,-1,116
 412.79296875 41.8642578125 412.79296875 41.8642578125 427.375976562 86.375 c 128,-1,117
 441.953125 130.883789062 441.953125 130.883789062 450.198242188 191.57421875 c 128,-1,118
 458.44140625 252.26953125 458.44140625 252.26953125 458.44140625 323.482421875 c 0,119,120
 458.44140625 393.077148438 458.44140625 393.077148438 450.198242188 453.770507812 c 128,-1,121
 441.953125 514.46484375 441.953125 514.46484375 427.375976562 559.783203125 c 128,-1,122
 412.79296875 605.098632812 412.79296875 605.098632812 393.770507812 630.185546875 c 128,-1,123
 374.750976562 655.2734375 374.750976562 655.2734375 353.193359375 655.2734375 c 256,104,105
351.15625 597.200195312 m 0,124,125
 362.512695312 596.94140625 362.512695312 596.94140625 372.213867188 576.907226562 c 0,126,127
 382.5546875 556.34765625 382.5546875 556.34765625 389.162109375 520.291015625 c 0,128,129
 396.333007812 484.387695312 396.333007812 484.387695312 400.458984375 434.8359375 c 0,130,131
 405.1015625 385.672851562 405.1015625 385.672851562 404.56640625 330.15234375 c 0,132,133
 405.1015625 272.196289062 405.1015625 272.196289062 400.458984375 224.399414062 c 0,134,135
 396.333007812 176.247070312 396.333007812 176.247070312 389.162109375 140.010742188 c 0,136,137
 382.5546875 103.366210938 382.5546875 103.366210938 372.213867188 83.3974609375 c 0,138,139
 362.512695312 62.7705078125 362.512695312 62.7705078125 351.15625 63.1005859375 c 0,140,141
 341.220703125 62.7705078125 341.220703125 62.7705078125 330.616210938 83.3974609375 c 0,142,143
 319.92578125 103.366210938 319.92578125 103.366210938 313.155273438 140.010742188 c 0,144,145
 306.1484375 176.247070312 306.1484375 176.247070312 301.85546875 224.399414062 c 0,146,147
 297.381835938 272.196289062 297.381835938 272.196289062 297.749023438 330.15234375 c 0,148,149
 297.381835938 385.672851562 297.381835938 385.672851562 301.85546875 434.8359375 c 0,150,151
 306.1484375 484.387695312 306.1484375 484.387695312 313.155273438 520.291015625 c 0,152,153
 319.92578125 556.34765625 319.92578125 556.34765625 330.616210938 576.907226562 c 0,154,155
 341.220703125 596.94140625 341.220703125 596.94140625 351.15625 597.200195312 c 0,124,125
141.51171875 655.2734375 m 256,156,157
 119.958007812 655.2734375 119.958007812 655.2734375 100.301757812 630.185546875 c 128,-1,158
 80.6474609375 605.098632812 80.6474609375 605.098632812 66.701171875 559.783203125 c 128,-1,159
 52.7509765625 514.46484375 52.7509765625 514.46484375 44.509765625 453.770507812 c 128,-1,160
 36.267578125 393.077148438 36.267578125 393.077148438 36.267578125 323.482421875 c 0,161,162
 36.267578125 252.26953125 36.267578125 252.26953125 44.509765625 191.57421875 c 128,-1,163
 52.7509765625 130.883789062 52.7509765625 130.883789062 66.701171875 86.375 c 128,-1,164
 80.6474609375 41.8642578125 80.6474609375 41.8642578125 100.301757812 15.96875 c 128,-1,165
 119.958007812 -9.9248046875 119.958007812 -9.9248046875 141.51171875 -9.9248046875 c 256,166,167
 163.0703125 -9.9248046875 163.0703125 -9.9248046875 182.087890625 15.96875 c 128,-1,168
 201.111328125 41.8642578125 201.111328125 41.8642578125 215.694335938 86.375 c 128,-1,169
 230.272460938 130.883789062 230.272460938 130.883789062 238.516601562 191.57421875 c 128,-1,170
 246.760742188 252.26953125 246.760742188 252.26953125 246.760742188 323.482421875 c 0,171,172
 246.760742188 393.077148438 246.760742188 393.077148438 238.516601562 453.770507812 c 128,-1,173
 230.272460938 514.46484375 230.272460938 514.46484375 215.694335938 559.783203125 c 128,-1,174
 201.111328125 605.098632812 201.111328125 605.098632812 182.087890625 630.185546875 c 128,-1,175
 163.0703125 655.2734375 163.0703125 655.2734375 141.51171875 655.2734375 c 256,156,157
139.475585938 597.200195312 m 0,176,177
 150.83203125 596.94140625 150.83203125 596.94140625 160.532226562 576.907226562 c 0,178,179
 170.873046875 556.34765625 170.873046875 556.34765625 177.481445312 520.291015625 c 0,180,181
 184.650390625 484.387695312 184.650390625 484.387695312 188.77734375 434.8359375 c 0,182,183
 193.418945312 385.672851562 193.418945312 385.672851562 192.885742188 330.15234375 c 0,184,185
 193.418945312 272.196289062 193.418945312 272.196289062 188.77734375 224.399414062 c 0,186,187
 184.650390625 176.247070312 184.650390625 176.247070312 177.481445312 140.010742188 c 0,188,189
 170.873046875 103.366210938 170.873046875 103.366210938 160.532226562 83.3974609375 c 0,190,191
 150.83203125 62.7705078125 150.83203125 62.7705078125 139.475585938 63.1005859375 c 0,192,193
 129.540039062 62.7705078125 129.540039062 62.7705078125 118.934570312 83.3974609375 c 0,194,195
 108.245117188 103.366210938 108.245117188 103.366210938 101.474609375 140.010742188 c 0,196,197
 94.4677734375 176.247070312 94.4677734375 176.247070312 90.173828125 224.399414062 c 0,198,199
 85.7001953125 272.196289062 85.7001953125 272.196289062 86.06640625 330.15234375 c 0,200,201
 85.7001953125 385.672851562 85.7001953125 385.672851562 90.173828125 434.8359375 c 0,202,203
 94.4677734375 484.387695312 94.4677734375 484.387695312 101.474609375 520.291015625 c 0,204,205
 108.245117188 556.34765625 108.245117188 556.34765625 118.934570312 576.907226562 c 0,206,207
 129.540039062 596.94140625 129.540039062 596.94140625 139.475585938 597.200195312 c 0,176,177
EndSplineSet
Validated: 41
EndChar

StartChar: one.deva
Encoding: 49 49 17
Width: 926
Flags: W
LayerCount: 2
Fore
SplineSet
776.555664062 655.2734375 m 256,0,1
 755.000976562 655.2734375 755.000976562 655.2734375 735.344726562 630.185546875 c 128,-1,2
 715.69140625 605.098632812 715.69140625 605.098632812 701.745117188 559.783203125 c 128,-1,3
 687.795898438 514.46484375 687.795898438 514.46484375 679.552734375 453.770507812 c 128,-1,4
 671.311523438 393.077148438 671.311523438 393.077148438 671.311523438 323.482421875 c 0,5,6
 671.311523438 252.26953125 671.311523438 252.26953125 679.552734375 191.57421875 c 128,-1,7
 687.795898438 130.883789062 687.795898438 130.883789062 701.745117188 86.375 c 128,-1,8
 715.69140625 41.8642578125 715.69140625 41.8642578125 735.344726562 15.96875 c 128,-1,9
 755.000976562 -9.9248046875 755.000976562 -9.9248046875 776.555664062 -9.9248046875 c 256,10,11
 798.11328125 -9.9248046875 798.11328125 -9.9248046875 817.133789062 15.96875 c 128,-1,12
 836.15625 41.8642578125 836.15625 41.8642578125 850.739257812 86.375 c 128,-1,13
 865.317382812 130.883789062 865.317382812 130.883789062 873.560546875 191.57421875 c 128,-1,14
 881.8046875 252.26953125 881.8046875 252.26953125 881.8046875 323.482421875 c 0,15,16
 881.8046875 393.077148438 881.8046875 393.077148438 873.560546875 453.770507812 c 128,-1,17
 865.317382812 514.46484375 865.317382812 514.46484375 850.739257812 559.783203125 c 128,-1,18
 836.15625 605.098632812 836.15625 605.098632812 817.133789062 630.185546875 c 128,-1,19
 798.11328125 655.2734375 798.11328125 655.2734375 776.555664062 655.2734375 c 256,0,1
564.874023438 655.2734375 m 256,20,21
 543.3203125 655.2734375 543.3203125 655.2734375 523.6640625 630.185546875 c 128,-1,22
 504.009765625 605.098632812 504.009765625 605.098632812 490.064453125 559.783203125 c 128,-1,23
 476.11328125 514.46484375 476.11328125 514.46484375 467.872070312 453.770507812 c 128,-1,24
 459.630859375 393.077148438 459.630859375 393.077148438 459.630859375 323.482421875 c 0,25,26
 459.630859375 252.26953125 459.630859375 252.26953125 467.872070312 191.57421875 c 128,-1,27
 476.11328125 130.883789062 476.11328125 130.883789062 490.064453125 86.375 c 128,-1,28
 504.009765625 41.8642578125 504.009765625 41.8642578125 523.6640625 15.96875 c 128,-1,29
 543.3203125 -9.9248046875 543.3203125 -9.9248046875 564.874023438 -9.9248046875 c 256,30,31
 586.432617188 -9.9248046875 586.432617188 -9.9248046875 605.451171875 15.96875 c 128,-1,32
 624.473632812 41.8642578125 624.473632812 41.8642578125 639.057617188 86.375 c 128,-1,33
 653.635742188 130.883789062 653.635742188 130.883789062 661.87890625 191.57421875 c 128,-1,34
 670.124023438 252.26953125 670.124023438 252.26953125 670.124023438 323.482421875 c 0,35,36
 670.124023438 393.077148438 670.124023438 393.077148438 661.87890625 453.770507812 c 128,-1,37
 653.635742188 514.46484375 653.635742188 514.46484375 639.057617188 559.783203125 c 128,-1,38
 624.473632812 605.098632812 624.473632812 605.098632812 605.451171875 630.185546875 c 128,-1,39
 586.432617188 655.2734375 586.432617188 655.2734375 564.874023438 655.2734375 c 256,20,21
562.838867188 597.200195312 m 0,40,41
 574.194335938 596.94140625 574.194335938 596.94140625 583.896484375 576.907226562 c 0,42,43
 594.236328125 556.34765625 594.236328125 556.34765625 600.84375 520.291015625 c 0,44,45
 608.013671875 484.387695312 608.013671875 484.387695312 612.139648438 434.8359375 c 0,46,47
 616.782226562 385.672851562 616.782226562 385.672851562 616.248046875 330.15234375 c 0,48,49
 616.782226562 272.196289062 616.782226562 272.196289062 612.139648438 224.399414062 c 0,50,51
 608.013671875 176.247070312 608.013671875 176.247070312 600.84375 140.010742188 c 0,52,53
 594.236328125 103.366210938 594.236328125 103.366210938 583.896484375 83.3974609375 c 0,54,55
 574.194335938 62.7705078125 574.194335938 62.7705078125 562.838867188 63.1005859375 c 0,56,57
 552.90234375 62.7705078125 552.90234375 62.7705078125 542.296875 83.3974609375 c 0,58,59
 531.606445312 103.366210938 531.606445312 103.366210938 524.836914062 140.010742188 c 0,60,61
 517.830078125 176.247070312 517.830078125 176.247070312 513.538085938 224.399414062 c 0,62,63
 509.0625 272.196289062 509.0625 272.196289062 509.4296875 330.15234375 c 0,64,65
 509.0625 385.672851562 509.0625 385.672851562 513.538085938 434.8359375 c 0,66,67
 517.830078125 484.387695312 517.830078125 484.387695312 524.836914062 520.291015625 c 0,68,69
 531.606445312 556.34765625 531.606445312 556.34765625 542.296875 576.907226562 c 0,70,71
 552.90234375 596.94140625 552.90234375 596.94140625 562.838867188 597.200195312 c 0,40,41
353.193359375 655.2734375 m 256,72,73
 331.638671875 655.2734375 331.638671875 655.2734375 311.983398438 630.185546875 c 128,-1,74
 292.328125 605.098632812 292.328125 605.098632812 278.381835938 559.783203125 c 128,-1,75
 264.432617188 514.46484375 264.432617188 514.46484375 256.190429688 453.770507812 c 128,-1,76
 247.94921875 393.077148438 247.94921875 393.077148438 247.94921875 323.482421875 c 0,77,78
 247.94921875 252.26953125 247.94921875 252.26953125 256.190429688 191.57421875 c 128,-1,79
 264.432617188 130.883789062 264.432617188 130.883789062 278.381835938 86.375 c 128,-1,80
 292.328125 41.8642578125 292.328125 41.8642578125 311.983398438 15.96875 c 128,-1,81
 331.638671875 -9.9248046875 331.638671875 -9.9248046875 353.193359375 -9.9248046875 c 256,82,83
 374.750976562 -9.9248046875 374.750976562 -9.9248046875 393.770507812 15.96875 c 128,-1,84
 412.79296875 41.8642578125 412.79296875 41.8642578125 427.375976562 86.375 c 128,-1,85
 441.953125 130.883789062 441.953125 130.883789062 450.198242188 191.57421875 c 128,-1,86
 458.44140625 252.26953125 458.44140625 252.26953125 458.44140625 323.482421875 c 0,87,88
 458.44140625 393.077148438 458.44140625 393.077148438 450.198242188 453.770507812 c 128,-1,89
 441.953125 514.46484375 441.953125 514.46484375 427.375976562 559.783203125 c 128,-1,90
 412.79296875 605.098632812 412.79296875 605.098632812 393.770507812 630.185546875 c 128,-1,91
 374.750976562 655.2734375 374.750976562 655.2734375 353.193359375 655.2734375 c 256,72,73
351.15625 597.200195312 m 0,92,93
 362.512695312 596.94140625 362.512695312 596.94140625 372.213867188 576.907226562 c 0,94,95
 382.5546875 556.34765625 382.5546875 556.34765625 389.162109375 520.291015625 c 0,96,97
 396.333007812 484.387695312 396.333007812 484.387695312 400.458984375 434.8359375 c 0,98,99
 405.1015625 385.672851562 405.1015625 385.672851562 404.56640625 330.15234375 c 0,100,101
 405.1015625 272.196289062 405.1015625 272.196289062 400.458984375 224.399414062 c 0,102,103
 396.333007812 176.247070312 396.333007812 176.247070312 389.162109375 140.010742188 c 0,104,105
 382.5546875 103.366210938 382.5546875 103.366210938 372.213867188 83.3974609375 c 0,106,107
 362.512695312 62.7705078125 362.512695312 62.7705078125 351.15625 63.1005859375 c 0,108,109
 341.220703125 62.7705078125 341.220703125 62.7705078125 330.616210938 83.3974609375 c 0,110,111
 319.92578125 103.366210938 319.92578125 103.366210938 313.155273438 140.010742188 c 0,112,113
 306.1484375 176.247070312 306.1484375 176.247070312 301.85546875 224.399414062 c 0,114,115
 297.381835938 272.196289062 297.381835938 272.196289062 297.749023438 330.15234375 c 0,116,117
 297.381835938 385.672851562 297.381835938 385.672851562 301.85546875 434.8359375 c 0,118,119
 306.1484375 484.387695312 306.1484375 484.387695312 313.155273438 520.291015625 c 0,120,121
 319.92578125 556.34765625 319.92578125 556.34765625 330.616210938 576.907226562 c 0,122,123
 341.220703125 596.94140625 341.220703125 596.94140625 351.15625 597.200195312 c 0,92,93
141.51171875 655.2734375 m 256,124,125
 119.958007812 655.2734375 119.958007812 655.2734375 100.301757812 630.185546875 c 128,-1,126
 80.6474609375 605.098632812 80.6474609375 605.098632812 66.701171875 559.783203125 c 128,-1,127
 52.7509765625 514.46484375 52.7509765625 514.46484375 44.509765625 453.770507812 c 128,-1,128
 36.267578125 393.077148438 36.267578125 393.077148438 36.267578125 323.482421875 c 0,129,130
 36.267578125 252.26953125 36.267578125 252.26953125 44.509765625 191.57421875 c 128,-1,131
 52.7509765625 130.883789062 52.7509765625 130.883789062 66.701171875 86.375 c 128,-1,132
 80.6474609375 41.8642578125 80.6474609375 41.8642578125 100.301757812 15.96875 c 128,-1,133
 119.958007812 -9.9248046875 119.958007812 -9.9248046875 141.51171875 -9.9248046875 c 256,134,135
 163.0703125 -9.9248046875 163.0703125 -9.9248046875 182.087890625 15.96875 c 128,-1,136
 201.111328125 41.8642578125 201.111328125 41.8642578125 215.694335938 86.375 c 128,-1,137
 230.272460938 130.883789062 230.272460938 130.883789062 238.516601562 191.57421875 c 128,-1,138
 246.760742188 252.26953125 246.760742188 252.26953125 246.760742188 323.482421875 c 0,139,140
 246.760742188 393.077148438 246.760742188 393.077148438 238.516601562 453.770507812 c 128,-1,141
 230.272460938 514.46484375 230.272460938 514.46484375 215.694335938 559.783203125 c 128,-1,142
 201.111328125 605.098632812 201.111328125 605.098632812 182.087890625 630.185546875 c 128,-1,143
 163.0703125 655.2734375 163.0703125 655.2734375 141.51171875 655.2734375 c 256,124,125
139.475585938 597.200195312 m 0,144,145
 150.83203125 596.94140625 150.83203125 596.94140625 160.532226562 576.907226562 c 0,146,147
 170.873046875 556.34765625 170.873046875 556.34765625 177.481445312 520.291015625 c 0,148,149
 184.650390625 484.387695312 184.650390625 484.387695312 188.77734375 434.8359375 c 0,150,151
 193.418945312 385.672851562 193.418945312 385.672851562 192.885742188 330.15234375 c 0,152,153
 193.418945312 272.196289062 193.418945312 272.196289062 188.77734375 224.399414062 c 0,154,155
 184.650390625 176.247070312 184.650390625 176.247070312 177.481445312 140.010742188 c 0,156,157
 170.873046875 103.366210938 170.873046875 103.366210938 160.532226562 83.3974609375 c 0,158,159
 150.83203125 62.7705078125 150.83203125 62.7705078125 139.475585938 63.1005859375 c 0,160,161
 129.540039062 62.7705078125 129.540039062 62.7705078125 118.934570312 83.3974609375 c 0,162,163
 108.245117188 103.366210938 108.245117188 103.366210938 101.474609375 140.010742188 c 0,164,165
 94.4677734375 176.247070312 94.4677734375 176.247070312 90.173828125 224.399414062 c 0,166,167
 85.7001953125 272.196289062 85.7001953125 272.196289062 86.06640625 330.15234375 c 0,168,169
 85.7001953125 385.672851562 85.7001953125 385.672851562 90.173828125 434.8359375 c 0,170,171
 94.4677734375 484.387695312 94.4677734375 484.387695312 101.474609375 520.291015625 c 0,172,173
 108.245117188 556.34765625 108.245117188 556.34765625 118.934570312 576.907226562 c 0,174,175
 129.540039062 596.94140625 129.540039062 596.94140625 139.475585938 597.200195312 c 0,144,145
EndSplineSet
Validated: 41
EndChar

StartChar: two.deva
Encoding: 50 50 18
Width: 926
Flags: W
LayerCount: 2
Fore
SplineSet
776.555664062 655.2734375 m 256,0,1
 755.000976562 655.2734375 755.000976562 655.2734375 735.344726562 630.185546875 c 128,-1,2
 715.69140625 605.098632812 715.69140625 605.098632812 701.745117188 559.783203125 c 128,-1,3
 687.795898438 514.46484375 687.795898438 514.46484375 679.552734375 453.770507812 c 128,-1,4
 671.311523438 393.077148438 671.311523438 393.077148438 671.311523438 323.482421875 c 0,5,6
 671.311523438 252.26953125 671.311523438 252.26953125 679.552734375 191.57421875 c 128,-1,7
 687.795898438 130.883789062 687.795898438 130.883789062 701.745117188 86.375 c 128,-1,8
 715.69140625 41.8642578125 715.69140625 41.8642578125 735.344726562 15.96875 c 128,-1,9
 755.000976562 -9.9248046875 755.000976562 -9.9248046875 776.555664062 -9.9248046875 c 256,10,11
 798.11328125 -9.9248046875 798.11328125 -9.9248046875 817.133789062 15.96875 c 128,-1,12
 836.15625 41.8642578125 836.15625 41.8642578125 850.739257812 86.375 c 128,-1,13
 865.317382812 130.883789062 865.317382812 130.883789062 873.560546875 191.57421875 c 128,-1,14
 881.8046875 252.26953125 881.8046875 252.26953125 881.8046875 323.482421875 c 0,15,16
 881.8046875 393.077148438 881.8046875 393.077148438 873.560546875 453.770507812 c 128,-1,17
 865.317382812 514.46484375 865.317382812 514.46484375 850.739257812 559.783203125 c 128,-1,18
 836.15625 605.098632812 836.15625 605.098632812 817.133789062 630.185546875 c 128,-1,19
 798.11328125 655.2734375 798.11328125 655.2734375 776.555664062 655.2734375 c 256,0,1
774.51953125 597.200195312 m 0,20,21
 785.875 596.94140625 785.875 596.94140625 795.578125 576.907226562 c 0,22,23
 805.916992188 556.34765625 805.916992188 556.34765625 812.524414062 520.291015625 c 0,24,25
 819.696289062 484.387695312 819.696289062 484.387695312 823.822265625 434.8359375 c 0,26,27
 828.463867188 385.672851562 828.463867188 385.672851562 827.9296875 330.15234375 c 0,28,29
 828.463867188 272.196289062 828.463867188 272.196289062 823.822265625 224.399414062 c 0,30,31
 819.696289062 176.247070312 819.696289062 176.247070312 812.524414062 140.010742188 c 0,32,33
 805.916992188 103.366210938 805.916992188 103.366210938 795.578125 83.3974609375 c 0,34,35
 785.875 62.7705078125 785.875 62.7705078125 774.51953125 63.1005859375 c 0,36,37
 764.583007812 62.7705078125 764.583007812 62.7705078125 753.978515625 83.3974609375 c 0,38,39
 743.2890625 103.366210938 743.2890625 103.366210938 736.517578125 140.010742188 c 0,40,41
 729.510742188 176.247070312 729.510742188 176.247070312 725.21875 224.399414062 c 0,42,43
 720.743164062 272.196289062 720.743164062 272.196289062 721.111328125 330.15234375 c 0,44,45
 720.743164062 385.672851562 720.743164062 385.672851562 725.21875 434.8359375 c 0,46,47
 729.510742188 484.387695312 729.510742188 484.387695312 736.517578125 520.291015625 c 0,48,49
 743.2890625 556.34765625 743.2890625 556.34765625 753.978515625 576.907226562 c 0,50,51
 764.583007812 596.94140625 764.583007812 596.94140625 774.51953125 597.200195312 c 0,20,21
564.874023438 655.2734375 m 256,52,53
 543.3203125 655.2734375 543.3203125 655.2734375 523.6640625 630.185546875 c 128,-1,54
 504.009765625 605.098632812 504.009765625 605.098632812 490.064453125 559.783203125 c 128,-1,55
 476.11328125 514.46484375 476.11328125 514.46484375 467.872070312 453.770507812 c 128,-1,56
 459.630859375 393.077148438 459.630859375 393.077148438 459.630859375 323.482421875 c 0,57,58
 459.630859375 252.26953125 459.630859375 252.26953125 467.872070312 191.57421875 c 128,-1,59
 476.11328125 130.883789062 476.11328125 130.883789062 490.064453125 86.375 c 128,-1,60
 504.009765625 41.8642578125 504.009765625 41.8642578125 523.6640625 15.96875 c 128,-1,61
 543.3203125 -9.9248046875 543.3203125 -9.9248046875 564.874023438 -9.9248046875 c 256,62,63
 586.432617188 -9.9248046875 586.432617188 -9.9248046875 605.451171875 15.96875 c 128,-1,64
 624.473632812 41.8642578125 624.473632812 41.8642578125 639.057617188 86.375 c 128,-1,65
 653.635742188 130.883789062 653.635742188 130.883789062 661.87890625 191.57421875 c 128,-1,66
 670.124023438 252.26953125 670.124023438 252.26953125 670.124023438 323.482421875 c 0,67,68
 670.124023438 393.077148438 670.124023438 393.077148438 661.87890625 453.770507812 c 128,-1,69
 653.635742188 514.46484375 653.635742188 514.46484375 639.057617188 559.783203125 c 128,-1,70
 624.473632812 605.098632812 624.473632812 605.098632812 605.451171875 630.185546875 c 128,-1,71
 586.432617188 655.2734375 586.432617188 655.2734375 564.874023438 655.2734375 c 256,52,53
353.193359375 655.2734375 m 256,72,73
 331.638671875 655.2734375 331.638671875 655.2734375 311.983398438 630.185546875 c 128,-1,74
 292.328125 605.098632812 292.328125 605.098632812 278.381835938 559.783203125 c 128,-1,75
 264.432617188 514.46484375 264.432617188 514.46484375 256.190429688 453.770507812 c 128,-1,76
 247.94921875 393.077148438 247.94921875 393.077148438 247.94921875 323.482421875 c 0,77,78
 247.94921875 252.26953125 247.94921875 252.26953125 256.190429688 191.57421875 c 128,-1,79
 264.432617188 130.883789062 264.432617188 130.883789062 278.381835938 86.375 c 128,-1,80
 292.328125 41.8642578125 292.328125 41.8642578125 311.983398438 15.96875 c 128,-1,81
 331.638671875 -9.9248046875 331.638671875 -9.9248046875 353.193359375 -9.9248046875 c 256,82,83
 374.750976562 -9.9248046875 374.750976562 -9.9248046875 393.770507812 15.96875 c 128,-1,84
 412.79296875 41.8642578125 412.79296875 41.8642578125 427.375976562 86.375 c 128,-1,85
 441.953125 130.883789062 441.953125 130.883789062 450.198242188 191.57421875 c 128,-1,86
 458.44140625 252.26953125 458.44140625 252.26953125 458.44140625 323.482421875 c 0,87,88
 458.44140625 393.077148438 458.44140625 393.077148438 450.198242188 453.770507812 c 128,-1,89
 441.953125 514.46484375 441.953125 514.46484375 427.375976562 559.783203125 c 128,-1,90
 412.79296875 605.098632812 412.79296875 605.098632812 393.770507812 630.185546875 c 128,-1,91
 374.750976562 655.2734375 374.750976562 655.2734375 353.193359375 655.2734375 c 256,72,73
351.15625 597.200195312 m 0,92,93
 362.512695312 596.94140625 362.512695312 596.94140625 372.213867188 576.907226562 c 0,94,95
 382.5546875 556.34765625 382.5546875 556.34765625 389.162109375 520.291015625 c 0,96,97
 396.333007812 484.387695312 396.333007812 484.387695312 400.458984375 434.8359375 c 0,98,99
 405.1015625 385.672851562 405.1015625 385.672851562 404.56640625 330.15234375 c 0,100,101
 405.1015625 272.196289062 405.1015625 272.196289062 400.458984375 224.399414062 c 0,102,103
 396.333007812 176.247070312 396.333007812 176.247070312 389.162109375 140.010742188 c 0,104,105
 382.5546875 103.366210938 382.5546875 103.366210938 372.213867188 83.3974609375 c 0,106,107
 362.512695312 62.7705078125 362.512695312 62.7705078125 351.15625 63.1005859375 c 0,108,109
 341.220703125 62.7705078125 341.220703125 62.7705078125 330.616210938 83.3974609375 c 0,110,111
 319.92578125 103.366210938 319.92578125 103.366210938 313.155273438 140.010742188 c 0,112,113
 306.1484375 176.247070312 306.1484375 176.247070312 301.85546875 224.399414062 c 0,114,115
 297.381835938 272.196289062 297.381835938 272.196289062 297.749023438 330.15234375 c 0,116,117
 297.381835938 385.672851562 297.381835938 385.672851562 301.85546875 434.8359375 c 0,118,119
 306.1484375 484.387695312 306.1484375 484.387695312 313.155273438 520.291015625 c 0,120,121
 319.92578125 556.34765625 319.92578125 556.34765625 330.616210938 576.907226562 c 0,122,123
 341.220703125 596.94140625 341.220703125 596.94140625 351.15625 597.200195312 c 0,92,93
141.51171875 655.2734375 m 256,124,125
 119.958007812 655.2734375 119.958007812 655.2734375 100.301757812 630.185546875 c 128,-1,126
 80.6474609375 605.098632812 80.6474609375 605.098632812 66.701171875 559.783203125 c 128,-1,127
 52.7509765625 514.46484375 52.7509765625 514.46484375 44.509765625 453.770507812 c 128,-1,128
 36.267578125 393.077148438 36.267578125 393.077148438 36.267578125 323.482421875 c 0,129,130
 36.267578125 252.26953125 36.267578125 252.26953125 44.509765625 191.57421875 c 128,-1,131
 52.7509765625 130.883789062 52.7509765625 130.883789062 66.701171875 86.375 c 128,-1,132
 80.6474609375 41.8642578125 80.6474609375 41.8642578125 100.301757812 15.96875 c 128,-1,133
 119.958007812 -9.9248046875 119.958007812 -9.9248046875 141.51171875 -9.9248046875 c 256,134,135
 163.0703125 -9.9248046875 163.0703125 -9.9248046875 182.087890625 15.96875 c 128,-1,136
 201.111328125 41.8642578125 201.111328125 41.8642578125 215.694335938 86.375 c 128,-1,137
 230.272460938 130.883789062 230.272460938 130.883789062 238.516601562 191.57421875 c 128,-1,138
 246.760742188 252.26953125 246.760742188 252.26953125 246.760742188 323.482421875 c 0,139,140
 246.760742188 393.077148438 246.760742188 393.077148438 238.516601562 453.770507812 c 128,-1,141
 230.272460938 514.46484375 230.272460938 514.46484375 215.694335938 559.783203125 c 128,-1,142
 201.111328125 605.098632812 201.111328125 605.098632812 182.087890625 630.185546875 c 128,-1,143
 163.0703125 655.2734375 163.0703125 655.2734375 141.51171875 655.2734375 c 256,124,125
139.475585938 597.200195312 m 0,144,145
 150.83203125 596.94140625 150.83203125 596.94140625 160.532226562 576.907226562 c 0,146,147
 170.873046875 556.34765625 170.873046875 556.34765625 177.481445312 520.291015625 c 0,148,149
 184.650390625 484.387695312 184.650390625 484.387695312 188.77734375 434.8359375 c 0,150,151
 193.418945312 385.672851562 193.418945312 385.672851562 192.885742188 330.15234375 c 0,152,153
 193.418945312 272.196289062 193.418945312 272.196289062 188.77734375 224.399414062 c 0,154,155
 184.650390625 176.247070312 184.650390625 176.247070312 177.481445312 140.010742188 c 0,156,157
 170.873046875 103.366210938 170.873046875 103.366210938 160.532226562 83.3974609375 c 0,158,159
 150.83203125 62.7705078125 150.83203125 62.7705078125 139.475585938 63.1005859375 c 0,160,161
 129.540039062 62.7705078125 129.540039062 62.7705078125 118.934570312 83.3974609375 c 0,162,163
 108.245117188 103.366210938 108.245117188 103.366210938 101.474609375 140.010742188 c 0,164,165
 94.4677734375 176.247070312 94.4677734375 176.247070312 90.173828125 224.399414062 c 0,166,167
 85.7001953125 272.196289062 85.7001953125 272.196289062 86.06640625 330.15234375 c 0,168,169
 85.7001953125 385.672851562 85.7001953125 385.672851562 90.173828125 434.8359375 c 0,170,171
 94.4677734375 484.387695312 94.4677734375 484.387695312 101.474609375 520.291015625 c 0,172,173
 108.245117188 556.34765625 108.245117188 556.34765625 118.934570312 576.907226562 c 0,174,175
 129.540039062 596.94140625 129.540039062 596.94140625 139.475585938 597.200195312 c 0,144,145
EndSplineSet
Validated: 41
EndChar

StartChar: three.deva
Encoding: 51 51 19
Width: 926
Flags: W
LayerCount: 2
Fore
SplineSet
776.555664062 655.2734375 m 256,0,1
 755.000976562 655.2734375 755.000976562 655.2734375 735.344726562 630.185546875 c 128,-1,2
 715.69140625 605.098632812 715.69140625 605.098632812 701.745117188 559.783203125 c 128,-1,3
 687.795898438 514.46484375 687.795898438 514.46484375 679.552734375 453.770507812 c 128,-1,4
 671.311523438 393.077148438 671.311523438 393.077148438 671.311523438 323.482421875 c 0,5,6
 671.311523438 252.26953125 671.311523438 252.26953125 679.552734375 191.57421875 c 128,-1,7
 687.795898438 130.883789062 687.795898438 130.883789062 701.745117188 86.375 c 128,-1,8
 715.69140625 41.8642578125 715.69140625 41.8642578125 735.344726562 15.96875 c 128,-1,9
 755.000976562 -9.9248046875 755.000976562 -9.9248046875 776.555664062 -9.9248046875 c 256,10,11
 798.11328125 -9.9248046875 798.11328125 -9.9248046875 817.133789062 15.96875 c 128,-1,12
 836.15625 41.8642578125 836.15625 41.8642578125 850.739257812 86.375 c 128,-1,13
 865.317382812 130.883789062 865.317382812 130.883789062 873.560546875 191.57421875 c 128,-1,14
 881.8046875 252.26953125 881.8046875 252.26953125 881.8046875 323.482421875 c 0,15,16
 881.8046875 393.077148438 881.8046875 393.077148438 873.560546875 453.770507812 c 128,-1,17
 865.317382812 514.46484375 865.317382812 514.46484375 850.739257812 559.783203125 c 128,-1,18
 836.15625 605.098632812 836.15625 605.098632812 817.133789062 630.185546875 c 128,-1,19
 798.11328125 655.2734375 798.11328125 655.2734375 776.555664062 655.2734375 c 256,0,1
564.874023438 655.2734375 m 256,20,21
 543.3203125 655.2734375 543.3203125 655.2734375 523.6640625 630.185546875 c 128,-1,22
 504.009765625 605.098632812 504.009765625 605.098632812 490.064453125 559.783203125 c 128,-1,23
 476.11328125 514.46484375 476.11328125 514.46484375 467.872070312 453.770507812 c 128,-1,24
 459.630859375 393.077148438 459.630859375 393.077148438 459.630859375 323.482421875 c 0,25,26
 459.630859375 252.26953125 459.630859375 252.26953125 467.872070312 191.57421875 c 128,-1,27
 476.11328125 130.883789062 476.11328125 130.883789062 490.064453125 86.375 c 128,-1,28
 504.009765625 41.8642578125 504.009765625 41.8642578125 523.6640625 15.96875 c 128,-1,29
 543.3203125 -9.9248046875 543.3203125 -9.9248046875 564.874023438 -9.9248046875 c 256,30,31
 586.432617188 -9.9248046875 586.432617188 -9.9248046875 605.451171875 15.96875 c 128,-1,32
 624.473632812 41.8642578125 624.473632812 41.8642578125 639.057617188 86.375 c 128,-1,33
 653.635742188 130.883789062 653.635742188 130.883789062 661.87890625 191.57421875 c 128,-1,34
 670.124023438 252.26953125 670.124023438 252.26953125 670.124023438 323.482421875 c 0,35,36
 670.124023438 393.077148438 670.124023438 393.077148438 661.87890625 453.770507812 c 128,-1,37
 653.635742188 514.46484375 653.635742188 514.46484375 639.057617188 559.783203125 c 128,-1,38
 624.473632812 605.098632812 624.473632812 605.098632812 605.451171875 630.185546875 c 128,-1,39
 586.432617188 655.2734375 586.432617188 655.2734375 564.874023438 655.2734375 c 256,20,21
353.193359375 655.2734375 m 256,40,41
 331.638671875 655.2734375 331.638671875 655.2734375 311.983398438 630.185546875 c 128,-1,42
 292.328125 605.098632812 292.328125 605.098632812 278.381835938 559.783203125 c 128,-1,43
 264.432617188 514.46484375 264.432617188 514.46484375 256.190429688 453.770507812 c 128,-1,44
 247.94921875 393.077148438 247.94921875 393.077148438 247.94921875 323.482421875 c 0,45,46
 247.94921875 252.26953125 247.94921875 252.26953125 256.190429688 191.57421875 c 128,-1,47
 264.432617188 130.883789062 264.432617188 130.883789062 278.381835938 86.375 c 128,-1,48
 292.328125 41.8642578125 292.328125 41.8642578125 311.983398438 15.96875 c 128,-1,49
 331.638671875 -9.9248046875 331.638671875 -9.9248046875 353.193359375 -9.9248046875 c 256,50,51
 374.750976562 -9.9248046875 374.750976562 -9.9248046875 393.770507812 15.96875 c 128,-1,52
 412.79296875 41.8642578125 412.79296875 41.8642578125 427.375976562 86.375 c 128,-1,53
 441.953125 130.883789062 441.953125 130.883789062 450.198242188 191.57421875 c 128,-1,54
 458.44140625 252.26953125 458.44140625 252.26953125 458.44140625 323.482421875 c 0,55,56
 458.44140625 393.077148438 458.44140625 393.077148438 450.198242188 453.770507812 c 128,-1,57
 441.953125 514.46484375 441.953125 514.46484375 427.375976562 559.783203125 c 128,-1,58
 412.79296875 605.098632812 412.79296875 605.098632812 393.770507812 630.185546875 c 128,-1,59
 374.750976562 655.2734375 374.750976562 655.2734375 353.193359375 655.2734375 c 256,40,41
351.15625 597.200195312 m 0,60,61
 362.512695312 596.94140625 362.512695312 596.94140625 372.213867188 576.907226562 c 0,62,63
 382.5546875 556.34765625 382.5546875 556.34765625 389.162109375 520.291015625 c 0,64,65
 396.333007812 484.387695312 396.333007812 484.387695312 400.458984375 434.8359375 c 0,66,67
 405.1015625 385.672851562 405.1015625 385.672851562 404.56640625 330.15234375 c 0,68,69
 405.1015625 272.196289062 405.1015625 272.196289062 400.458984375 224.399414062 c 0,70,71
 396.333007812 176.247070312 396.333007812 176.247070312 389.162109375 140.010742188 c 0,72,73
 382.5546875 103.366210938 382.5546875 103.366210938 372.213867188 83.3974609375 c 0,74,75
 362.512695312 62.7705078125 362.512695312 62.7705078125 351.15625 63.1005859375 c 0,76,77
 341.220703125 62.7705078125 341.220703125 62.7705078125 330.616210938 83.3974609375 c 0,78,79
 319.92578125 103.366210938 319.92578125 103.366210938 313.155273438 140.010742188 c 0,80,81
 306.1484375 176.247070312 306.1484375 176.247070312 301.85546875 224.399414062 c 0,82,83
 297.381835938 272.196289062 297.381835938 272.196289062 297.749023438 330.15234375 c 0,84,85
 297.381835938 385.672851562 297.381835938 385.672851562 301.85546875 434.8359375 c 0,86,87
 306.1484375 484.387695312 306.1484375 484.387695312 313.155273438 520.291015625 c 0,88,89
 319.92578125 556.34765625 319.92578125 556.34765625 330.616210938 576.907226562 c 0,90,91
 341.220703125 596.94140625 341.220703125 596.94140625 351.15625 597.200195312 c 0,60,61
141.51171875 655.2734375 m 256,92,93
 119.958007812 655.2734375 119.958007812 655.2734375 100.301757812 630.185546875 c 128,-1,94
 80.6474609375 605.098632812 80.6474609375 605.098632812 66.701171875 559.783203125 c 128,-1,95
 52.7509765625 514.46484375 52.7509765625 514.46484375 44.509765625 453.770507812 c 128,-1,96
 36.267578125 393.077148438 36.267578125 393.077148438 36.267578125 323.482421875 c 0,97,98
 36.267578125 252.26953125 36.267578125 252.26953125 44.509765625 191.57421875 c 128,-1,99
 52.7509765625 130.883789062 52.7509765625 130.883789062 66.701171875 86.375 c 128,-1,100
 80.6474609375 41.8642578125 80.6474609375 41.8642578125 100.301757812 15.96875 c 128,-1,101
 119.958007812 -9.9248046875 119.958007812 -9.9248046875 141.51171875 -9.9248046875 c 256,102,103
 163.0703125 -9.9248046875 163.0703125 -9.9248046875 182.087890625 15.96875 c 128,-1,104
 201.111328125 41.8642578125 201.111328125 41.8642578125 215.694335938 86.375 c 128,-1,105
 230.272460938 130.883789062 230.272460938 130.883789062 238.516601562 191.57421875 c 128,-1,106
 246.760742188 252.26953125 246.760742188 252.26953125 246.760742188 323.482421875 c 0,107,108
 246.760742188 393.077148438 246.760742188 393.077148438 238.516601562 453.770507812 c 128,-1,109
 230.272460938 514.46484375 230.272460938 514.46484375 215.694335938 559.783203125 c 128,-1,110
 201.111328125 605.098632812 201.111328125 605.098632812 182.087890625 630.185546875 c 128,-1,111
 163.0703125 655.2734375 163.0703125 655.2734375 141.51171875 655.2734375 c 256,92,93
139.475585938 597.200195312 m 0,112,113
 150.83203125 596.94140625 150.83203125 596.94140625 160.532226562 576.907226562 c 0,114,115
 170.873046875 556.34765625 170.873046875 556.34765625 177.481445312 520.291015625 c 0,116,117
 184.650390625 484.387695312 184.650390625 484.387695312 188.77734375 434.8359375 c 0,118,119
 193.418945312 385.672851562 193.418945312 385.672851562 192.885742188 330.15234375 c 0,120,121
 193.418945312 272.196289062 193.418945312 272.196289062 188.77734375 224.399414062 c 0,122,123
 184.650390625 176.247070312 184.650390625 176.247070312 177.481445312 140.010742188 c 0,124,125
 170.873046875 103.366210938 170.873046875 103.366210938 160.532226562 83.3974609375 c 0,126,127
 150.83203125 62.7705078125 150.83203125 62.7705078125 139.475585938 63.1005859375 c 0,128,129
 129.540039062 62.7705078125 129.540039062 62.7705078125 118.934570312 83.3974609375 c 0,130,131
 108.245117188 103.366210938 108.245117188 103.366210938 101.474609375 140.010742188 c 0,132,133
 94.4677734375 176.247070312 94.4677734375 176.247070312 90.173828125 224.399414062 c 0,134,135
 85.7001953125 272.196289062 85.7001953125 272.196289062 86.06640625 330.15234375 c 0,136,137
 85.7001953125 385.672851562 85.7001953125 385.672851562 90.173828125 434.8359375 c 0,138,139
 94.4677734375 484.387695312 94.4677734375 484.387695312 101.474609375 520.291015625 c 0,140,141
 108.245117188 556.34765625 108.245117188 556.34765625 118.934570312 576.907226562 c 0,142,143
 129.540039062 596.94140625 129.540039062 596.94140625 139.475585938 597.200195312 c 0,112,113
EndSplineSet
Validated: 41
EndChar

StartChar: four.deva
Encoding: 52 52 20
Width: 926
Flags: W
LayerCount: 2
Fore
SplineSet
776.555664062 655.2734375 m 256,0,1
 755.000976562 655.2734375 755.000976562 655.2734375 735.344726562 630.185546875 c 128,-1,2
 715.69140625 605.098632812 715.69140625 605.098632812 701.745117188 559.783203125 c 128,-1,3
 687.795898438 514.46484375 687.795898438 514.46484375 679.552734375 453.770507812 c 128,-1,4
 671.311523438 393.077148438 671.311523438 393.077148438 671.311523438 323.482421875 c 0,5,6
 671.311523438 252.26953125 671.311523438 252.26953125 679.552734375 191.57421875 c 128,-1,7
 687.795898438 130.883789062 687.795898438 130.883789062 701.745117188 86.375 c 128,-1,8
 715.69140625 41.8642578125 715.69140625 41.8642578125 735.344726562 15.96875 c 128,-1,9
 755.000976562 -9.9248046875 755.000976562 -9.9248046875 776.555664062 -9.9248046875 c 256,10,11
 798.11328125 -9.9248046875 798.11328125 -9.9248046875 817.133789062 15.96875 c 128,-1,12
 836.15625 41.8642578125 836.15625 41.8642578125 850.739257812 86.375 c 128,-1,13
 865.317382812 130.883789062 865.317382812 130.883789062 873.560546875 191.57421875 c 128,-1,14
 881.8046875 252.26953125 881.8046875 252.26953125 881.8046875 323.482421875 c 0,15,16
 881.8046875 393.077148438 881.8046875 393.077148438 873.560546875 453.770507812 c 128,-1,17
 865.317382812 514.46484375 865.317382812 514.46484375 850.739257812 559.783203125 c 128,-1,18
 836.15625 605.098632812 836.15625 605.098632812 817.133789062 630.185546875 c 128,-1,19
 798.11328125 655.2734375 798.11328125 655.2734375 776.555664062 655.2734375 c 256,0,1
774.51953125 597.200195312 m 0,20,21
 785.875 596.94140625 785.875 596.94140625 795.578125 576.907226562 c 0,22,23
 805.916992188 556.34765625 805.916992188 556.34765625 812.524414062 520.291015625 c 0,24,25
 819.696289062 484.387695312 819.696289062 484.387695312 823.822265625 434.8359375 c 0,26,27
 828.463867188 385.672851562 828.463867188 385.672851562 827.9296875 330.15234375 c 0,28,29
 828.463867188 272.196289062 828.463867188 272.196289062 823.822265625 224.399414062 c 0,30,31
 819.696289062 176.247070312 819.696289062 176.247070312 812.524414062 140.010742188 c 0,32,33
 805.916992188 103.366210938 805.916992188 103.366210938 795.578125 83.3974609375 c 0,34,35
 785.875 62.7705078125 785.875 62.7705078125 774.51953125 63.1005859375 c 0,36,37
 764.583007812 62.7705078125 764.583007812 62.7705078125 753.978515625 83.3974609375 c 0,38,39
 743.2890625 103.366210938 743.2890625 103.366210938 736.517578125 140.010742188 c 0,40,41
 729.510742188 176.247070312 729.510742188 176.247070312 725.21875 224.399414062 c 0,42,43
 720.743164062 272.196289062 720.743164062 272.196289062 721.111328125 330.15234375 c 0,44,45
 720.743164062 385.672851562 720.743164062 385.672851562 725.21875 434.8359375 c 0,46,47
 729.510742188 484.387695312 729.510742188 484.387695312 736.517578125 520.291015625 c 0,48,49
 743.2890625 556.34765625 743.2890625 556.34765625 753.978515625 576.907226562 c 0,50,51
 764.583007812 596.94140625 764.583007812 596.94140625 774.51953125 597.200195312 c 0,20,21
564.874023438 655.2734375 m 256,52,53
 543.3203125 655.2734375 543.3203125 655.2734375 523.6640625 630.185546875 c 128,-1,54
 504.009765625 605.098632812 504.009765625 605.098632812 490.064453125 559.783203125 c 128,-1,55
 476.11328125 514.46484375 476.11328125 514.46484375 467.872070312 453.770507812 c 128,-1,56
 459.630859375 393.077148438 459.630859375 393.077148438 459.630859375 323.482421875 c 0,57,58
 459.630859375 252.26953125 459.630859375 252.26953125 467.872070312 191.57421875 c 128,-1,59
 476.11328125 130.883789062 476.11328125 130.883789062 490.064453125 86.375 c 128,-1,60
 504.009765625 41.8642578125 504.009765625 41.8642578125 523.6640625 15.96875 c 128,-1,61
 543.3203125 -9.9248046875 543.3203125 -9.9248046875 564.874023438 -9.9248046875 c 256,62,63
 586.432617188 -9.9248046875 586.432617188 -9.9248046875 605.451171875 15.96875 c 128,-1,64
 624.473632812 41.8642578125 624.473632812 41.8642578125 639.057617188 86.375 c 128,-1,65
 653.635742188 130.883789062 653.635742188 130.883789062 661.87890625 191.57421875 c 128,-1,66
 670.124023438 252.26953125 670.124023438 252.26953125 670.124023438 323.482421875 c 0,67,68
 670.124023438 393.077148438 670.124023438 393.077148438 661.87890625 453.770507812 c 128,-1,69
 653.635742188 514.46484375 653.635742188 514.46484375 639.057617188 559.783203125 c 128,-1,70
 624.473632812 605.098632812 624.473632812 605.098632812 605.451171875 630.185546875 c 128,-1,71
 586.432617188 655.2734375 586.432617188 655.2734375 564.874023438 655.2734375 c 256,52,53
562.838867188 597.200195312 m 0,72,73
 574.194335938 596.94140625 574.194335938 596.94140625 583.896484375 576.907226562 c 0,74,75
 594.236328125 556.34765625 594.236328125 556.34765625 600.84375 520.291015625 c 0,76,77
 608.013671875 484.387695312 608.013671875 484.387695312 612.139648438 434.8359375 c 0,78,79
 616.782226562 385.672851562 616.782226562 385.672851562 616.248046875 330.15234375 c 0,80,81
 616.782226562 272.196289062 616.782226562 272.196289062 612.139648438 224.399414062 c 0,82,83
 608.013671875 176.247070312 608.013671875 176.247070312 600.84375 140.010742188 c 0,84,85
 594.236328125 103.366210938 594.236328125 103.366210938 583.896484375 83.3974609375 c 0,86,87
 574.194335938 62.7705078125 574.194335938 62.7705078125 562.838867188 63.1005859375 c 0,88,89
 552.90234375 62.7705078125 552.90234375 62.7705078125 542.296875 83.3974609375 c 0,90,91
 531.606445312 103.366210938 531.606445312 103.366210938 524.836914062 140.010742188 c 0,92,93
 517.830078125 176.247070312 517.830078125 176.247070312 513.538085938 224.399414062 c 0,94,95
 509.0625 272.196289062 509.0625 272.196289062 509.4296875 330.15234375 c 0,96,97
 509.0625 385.672851562 509.0625 385.672851562 513.538085938 434.8359375 c 0,98,99
 517.830078125 484.387695312 517.830078125 484.387695312 524.836914062 520.291015625 c 0,100,101
 531.606445312 556.34765625 531.606445312 556.34765625 542.296875 576.907226562 c 0,102,103
 552.90234375 596.94140625 552.90234375 596.94140625 562.838867188 597.200195312 c 0,72,73
353.193359375 655.2734375 m 256,104,105
 331.638671875 655.2734375 331.638671875 655.2734375 311.983398438 630.185546875 c 128,-1,106
 292.328125 605.098632812 292.328125 605.098632812 278.381835938 559.783203125 c 128,-1,107
 264.432617188 514.46484375 264.432617188 514.46484375 256.190429688 453.770507812 c 128,-1,108
 247.94921875 393.077148438 247.94921875 393.077148438 247.94921875 323.482421875 c 0,109,110
 247.94921875 252.26953125 247.94921875 252.26953125 256.190429688 191.57421875 c 128,-1,111
 264.432617188 130.883789062 264.432617188 130.883789062 278.381835938 86.375 c 128,-1,112
 292.328125 41.8642578125 292.328125 41.8642578125 311.983398438 15.96875 c 128,-1,113
 331.638671875 -9.9248046875 331.638671875 -9.9248046875 353.193359375 -9.9248046875 c 256,114,115
 374.750976562 -9.9248046875 374.750976562 -9.9248046875 393.770507812 15.96875 c 128,-1,116
 412.79296875 41.8642578125 412.79296875 41.8642578125 427.375976562 86.375 c 128,-1,117
 441.953125 130.883789062 441.953125 130.883789062 450.198242188 191.57421875 c 128,-1,118
 458.44140625 252.26953125 458.44140625 252.26953125 458.44140625 323.482421875 c 0,119,120
 458.44140625 393.077148438 458.44140625 393.077148438 450.198242188 453.770507812 c 128,-1,121
 441.953125 514.46484375 441.953125 514.46484375 427.375976562 559.783203125 c 128,-1,122
 412.79296875 605.098632812 412.79296875 605.098632812 393.770507812 630.185546875 c 128,-1,123
 374.750976562 655.2734375 374.750976562 655.2734375 353.193359375 655.2734375 c 256,104,105
141.51171875 655.2734375 m 256,124,125
 119.958007812 655.2734375 119.958007812 655.2734375 100.301757812 630.185546875 c 128,-1,126
 80.6474609375 605.098632812 80.6474609375 605.098632812 66.701171875 559.783203125 c 128,-1,127
 52.7509765625 514.46484375 52.7509765625 514.46484375 44.509765625 453.770507812 c 128,-1,128
 36.267578125 393.077148438 36.267578125 393.077148438 36.267578125 323.482421875 c 0,129,130
 36.267578125 252.26953125 36.267578125 252.26953125 44.509765625 191.57421875 c 128,-1,131
 52.7509765625 130.883789062 52.7509765625 130.883789062 66.701171875 86.375 c 128,-1,132
 80.6474609375 41.8642578125 80.6474609375 41.8642578125 100.301757812 15.96875 c 128,-1,133
 119.958007812 -9.9248046875 119.958007812 -9.9248046875 141.51171875 -9.9248046875 c 256,134,135
 163.0703125 -9.9248046875 163.0703125 -9.9248046875 182.087890625 15.96875 c 128,-1,136
 201.111328125 41.8642578125 201.111328125 41.8642578125 215.694335938 86.375 c 128,-1,137
 230.272460938 130.883789062 230.272460938 130.883789062 238.516601562 191.57421875 c 128,-1,138
 246.760742188 252.26953125 246.760742188 252.26953125 246.760742188 323.482421875 c 0,139,140
 246.760742188 393.077148438 246.760742188 393.077148438 238.516601562 453.770507812 c 128,-1,141
 230.272460938 514.46484375 230.272460938 514.46484375 215.694335938 559.783203125 c 128,-1,142
 201.111328125 605.098632812 201.111328125 605.098632812 182.087890625 630.185546875 c 128,-1,143
 163.0703125 655.2734375 163.0703125 655.2734375 141.51171875 655.2734375 c 256,124,125
139.475585938 597.200195312 m 0,144,145
 150.83203125 596.94140625 150.83203125 596.94140625 160.532226562 576.907226562 c 0,146,147
 170.873046875 556.34765625 170.873046875 556.34765625 177.481445312 520.291015625 c 0,148,149
 184.650390625 484.387695312 184.650390625 484.387695312 188.77734375 434.8359375 c 0,150,151
 193.418945312 385.672851562 193.418945312 385.672851562 192.885742188 330.15234375 c 0,152,153
 193.418945312 272.196289062 193.418945312 272.196289062 188.77734375 224.399414062 c 0,154,155
 184.650390625 176.247070312 184.650390625 176.247070312 177.481445312 140.010742188 c 0,156,157
 170.873046875 103.366210938 170.873046875 103.366210938 160.532226562 83.3974609375 c 0,158,159
 150.83203125 62.7705078125 150.83203125 62.7705078125 139.475585938 63.1005859375 c 0,160,161
 129.540039062 62.7705078125 129.540039062 62.7705078125 118.934570312 83.3974609375 c 0,162,163
 108.245117188 103.366210938 108.245117188 103.366210938 101.474609375 140.010742188 c 0,164,165
 94.4677734375 176.247070312 94.4677734375 176.247070312 90.173828125 224.399414062 c 0,166,167
 85.7001953125 272.196289062 85.7001953125 272.196289062 86.06640625 330.15234375 c 0,168,169
 85.7001953125 385.672851562 85.7001953125 385.672851562 90.173828125 434.8359375 c 0,170,171
 94.4677734375 484.387695312 94.4677734375 484.387695312 101.474609375 520.291015625 c 0,172,173
 108.245117188 556.34765625 108.245117188 556.34765625 118.934570312 576.907226562 c 0,174,175
 129.540039062 596.94140625 129.540039062 596.94140625 139.475585938 597.200195312 c 0,144,145
EndSplineSet
Validated: 41
EndChar

StartChar: five.deva
Encoding: 53 53 21
Width: 926
Flags: W
LayerCount: 2
Fore
SplineSet
776.555664062 655.2734375 m 256,0,1
 755.000976562 655.2734375 755.000976562 655.2734375 735.344726562 630.185546875 c 128,-1,2
 715.69140625 605.098632812 715.69140625 605.098632812 701.745117188 559.783203125 c 128,-1,3
 687.795898438 514.46484375 687.795898438 514.46484375 679.552734375 453.770507812 c 128,-1,4
 671.311523438 393.077148438 671.311523438 393.077148438 671.311523438 323.482421875 c 0,5,6
 671.311523438 252.26953125 671.311523438 252.26953125 679.552734375 191.57421875 c 128,-1,7
 687.795898438 130.883789062 687.795898438 130.883789062 701.745117188 86.375 c 128,-1,8
 715.69140625 41.8642578125 715.69140625 41.8642578125 735.344726562 15.96875 c 128,-1,9
 755.000976562 -9.9248046875 755.000976562 -9.9248046875 776.555664062 -9.9248046875 c 256,10,11
 798.11328125 -9.9248046875 798.11328125 -9.9248046875 817.133789062 15.96875 c 128,-1,12
 836.15625 41.8642578125 836.15625 41.8642578125 850.739257812 86.375 c 128,-1,13
 865.317382812 130.883789062 865.317382812 130.883789062 873.560546875 191.57421875 c 128,-1,14
 881.8046875 252.26953125 881.8046875 252.26953125 881.8046875 323.482421875 c 0,15,16
 881.8046875 393.077148438 881.8046875 393.077148438 873.560546875 453.770507812 c 128,-1,17
 865.317382812 514.46484375 865.317382812 514.46484375 850.739257812 559.783203125 c 128,-1,18
 836.15625 605.098632812 836.15625 605.098632812 817.133789062 630.185546875 c 128,-1,19
 798.11328125 655.2734375 798.11328125 655.2734375 776.555664062 655.2734375 c 256,0,1
564.874023438 655.2734375 m 256,20,21
 543.3203125 655.2734375 543.3203125 655.2734375 523.6640625 630.185546875 c 128,-1,22
 504.009765625 605.098632812 504.009765625 605.098632812 490.064453125 559.783203125 c 128,-1,23
 476.11328125 514.46484375 476.11328125 514.46484375 467.872070312 453.770507812 c 128,-1,24
 459.630859375 393.077148438 459.630859375 393.077148438 459.630859375 323.482421875 c 0,25,26
 459.630859375 252.26953125 459.630859375 252.26953125 467.872070312 191.57421875 c 128,-1,27
 476.11328125 130.883789062 476.11328125 130.883789062 490.064453125 86.375 c 128,-1,28
 504.009765625 41.8642578125 504.009765625 41.8642578125 523.6640625 15.96875 c 128,-1,29
 543.3203125 -9.9248046875 543.3203125 -9.9248046875 564.874023438 -9.9248046875 c 256,30,31
 586.432617188 -9.9248046875 586.432617188 -9.9248046875 605.451171875 15.96875 c 128,-1,32
 624.473632812 41.8642578125 624.473632812 41.8642578125 639.057617188 86.375 c 128,-1,33
 653.635742188 130.883789062 653.635742188 130.883789062 661.87890625 191.57421875 c 128,-1,34
 670.124023438 252.26953125 670.124023438 252.26953125 670.124023438 323.482421875 c 0,35,36
 670.124023438 393.077148438 670.124023438 393.077148438 661.87890625 453.770507812 c 128,-1,37
 653.635742188 514.46484375 653.635742188 514.46484375 639.057617188 559.783203125 c 128,-1,38
 624.473632812 605.098632812 624.473632812 605.098632812 605.451171875 630.185546875 c 128,-1,39
 586.432617188 655.2734375 586.432617188 655.2734375 564.874023438 655.2734375 c 256,20,21
562.838867188 597.200195312 m 0,40,41
 574.194335938 596.94140625 574.194335938 596.94140625 583.896484375 576.907226562 c 0,42,43
 594.236328125 556.34765625 594.236328125 556.34765625 600.84375 520.291015625 c 0,44,45
 608.013671875 484.387695312 608.013671875 484.387695312 612.139648438 434.8359375 c 0,46,47
 616.782226562 385.672851562 616.782226562 385.672851562 616.248046875 330.15234375 c 0,48,49
 616.782226562 272.196289062 616.782226562 272.196289062 612.139648438 224.399414062 c 0,50,51
 608.013671875 176.247070312 608.013671875 176.247070312 600.84375 140.010742188 c 0,52,53
 594.236328125 103.366210938 594.236328125 103.366210938 583.896484375 83.3974609375 c 0,54,55
 574.194335938 62.7705078125 574.194335938 62.7705078125 562.838867188 63.1005859375 c 0,56,57
 552.90234375 62.7705078125 552.90234375 62.7705078125 542.296875 83.3974609375 c 0,58,59
 531.606445312 103.366210938 531.606445312 103.366210938 524.836914062 140.010742188 c 0,60,61
 517.830078125 176.247070312 517.830078125 176.247070312 513.538085938 224.399414062 c 0,62,63
 509.0625 272.196289062 509.0625 272.196289062 509.4296875 330.15234375 c 0,64,65
 509.0625 385.672851562 509.0625 385.672851562 513.538085938 434.8359375 c 0,66,67
 517.830078125 484.387695312 517.830078125 484.387695312 524.836914062 520.291015625 c 0,68,69
 531.606445312 556.34765625 531.606445312 556.34765625 542.296875 576.907226562 c 0,70,71
 552.90234375 596.94140625 552.90234375 596.94140625 562.838867188 597.200195312 c 0,40,41
353.193359375 655.2734375 m 256,72,73
 331.638671875 655.2734375 331.638671875 655.2734375 311.983398438 630.185546875 c 128,-1,74
 292.328125 605.098632812 292.328125 605.098632812 278.381835938 559.783203125 c 128,-1,75
 264.432617188 514.46484375 264.432617188 514.46484375 256.190429688 453.770507812 c 128,-1,76
 247.94921875 393.077148438 247.94921875 393.077148438 247.94921875 323.482421875 c 0,77,78
 247.94921875 252.26953125 247.94921875 252.26953125 256.190429688 191.57421875 c 128,-1,79
 264.432617188 130.883789062 264.432617188 130.883789062 278.381835938 86.375 c 128,-1,80
 292.328125 41.8642578125 292.328125 41.8642578125 311.983398438 15.96875 c 128,-1,81
 331.638671875 -9.9248046875 331.638671875 -9.9248046875 353.193359375 -9.9248046875 c 256,82,83
 374.750976562 -9.9248046875 374.750976562 -9.9248046875 393.770507812 15.96875 c 128,-1,84
 412.79296875 41.8642578125 412.79296875 41.8642578125 427.375976562 86.375 c 128,-1,85
 441.953125 130.883789062 441.953125 130.883789062 450.198242188 191.57421875 c 128,-1,86
 458.44140625 252.26953125 458.44140625 252.26953125 458.44140625 323.482421875 c 0,87,88
 458.44140625 393.077148438 458.44140625 393.077148438 450.198242188 453.770507812 c 128,-1,89
 441.953125 514.46484375 441.953125 514.46484375 427.375976562 559.783203125 c 128,-1,90
 412.79296875 605.098632812 412.79296875 605.098632812 393.770507812 630.185546875 c 128,-1,91
 374.750976562 655.2734375 374.750976562 655.2734375 353.193359375 655.2734375 c 256,72,73
141.51171875 655.2734375 m 256,92,93
 119.958007812 655.2734375 119.958007812 655.2734375 100.301757812 630.185546875 c 128,-1,94
 80.6474609375 605.098632812 80.6474609375 605.098632812 66.701171875 559.783203125 c 128,-1,95
 52.7509765625 514.46484375 52.7509765625 514.46484375 44.509765625 453.770507812 c 128,-1,96
 36.267578125 393.077148438 36.267578125 393.077148438 36.267578125 323.482421875 c 0,97,98
 36.267578125 252.26953125 36.267578125 252.26953125 44.509765625 191.57421875 c 128,-1,99
 52.7509765625 130.883789062 52.7509765625 130.883789062 66.701171875 86.375 c 128,-1,100
 80.6474609375 41.8642578125 80.6474609375 41.8642578125 100.301757812 15.96875 c 128,-1,101
 119.958007812 -9.9248046875 119.958007812 -9.9248046875 141.51171875 -9.9248046875 c 256,102,103
 163.0703125 -9.9248046875 163.0703125 -9.9248046875 182.087890625 15.96875 c 128,-1,104
 201.111328125 41.8642578125 201.111328125 41.8642578125 215.694335938 86.375 c 128,-1,105
 230.272460938 130.883789062 230.272460938 130.883789062 238.516601562 191.57421875 c 128,-1,106
 246.760742188 252.26953125 246.760742188 252.26953125 246.760742188 323.482421875 c 0,107,108
 246.760742188 393.077148438 246.760742188 393.077148438 238.516601562 453.770507812 c 128,-1,109
 230.272460938 514.46484375 230.272460938 514.46484375 215.694335938 559.783203125 c 128,-1,110
 201.111328125 605.098632812 201.111328125 605.098632812 182.087890625 630.185546875 c 128,-1,111
 163.0703125 655.2734375 163.0703125 655.2734375 141.51171875 655.2734375 c 256,92,93
139.475585938 597.200195312 m 0,112,113
 150.83203125 596.94140625 150.83203125 596.94140625 160.532226562 576.907226562 c 0,114,115
 170.873046875 556.34765625 170.873046875 556.34765625 177.481445312 520.291015625 c 0,116,117
 184.650390625 484.387695312 184.650390625 484.387695312 188.77734375 434.8359375 c 0,118,119
 193.418945312 385.672851562 193.418945312 385.672851562 192.885742188 330.15234375 c 0,120,121
 193.418945312 272.196289062 193.418945312 272.196289062 188.77734375 224.399414062 c 0,122,123
 184.650390625 176.247070312 184.650390625 176.247070312 177.481445312 140.010742188 c 0,124,125
 170.873046875 103.366210938 170.873046875 103.366210938 160.532226562 83.3974609375 c 0,126,127
 150.83203125 62.7705078125 150.83203125 62.7705078125 139.475585938 63.1005859375 c 0,128,129
 129.540039062 62.7705078125 129.540039062 62.7705078125 118.934570312 83.3974609375 c 0,130,131
 108.245117188 103.366210938 108.245117188 103.366210938 101.474609375 140.010742188 c 0,132,133
 94.4677734375 176.247070312 94.4677734375 176.247070312 90.173828125 224.399414062 c 0,134,135
 85.7001953125 272.196289062 85.7001953125 272.196289062 86.06640625 330.15234375 c 0,136,137
 85.7001953125 385.672851562 85.7001953125 385.672851562 90.173828125 434.8359375 c 0,138,139
 94.4677734375 484.387695312 94.4677734375 484.387695312 101.474609375 520.291015625 c 0,140,141
 108.245117188 556.34765625 108.245117188 556.34765625 118.934570312 576.907226562 c 0,142,143
 129.540039062 596.94140625 129.540039062 596.94140625 139.475585938 597.200195312 c 0,112,113
EndSplineSet
Validated: 41
EndChar

StartChar: six.deva
Encoding: 54 54 22
Width: 926
Flags: W
LayerCount: 2
Fore
SplineSet
776.555664062 655.2734375 m 256,0,1
 755.000976562 655.2734375 755.000976562 655.2734375 735.344726562 630.185546875 c 128,-1,2
 715.69140625 605.098632812 715.69140625 605.098632812 701.745117188 559.783203125 c 128,-1,3
 687.795898438 514.46484375 687.795898438 514.46484375 679.552734375 453.770507812 c 128,-1,4
 671.311523438 393.077148438 671.311523438 393.077148438 671.311523438 323.482421875 c 0,5,6
 671.311523438 252.26953125 671.311523438 252.26953125 679.552734375 191.57421875 c 128,-1,7
 687.795898438 130.883789062 687.795898438 130.883789062 701.745117188 86.375 c 128,-1,8
 715.69140625 41.8642578125 715.69140625 41.8642578125 735.344726562 15.96875 c 128,-1,9
 755.000976562 -9.9248046875 755.000976562 -9.9248046875 776.555664062 -9.9248046875 c 256,10,11
 798.11328125 -9.9248046875 798.11328125 -9.9248046875 817.133789062 15.96875 c 128,-1,12
 836.15625 41.8642578125 836.15625 41.8642578125 850.739257812 86.375 c 128,-1,13
 865.317382812 130.883789062 865.317382812 130.883789062 873.560546875 191.57421875 c 128,-1,14
 881.8046875 252.26953125 881.8046875 252.26953125 881.8046875 323.482421875 c 0,15,16
 881.8046875 393.077148438 881.8046875 393.077148438 873.560546875 453.770507812 c 128,-1,17
 865.317382812 514.46484375 865.317382812 514.46484375 850.739257812 559.783203125 c 128,-1,18
 836.15625 605.098632812 836.15625 605.098632812 817.133789062 630.185546875 c 128,-1,19
 798.11328125 655.2734375 798.11328125 655.2734375 776.555664062 655.2734375 c 256,0,1
774.51953125 597.200195312 m 0,20,21
 785.875 596.94140625 785.875 596.94140625 795.578125 576.907226562 c 0,22,23
 805.916992188 556.34765625 805.916992188 556.34765625 812.524414062 520.291015625 c 0,24,25
 819.696289062 484.387695312 819.696289062 484.387695312 823.822265625 434.8359375 c 0,26,27
 828.463867188 385.672851562 828.463867188 385.672851562 827.9296875 330.15234375 c 0,28,29
 828.463867188 272.196289062 828.463867188 272.196289062 823.822265625 224.399414062 c 0,30,31
 819.696289062 176.247070312 819.696289062 176.247070312 812.524414062 140.010742188 c 0,32,33
 805.916992188 103.366210938 805.916992188 103.366210938 795.578125 83.3974609375 c 0,34,35
 785.875 62.7705078125 785.875 62.7705078125 774.51953125 63.1005859375 c 0,36,37
 764.583007812 62.7705078125 764.583007812 62.7705078125 753.978515625 83.3974609375 c 0,38,39
 743.2890625 103.366210938 743.2890625 103.366210938 736.517578125 140.010742188 c 0,40,41
 729.510742188 176.247070312 729.510742188 176.247070312 725.21875 224.399414062 c 0,42,43
 720.743164062 272.196289062 720.743164062 272.196289062 721.111328125 330.15234375 c 0,44,45
 720.743164062 385.672851562 720.743164062 385.672851562 725.21875 434.8359375 c 0,46,47
 729.510742188 484.387695312 729.510742188 484.387695312 736.517578125 520.291015625 c 0,48,49
 743.2890625 556.34765625 743.2890625 556.34765625 753.978515625 576.907226562 c 0,50,51
 764.583007812 596.94140625 764.583007812 596.94140625 774.51953125 597.200195312 c 0,20,21
564.874023438 655.2734375 m 256,52,53
 543.3203125 655.2734375 543.3203125 655.2734375 523.6640625 630.185546875 c 128,-1,54
 504.009765625 605.098632812 504.009765625 605.098632812 490.064453125 559.783203125 c 128,-1,55
 476.11328125 514.46484375 476.11328125 514.46484375 467.872070312 453.770507812 c 128,-1,56
 459.630859375 393.077148438 459.630859375 393.077148438 459.630859375 323.482421875 c 0,57,58
 459.630859375 252.26953125 459.630859375 252.26953125 467.872070312 191.57421875 c 128,-1,59
 476.11328125 130.883789062 476.11328125 130.883789062 490.064453125 86.375 c 128,-1,60
 504.009765625 41.8642578125 504.009765625 41.8642578125 523.6640625 15.96875 c 128,-1,61
 543.3203125 -9.9248046875 543.3203125 -9.9248046875 564.874023438 -9.9248046875 c 256,62,63
 586.432617188 -9.9248046875 586.432617188 -9.9248046875 605.451171875 15.96875 c 128,-1,64
 624.473632812 41.8642578125 624.473632812 41.8642578125 639.057617188 86.375 c 128,-1,65
 653.635742188 130.883789062 653.635742188 130.883789062 661.87890625 191.57421875 c 128,-1,66
 670.124023438 252.26953125 670.124023438 252.26953125 670.124023438 323.482421875 c 0,67,68
 670.124023438 393.077148438 670.124023438 393.077148438 661.87890625 453.770507812 c 128,-1,69
 653.635742188 514.46484375 653.635742188 514.46484375 639.057617188 559.783203125 c 128,-1,70
 624.473632812 605.098632812 624.473632812 605.098632812 605.451171875 630.185546875 c 128,-1,71
 586.432617188 655.2734375 586.432617188 655.2734375 564.874023438 655.2734375 c 256,52,53
353.193359375 655.2734375 m 256,72,73
 331.638671875 655.2734375 331.638671875 655.2734375 311.983398438 630.185546875 c 128,-1,74
 292.328125 605.098632812 292.328125 605.098632812 278.381835938 559.783203125 c 128,-1,75
 264.432617188 514.46484375 264.432617188 514.46484375 256.190429688 453.770507812 c 128,-1,76
 247.94921875 393.077148438 247.94921875 393.077148438 247.94921875 323.482421875 c 0,77,78
 247.94921875 252.26953125 247.94921875 252.26953125 256.190429688 191.57421875 c 128,-1,79
 264.432617188 130.883789062 264.432617188 130.883789062 278.381835938 86.375 c 128,-1,80
 292.328125 41.8642578125 292.328125 41.8642578125 311.983398438 15.96875 c 128,-1,81
 331.638671875 -9.9248046875 331.638671875 -9.9248046875 353.193359375 -9.9248046875 c 256,82,83
 374.750976562 -9.9248046875 374.750976562 -9.9248046875 393.770507812 15.96875 c 128,-1,84
 412.79296875 41.8642578125 412.79296875 41.8642578125 427.375976562 86.375 c 128,-1,85
 441.953125 130.883789062 441.953125 130.883789062 450.198242188 191.57421875 c 128,-1,86
 458.44140625 252.26953125 458.44140625 252.26953125 458.44140625 323.482421875 c 0,87,88
 458.44140625 393.077148438 458.44140625 393.077148438 450.198242188 453.770507812 c 128,-1,89
 441.953125 514.46484375 441.953125 514.46484375 427.375976562 559.783203125 c 128,-1,90
 412.79296875 605.098632812 412.79296875 605.098632812 393.770507812 630.185546875 c 128,-1,91
 374.750976562 655.2734375 374.750976562 655.2734375 353.193359375 655.2734375 c 256,72,73
141.51171875 655.2734375 m 256,92,93
 119.958007812 655.2734375 119.958007812 655.2734375 100.301757812 630.185546875 c 128,-1,94
 80.6474609375 605.098632812 80.6474609375 605.098632812 66.701171875 559.783203125 c 128,-1,95
 52.7509765625 514.46484375 52.7509765625 514.46484375 44.509765625 453.770507812 c 128,-1,96
 36.267578125 393.077148438 36.267578125 393.077148438 36.267578125 323.482421875 c 0,97,98
 36.267578125 252.26953125 36.267578125 252.26953125 44.509765625 191.57421875 c 128,-1,99
 52.7509765625 130.883789062 52.7509765625 130.883789062 66.701171875 86.375 c 128,-1,100
 80.6474609375 41.8642578125 80.6474609375 41.8642578125 100.301757812 15.96875 c 128,-1,101
 119.958007812 -9.9248046875 119.958007812 -9.9248046875 141.51171875 -9.9248046875 c 256,102,103
 163.0703125 -9.9248046875 163.0703125 -9.9248046875 182.087890625 15.96875 c 128,-1,104
 201.111328125 41.8642578125 201.111328125 41.8642578125 215.694335938 86.375 c 128,-1,105
 230.272460938 130.883789062 230.272460938 130.883789062 238.516601562 191.57421875 c 128,-1,106
 246.760742188 252.26953125 246.760742188 252.26953125 246.760742188 323.482421875 c 0,107,108
 246.760742188 393.077148438 246.760742188 393.077148438 238.516601562 453.770507812 c 128,-1,109
 230.272460938 514.46484375 230.272460938 514.46484375 215.694335938 559.783203125 c 128,-1,110
 201.111328125 605.098632812 201.111328125 605.098632812 182.087890625 630.185546875 c 128,-1,111
 163.0703125 655.2734375 163.0703125 655.2734375 141.51171875 655.2734375 c 256,92,93
139.475585938 597.200195312 m 0,112,113
 150.83203125 596.94140625 150.83203125 596.94140625 160.532226562 576.907226562 c 0,114,115
 170.873046875 556.34765625 170.873046875 556.34765625 177.481445312 520.291015625 c 0,116,117
 184.650390625 484.387695312 184.650390625 484.387695312 188.77734375 434.8359375 c 0,118,119
 193.418945312 385.672851562 193.418945312 385.672851562 192.885742188 330.15234375 c 0,120,121
 193.418945312 272.196289062 193.418945312 272.196289062 188.77734375 224.399414062 c 0,122,123
 184.650390625 176.247070312 184.650390625 176.247070312 177.481445312 140.010742188 c 0,124,125
 170.873046875 103.366210938 170.873046875 103.366210938 160.532226562 83.3974609375 c 0,126,127
 150.83203125 62.7705078125 150.83203125 62.7705078125 139.475585938 63.1005859375 c 0,128,129
 129.540039062 62.7705078125 129.540039062 62.7705078125 118.934570312 83.3974609375 c 0,130,131
 108.245117188 103.366210938 108.245117188 103.366210938 101.474609375 140.010742188 c 0,132,133
 94.4677734375 176.247070312 94.4677734375 176.247070312 90.173828125 224.399414062 c 0,134,135
 85.7001953125 272.196289062 85.7001953125 272.196289062 86.06640625 330.15234375 c 0,136,137
 85.7001953125 385.672851562 85.7001953125 385.672851562 90.173828125 434.8359375 c 0,138,139
 94.4677734375 484.387695312 94.4677734375 484.387695312 101.474609375 520.291015625 c 0,140,141
 108.245117188 556.34765625 108.245117188 556.34765625 118.934570312 576.907226562 c 0,142,143
 129.540039062 596.94140625 129.540039062 596.94140625 139.475585938 597.200195312 c 0,112,113
EndSplineSet
Validated: 41
EndChar

StartChar: seven.deva
Encoding: 55 55 23
Width: 926
Flags: W
LayerCount: 2
Fore
SplineSet
776.555664062 655.2734375 m 256,0,1
 755.000976562 655.2734375 755.000976562 655.2734375 735.344726562 630.185546875 c 128,-1,2
 715.69140625 605.098632812 715.69140625 605.098632812 701.745117188 559.783203125 c 128,-1,3
 687.795898438 514.46484375 687.795898438 514.46484375 679.552734375 453.770507812 c 128,-1,4
 671.311523438 393.077148438 671.311523438 393.077148438 671.311523438 323.482421875 c 0,5,6
 671.311523438 252.26953125 671.311523438 252.26953125 679.552734375 191.57421875 c 128,-1,7
 687.795898438 130.883789062 687.795898438 130.883789062 701.745117188 86.375 c 128,-1,8
 715.69140625 41.8642578125 715.69140625 41.8642578125 735.344726562 15.96875 c 128,-1,9
 755.000976562 -9.9248046875 755.000976562 -9.9248046875 776.555664062 -9.9248046875 c 256,10,11
 798.11328125 -9.9248046875 798.11328125 -9.9248046875 817.133789062 15.96875 c 128,-1,12
 836.15625 41.8642578125 836.15625 41.8642578125 850.739257812 86.375 c 128,-1,13
 865.317382812 130.883789062 865.317382812 130.883789062 873.560546875 191.57421875 c 128,-1,14
 881.8046875 252.26953125 881.8046875 252.26953125 881.8046875 323.482421875 c 0,15,16
 881.8046875 393.077148438 881.8046875 393.077148438 873.560546875 453.770507812 c 128,-1,17
 865.317382812 514.46484375 865.317382812 514.46484375 850.739257812 559.783203125 c 128,-1,18
 836.15625 605.098632812 836.15625 605.098632812 817.133789062 630.185546875 c 128,-1,19
 798.11328125 655.2734375 798.11328125 655.2734375 776.555664062 655.2734375 c 256,0,1
564.874023438 655.2734375 m 256,20,21
 543.3203125 655.2734375 543.3203125 655.2734375 523.6640625 630.185546875 c 128,-1,22
 504.009765625 605.098632812 504.009765625 605.098632812 490.064453125 559.783203125 c 128,-1,23
 476.11328125 514.46484375 476.11328125 514.46484375 467.872070312 453.770507812 c 128,-1,24
 459.630859375 393.077148438 459.630859375 393.077148438 459.630859375 323.482421875 c 0,25,26
 459.630859375 252.26953125 459.630859375 252.26953125 467.872070312 191.57421875 c 128,-1,27
 476.11328125 130.883789062 476.11328125 130.883789062 490.064453125 86.375 c 128,-1,28
 504.009765625 41.8642578125 504.009765625 41.8642578125 523.6640625 15.96875 c 128,-1,29
 543.3203125 -9.9248046875 543.3203125 -9.9248046875 564.874023438 -9.9248046875 c 256,30,31
 586.432617188 -9.9248046875 586.432617188 -9.9248046875 605.451171875 15.96875 c 128,-1,32
 624.473632812 41.8642578125 624.473632812 41.8642578125 639.057617188 86.375 c 128,-1,33
 653.635742188 130.883789062 653.635742188 130.883789062 661.87890625 191.57421875 c 128,-1,34
 670.124023438 252.26953125 670.124023438 252.26953125 670.124023438 323.482421875 c 0,35,36
 670.124023438 393.077148438 670.124023438 393.077148438 661.87890625 453.770507812 c 128,-1,37
 653.635742188 514.46484375 653.635742188 514.46484375 639.057617188 559.783203125 c 128,-1,38
 624.473632812 605.098632812 624.473632812 605.098632812 605.451171875 630.185546875 c 128,-1,39
 586.432617188 655.2734375 586.432617188 655.2734375 564.874023438 655.2734375 c 256,20,21
353.193359375 655.2734375 m 256,40,41
 331.638671875 655.2734375 331.638671875 655.2734375 311.983398438 630.185546875 c 128,-1,42
 292.328125 605.098632812 292.328125 605.098632812 278.381835938 559.783203125 c 128,-1,43
 264.432617188 514.46484375 264.432617188 514.46484375 256.190429688 453.770507812 c 128,-1,44
 247.94921875 393.077148438 247.94921875 393.077148438 247.94921875 323.482421875 c 0,45,46
 247.94921875 252.26953125 247.94921875 252.26953125 256.190429688 191.57421875 c 128,-1,47
 264.432617188 130.883789062 264.432617188 130.883789062 278.381835938 86.375 c 128,-1,48
 292.328125 41.8642578125 292.328125 41.8642578125 311.983398438 15.96875 c 128,-1,49
 331.638671875 -9.9248046875 331.638671875 -9.9248046875 353.193359375 -9.9248046875 c 256,50,51
 374.750976562 -9.9248046875 374.750976562 -9.9248046875 393.770507812 15.96875 c 128,-1,52
 412.79296875 41.8642578125 412.79296875 41.8642578125 427.375976562 86.375 c 128,-1,53
 441.953125 130.883789062 441.953125 130.883789062 450.198242188 191.57421875 c 128,-1,54
 458.44140625 252.26953125 458.44140625 252.26953125 458.44140625 323.482421875 c 0,55,56
 458.44140625 393.077148438 458.44140625 393.077148438 450.198242188 453.770507812 c 128,-1,57
 441.953125 514.46484375 441.953125 514.46484375 427.375976562 559.783203125 c 128,-1,58
 412.79296875 605.098632812 412.79296875 605.098632812 393.770507812 630.185546875 c 128,-1,59
 374.750976562 655.2734375 374.750976562 655.2734375 353.193359375 655.2734375 c 256,40,41
141.51171875 655.2734375 m 256,60,61
 119.958007812 655.2734375 119.958007812 655.2734375 100.301757812 630.185546875 c 128,-1,62
 80.6474609375 605.098632812 80.6474609375 605.098632812 66.701171875 559.783203125 c 128,-1,63
 52.7509765625 514.46484375 52.7509765625 514.46484375 44.509765625 453.770507812 c 128,-1,64
 36.267578125 393.077148438 36.267578125 393.077148438 36.267578125 323.482421875 c 0,65,66
 36.267578125 252.26953125 36.267578125 252.26953125 44.509765625 191.57421875 c 128,-1,67
 52.7509765625 130.883789062 52.7509765625 130.883789062 66.701171875 86.375 c 128,-1,68
 80.6474609375 41.8642578125 80.6474609375 41.8642578125 100.301757812 15.96875 c 128,-1,69
 119.958007812 -9.9248046875 119.958007812 -9.9248046875 141.51171875 -9.9248046875 c 256,70,71
 163.0703125 -9.9248046875 163.0703125 -9.9248046875 182.087890625 15.96875 c 128,-1,72
 201.111328125 41.8642578125 201.111328125 41.8642578125 215.694335938 86.375 c 128,-1,73
 230.272460938 130.883789062 230.272460938 130.883789062 238.516601562 191.57421875 c 128,-1,74
 246.760742188 252.26953125 246.760742188 252.26953125 246.760742188 323.482421875 c 0,75,76
 246.760742188 393.077148438 246.760742188 393.077148438 238.516601562 453.770507812 c 128,-1,77
 230.272460938 514.46484375 230.272460938 514.46484375 215.694335938 559.783203125 c 128,-1,78
 201.111328125 605.098632812 201.111328125 605.098632812 182.087890625 630.185546875 c 128,-1,79
 163.0703125 655.2734375 163.0703125 655.2734375 141.51171875 655.2734375 c 256,60,61
139.475585938 597.200195312 m 0,80,81
 150.83203125 596.94140625 150.83203125 596.94140625 160.532226562 576.907226562 c 0,82,83
 170.873046875 556.34765625 170.873046875 556.34765625 177.481445312 520.291015625 c 0,84,85
 184.650390625 484.387695312 184.650390625 484.387695312 188.77734375 434.8359375 c 0,86,87
 193.418945312 385.672851562 193.418945312 385.672851562 192.885742188 330.15234375 c 0,88,89
 193.418945312 272.196289062 193.418945312 272.196289062 188.77734375 224.399414062 c 0,90,91
 184.650390625 176.247070312 184.650390625 176.247070312 177.481445312 140.010742188 c 0,92,93
 170.873046875 103.366210938 170.873046875 103.366210938 160.532226562 83.3974609375 c 0,94,95
 150.83203125 62.7705078125 150.83203125 62.7705078125 139.475585938 63.1005859375 c 0,96,97
 129.540039062 62.7705078125 129.540039062 62.7705078125 118.934570312 83.3974609375 c 0,98,99
 108.245117188 103.366210938 108.245117188 103.366210938 101.474609375 140.010742188 c 0,100,101
 94.4677734375 176.247070312 94.4677734375 176.247070312 90.173828125 224.399414062 c 0,102,103
 85.7001953125 272.196289062 85.7001953125 272.196289062 86.06640625 330.15234375 c 0,104,105
 85.7001953125 385.672851562 85.7001953125 385.672851562 90.173828125 434.8359375 c 0,106,107
 94.4677734375 484.387695312 94.4677734375 484.387695312 101.474609375 520.291015625 c 0,108,109
 108.245117188 556.34765625 108.245117188 556.34765625 118.934570312 576.907226562 c 0,110,111
 129.540039062 596.94140625 129.540039062 596.94140625 139.475585938 597.200195312 c 0,80,81
EndSplineSet
Validated: 41
EndChar

StartChar: eight.deva
Encoding: 56 56 24
Width: 926
Flags: W
LayerCount: 2
Fore
SplineSet
776.555664062 655.2734375 m 256,0,1
 755.000976562 655.2734375 755.000976562 655.2734375 735.344726562 630.185546875 c 128,-1,2
 715.69140625 605.098632812 715.69140625 605.098632812 701.745117188 559.783203125 c 128,-1,3
 687.795898438 514.46484375 687.795898438 514.46484375 679.552734375 453.770507812 c 128,-1,4
 671.311523438 393.077148438 671.311523438 393.077148438 671.311523438 323.482421875 c 0,5,6
 671.311523438 252.26953125 671.311523438 252.26953125 679.552734375 191.57421875 c 128,-1,7
 687.795898438 130.883789062 687.795898438 130.883789062 701.745117188 86.375 c 128,-1,8
 715.69140625 41.8642578125 715.69140625 41.8642578125 735.344726562 15.96875 c 128,-1,9
 755.000976562 -9.9248046875 755.000976562 -9.9248046875 776.555664062 -9.9248046875 c 256,10,11
 798.11328125 -9.9248046875 798.11328125 -9.9248046875 817.133789062 15.96875 c 128,-1,12
 836.15625 41.8642578125 836.15625 41.8642578125 850.739257812 86.375 c 128,-1,13
 865.317382812 130.883789062 865.317382812 130.883789062 873.560546875 191.57421875 c 128,-1,14
 881.8046875 252.26953125 881.8046875 252.26953125 881.8046875 323.482421875 c 0,15,16
 881.8046875 393.077148438 881.8046875 393.077148438 873.560546875 453.770507812 c 128,-1,17
 865.317382812 514.46484375 865.317382812 514.46484375 850.739257812 559.783203125 c 128,-1,18
 836.15625 605.098632812 836.15625 605.098632812 817.133789062 630.185546875 c 128,-1,19
 798.11328125 655.2734375 798.11328125 655.2734375 776.555664062 655.2734375 c 256,0,1
774.51953125 597.200195312 m 0,20,21
 785.875 596.94140625 785.875 596.94140625 795.578125 576.907226562 c 0,22,23
 805.916992188 556.34765625 805.916992188 556.34765625 812.524414062 520.291015625 c 0,24,25
 819.696289062 484.387695312 819.696289062 484.387695312 823.822265625 434.8359375 c 0,26,27
 828.463867188 385.672851562 828.463867188 385.672851562 827.9296875 330.15234375 c 0,28,29
 828.463867188 272.196289062 828.463867188 272.196289062 823.822265625 224.399414062 c 0,30,31
 819.696289062 176.247070312 819.696289062 176.247070312 812.524414062 140.010742188 c 0,32,33
 805.916992188 103.366210938 805.916992188 103.366210938 795.578125 83.3974609375 c 0,34,35
 785.875 62.7705078125 785.875 62.7705078125 774.51953125 63.1005859375 c 0,36,37
 764.583007812 62.7705078125 764.583007812 62.7705078125 753.978515625 83.3974609375 c 0,38,39
 743.2890625 103.366210938 743.2890625 103.366210938 736.517578125 140.010742188 c 0,40,41
 729.510742188 176.247070312 729.510742188 176.247070312 725.21875 224.399414062 c 0,42,43
 720.743164062 272.196289062 720.743164062 272.196289062 721.111328125 330.15234375 c 0,44,45
 720.743164062 385.672851562 720.743164062 385.672851562 725.21875 434.8359375 c 0,46,47
 729.510742188 484.387695312 729.510742188 484.387695312 736.517578125 520.291015625 c 0,48,49
 743.2890625 556.34765625 743.2890625 556.34765625 753.978515625 576.907226562 c 0,50,51
 764.583007812 596.94140625 764.583007812 596.94140625 774.51953125 597.200195312 c 0,20,21
564.874023438 655.2734375 m 256,52,53
 543.3203125 655.2734375 543.3203125 655.2734375 523.6640625 630.185546875 c 128,-1,54
 504.009765625 605.098632812 504.009765625 605.098632812 490.064453125 559.783203125 c 128,-1,55
 476.11328125 514.46484375 476.11328125 514.46484375 467.872070312 453.770507812 c 128,-1,56
 459.630859375 393.077148438 459.630859375 393.077148438 459.630859375 323.482421875 c 0,57,58
 459.630859375 252.26953125 459.630859375 252.26953125 467.872070312 191.57421875 c 128,-1,59
 476.11328125 130.883789062 476.11328125 130.883789062 490.064453125 86.375 c 128,-1,60
 504.009765625 41.8642578125 504.009765625 41.8642578125 523.6640625 15.96875 c 128,-1,61
 543.3203125 -9.9248046875 543.3203125 -9.9248046875 564.874023438 -9.9248046875 c 256,62,63
 586.432617188 -9.9248046875 586.432617188 -9.9248046875 605.451171875 15.96875 c 128,-1,64
 624.473632812 41.8642578125 624.473632812 41.8642578125 639.057617188 86.375 c 128,-1,65
 653.635742188 130.883789062 653.635742188 130.883789062 661.87890625 191.57421875 c 128,-1,66
 670.124023438 252.26953125 670.124023438 252.26953125 670.124023438 323.482421875 c 0,67,68
 670.124023438 393.077148438 670.124023438 393.077148438 661.87890625 453.770507812 c 128,-1,69
 653.635742188 514.46484375 653.635742188 514.46484375 639.057617188 559.783203125 c 128,-1,70
 624.473632812 605.098632812 624.473632812 605.098632812 605.451171875 630.185546875 c 128,-1,71
 586.432617188 655.2734375 586.432617188 655.2734375 564.874023438 655.2734375 c 256,52,53
562.838867188 597.200195312 m 0,72,73
 574.194335938 596.94140625 574.194335938 596.94140625 583.896484375 576.907226562 c 0,74,75
 594.236328125 556.34765625 594.236328125 556.34765625 600.84375 520.291015625 c 0,76,77
 608.013671875 484.387695312 608.013671875 484.387695312 612.139648438 434.8359375 c 0,78,79
 616.782226562 385.672851562 616.782226562 385.672851562 616.248046875 330.15234375 c 0,80,81
 616.782226562 272.196289062 616.782226562 272.196289062 612.139648438 224.399414062 c 0,82,83
 608.013671875 176.247070312 608.013671875 176.247070312 600.84375 140.010742188 c 0,84,85
 594.236328125 103.366210938 594.236328125 103.366210938 583.896484375 83.3974609375 c 0,86,87
 574.194335938 62.7705078125 574.194335938 62.7705078125 562.838867188 63.1005859375 c 0,88,89
 552.90234375 62.7705078125 552.90234375 62.7705078125 542.296875 83.3974609375 c 0,90,91
 531.606445312 103.366210938 531.606445312 103.366210938 524.836914062 140.010742188 c 0,92,93
 517.830078125 176.247070312 517.830078125 176.247070312 513.538085938 224.399414062 c 0,94,95
 509.0625 272.196289062 509.0625 272.196289062 509.4296875 330.15234375 c 0,96,97
 509.0625 385.672851562 509.0625 385.672851562 513.538085938 434.8359375 c 0,98,99
 517.830078125 484.387695312 517.830078125 484.387695312 524.836914062 520.291015625 c 0,100,101
 531.606445312 556.34765625 531.606445312 556.34765625 542.296875 576.907226562 c 0,102,103
 552.90234375 596.94140625 552.90234375 596.94140625 562.838867188 597.200195312 c 0,72,73
353.193359375 655.2734375 m 256,104,105
 331.638671875 655.2734375 331.638671875 655.2734375 311.983398438 630.185546875 c 128,-1,106
 292.328125 605.098632812 292.328125 605.098632812 278.381835938 559.783203125 c 128,-1,107
 264.432617188 514.46484375 264.432617188 514.46484375 256.190429688 453.770507812 c 128,-1,108
 247.94921875 393.077148438 247.94921875 393.077148438 247.94921875 323.482421875 c 0,109,110
 247.94921875 252.26953125 247.94921875 252.26953125 256.190429688 191.57421875 c 128,-1,111
 264.432617188 130.883789062 264.432617188 130.883789062 278.381835938 86.375 c 128,-1,112
 292.328125 41.8642578125 292.328125 41.8642578125 311.983398438 15.96875 c 128,-1,113
 331.638671875 -9.9248046875 331.638671875 -9.9248046875 353.193359375 -9.9248046875 c 256,114,115
 374.750976562 -9.9248046875 374.750976562 -9.9248046875 393.770507812 15.96875 c 128,-1,116
 412.79296875 41.8642578125 412.79296875 41.8642578125 427.375976562 86.375 c 128,-1,117
 441.953125 130.883789062 441.953125 130.883789062 450.198242188 191.57421875 c 128,-1,118
 458.44140625 252.26953125 458.44140625 252.26953125 458.44140625 323.482421875 c 0,119,120
 458.44140625 393.077148438 458.44140625 393.077148438 450.198242188 453.770507812 c 128,-1,121
 441.953125 514.46484375 441.953125 514.46484375 427.375976562 559.783203125 c 128,-1,122
 412.79296875 605.098632812 412.79296875 605.098632812 393.770507812 630.185546875 c 128,-1,123
 374.750976562 655.2734375 374.750976562 655.2734375 353.193359375 655.2734375 c 256,104,105
351.15625 597.200195312 m 0,124,125
 362.512695312 596.94140625 362.512695312 596.94140625 372.213867188 576.907226562 c 0,126,127
 382.5546875 556.34765625 382.5546875 556.34765625 389.162109375 520.291015625 c 0,128,129
 396.333007812 484.387695312 396.333007812 484.387695312 400.458984375 434.8359375 c 0,130,131
 405.1015625 385.672851562 405.1015625 385.672851562 404.56640625 330.15234375 c 0,132,133
 405.1015625 272.196289062 405.1015625 272.196289062 400.458984375 224.399414062 c 0,134,135
 396.333007812 176.247070312 396.333007812 176.247070312 389.162109375 140.010742188 c 0,136,137
 382.5546875 103.366210938 382.5546875 103.366210938 372.213867188 83.3974609375 c 0,138,139
 362.512695312 62.7705078125 362.512695312 62.7705078125 351.15625 63.1005859375 c 0,140,141
 341.220703125 62.7705078125 341.220703125 62.7705078125 330.616210938 83.3974609375 c 0,142,143
 319.92578125 103.366210938 319.92578125 103.366210938 313.155273438 140.010742188 c 0,144,145
 306.1484375 176.247070312 306.1484375 176.247070312 301.85546875 224.399414062 c 0,146,147
 297.381835938 272.196289062 297.381835938 272.196289062 297.749023438 330.15234375 c 0,148,149
 297.381835938 385.672851562 297.381835938 385.672851562 301.85546875 434.8359375 c 0,150,151
 306.1484375 484.387695312 306.1484375 484.387695312 313.155273438 520.291015625 c 0,152,153
 319.92578125 556.34765625 319.92578125 556.34765625 330.616210938 576.907226562 c 0,154,155
 341.220703125 596.94140625 341.220703125 596.94140625 351.15625 597.200195312 c 0,124,125
141.51171875 655.2734375 m 256,156,157
 119.958007812 655.2734375 119.958007812 655.2734375 100.301757812 630.185546875 c 128,-1,158
 80.6474609375 605.098632812 80.6474609375 605.098632812 66.701171875 559.783203125 c 128,-1,159
 52.7509765625 514.46484375 52.7509765625 514.46484375 44.509765625 453.770507812 c 128,-1,160
 36.267578125 393.077148438 36.267578125 393.077148438 36.267578125 323.482421875 c 0,161,162
 36.267578125 252.26953125 36.267578125 252.26953125 44.509765625 191.57421875 c 128,-1,163
 52.7509765625 130.883789062 52.7509765625 130.883789062 66.701171875 86.375 c 128,-1,164
 80.6474609375 41.8642578125 80.6474609375 41.8642578125 100.301757812 15.96875 c 128,-1,165
 119.958007812 -9.9248046875 119.958007812 -9.9248046875 141.51171875 -9.9248046875 c 256,166,167
 163.0703125 -9.9248046875 163.0703125 -9.9248046875 182.087890625 15.96875 c 128,-1,168
 201.111328125 41.8642578125 201.111328125 41.8642578125 215.694335938 86.375 c 128,-1,169
 230.272460938 130.883789062 230.272460938 130.883789062 238.516601562 191.57421875 c 128,-1,170
 246.760742188 252.26953125 246.760742188 252.26953125 246.760742188 323.482421875 c 0,171,172
 246.760742188 393.077148438 246.760742188 393.077148438 238.516601562 453.770507812 c 128,-1,173
 230.272460938 514.46484375 230.272460938 514.46484375 215.694335938 559.783203125 c 128,-1,174
 201.111328125 605.098632812 201.111328125 605.098632812 182.087890625 630.185546875 c 128,-1,175
 163.0703125 655.2734375 163.0703125 655.2734375 141.51171875 655.2734375 c 256,156,157
EndSplineSet
Validated: 41
EndChar

StartChar: nine.deva
Encoding: 57 57 25
Width: 926
Flags: W
LayerCount: 2
Fore
SplineSet
776.555664062 655.2734375 m 256,0,1
 755.000976562 655.2734375 755.000976562 655.2734375 735.344726562 630.185546875 c 128,-1,2
 715.69140625 605.098632812 715.69140625 605.098632812 701.745117188 559.783203125 c 128,-1,3
 687.795898438 514.46484375 687.795898438 514.46484375 679.552734375 453.770507812 c 128,-1,4
 671.311523438 393.077148438 671.311523438 393.077148438 671.311523438 323.482421875 c 0,5,6
 671.311523438 252.26953125 671.311523438 252.26953125 679.552734375 191.57421875 c 128,-1,7
 687.795898438 130.883789062 687.795898438 130.883789062 701.745117188 86.375 c 128,-1,8
 715.69140625 41.8642578125 715.69140625 41.8642578125 735.344726562 15.96875 c 128,-1,9
 755.000976562 -9.9248046875 755.000976562 -9.9248046875 776.555664062 -9.9248046875 c 256,10,11
 798.11328125 -9.9248046875 798.11328125 -9.9248046875 817.133789062 15.96875 c 128,-1,12
 836.15625 41.8642578125 836.15625 41.8642578125 850.739257812 86.375 c 128,-1,13
 865.317382812 130.883789062 865.317382812 130.883789062 873.560546875 191.57421875 c 128,-1,14
 881.8046875 252.26953125 881.8046875 252.26953125 881.8046875 323.482421875 c 0,15,16
 881.8046875 393.077148438 881.8046875 393.077148438 873.560546875 453.770507812 c 128,-1,17
 865.317382812 514.46484375 865.317382812 514.46484375 850.739257812 559.783203125 c 128,-1,18
 836.15625 605.098632812 836.15625 605.098632812 817.133789062 630.185546875 c 128,-1,19
 798.11328125 655.2734375 798.11328125 655.2734375 776.555664062 655.2734375 c 256,0,1
564.874023438 655.2734375 m 256,20,21
 543.3203125 655.2734375 543.3203125 655.2734375 523.6640625 630.185546875 c 128,-1,22
 504.009765625 605.098632812 504.009765625 605.098632812 490.064453125 559.783203125 c 128,-1,23
 476.11328125 514.46484375 476.11328125 514.46484375 467.872070312 453.770507812 c 128,-1,24
 459.630859375 393.077148438 459.630859375 393.077148438 459.630859375 323.482421875 c 0,25,26
 459.630859375 252.26953125 459.630859375 252.26953125 467.872070312 191.57421875 c 128,-1,27
 476.11328125 130.883789062 476.11328125 130.883789062 490.064453125 86.375 c 128,-1,28
 504.009765625 41.8642578125 504.009765625 41.8642578125 523.6640625 15.96875 c 128,-1,29
 543.3203125 -9.9248046875 543.3203125 -9.9248046875 564.874023438 -9.9248046875 c 256,30,31
 586.432617188 -9.9248046875 586.432617188 -9.9248046875 605.451171875 15.96875 c 128,-1,32
 624.473632812 41.8642578125 624.473632812 41.8642578125 639.057617188 86.375 c 128,-1,33
 653.635742188 130.883789062 653.635742188 130.883789062 661.87890625 191.57421875 c 128,-1,34
 670.124023438 252.26953125 670.124023438 252.26953125 670.124023438 323.482421875 c 0,35,36
 670.124023438 393.077148438 670.124023438 393.077148438 661.87890625 453.770507812 c 128,-1,37
 653.635742188 514.46484375 653.635742188 514.46484375 639.057617188 559.783203125 c 128,-1,38
 624.473632812 605.098632812 624.473632812 605.098632812 605.451171875 630.185546875 c 128,-1,39
 586.432617188 655.2734375 586.432617188 655.2734375 564.874023438 655.2734375 c 256,20,21
562.838867188 597.200195312 m 0,40,41
 574.194335938 596.94140625 574.194335938 596.94140625 583.896484375 576.907226562 c 0,42,43
 594.236328125 556.34765625 594.236328125 556.34765625 600.84375 520.291015625 c 0,44,45
 608.013671875 484.387695312 608.013671875 484.387695312 612.139648438 434.8359375 c 0,46,47
 616.782226562 385.672851562 616.782226562 385.672851562 616.248046875 330.15234375 c 0,48,49
 616.782226562 272.196289062 616.782226562 272.196289062 612.139648438 224.399414062 c 0,50,51
 608.013671875 176.247070312 608.013671875 176.247070312 600.84375 140.010742188 c 0,52,53
 594.236328125 103.366210938 594.236328125 103.366210938 583.896484375 83.3974609375 c 0,54,55
 574.194335938 62.7705078125 574.194335938 62.7705078125 562.838867188 63.1005859375 c 0,56,57
 552.90234375 62.7705078125 552.90234375 62.7705078125 542.296875 83.3974609375 c 0,58,59
 531.606445312 103.366210938 531.606445312 103.366210938 524.836914062 140.010742188 c 0,60,61
 517.830078125 176.247070312 517.830078125 176.247070312 513.538085938 224.399414062 c 0,62,63
 509.0625 272.196289062 509.0625 272.196289062 509.4296875 330.15234375 c 0,64,65
 509.0625 385.672851562 509.0625 385.672851562 513.538085938 434.8359375 c 0,66,67
 517.830078125 484.387695312 517.830078125 484.387695312 524.836914062 520.291015625 c 0,68,69
 531.606445312 556.34765625 531.606445312 556.34765625 542.296875 576.907226562 c 0,70,71
 552.90234375 596.94140625 552.90234375 596.94140625 562.838867188 597.200195312 c 0,40,41
353.193359375 655.2734375 m 256,72,73
 331.638671875 655.2734375 331.638671875 655.2734375 311.983398438 630.185546875 c 128,-1,74
 292.328125 605.098632812 292.328125 605.098632812 278.381835938 559.783203125 c 128,-1,75
 264.432617188 514.46484375 264.432617188 514.46484375 256.190429688 453.770507812 c 128,-1,76
 247.94921875 393.077148438 247.94921875 393.077148438 247.94921875 323.482421875 c 0,77,78
 247.94921875 252.26953125 247.94921875 252.26953125 256.190429688 191.57421875 c 128,-1,79
 264.432617188 130.883789062 264.432617188 130.883789062 278.381835938 86.375 c 128,-1,80
 292.328125 41.8642578125 292.328125 41.8642578125 311.983398438 15.96875 c 128,-1,81
 331.638671875 -9.9248046875 331.638671875 -9.9248046875 353.193359375 -9.9248046875 c 256,82,83
 374.750976562 -9.9248046875 374.750976562 -9.9248046875 393.770507812 15.96875 c 128,-1,84
 412.79296875 41.8642578125 412.79296875 41.8642578125 427.375976562 86.375 c 128,-1,85
 441.953125 130.883789062 441.953125 130.883789062 450.198242188 191.57421875 c 128,-1,86
 458.44140625 252.26953125 458.44140625 252.26953125 458.44140625 323.482421875 c 0,87,88
 458.44140625 393.077148438 458.44140625 393.077148438 450.198242188 453.770507812 c 128,-1,89
 441.953125 514.46484375 441.953125 514.46484375 427.375976562 559.783203125 c 128,-1,90
 412.79296875 605.098632812 412.79296875 605.098632812 393.770507812 630.185546875 c 128,-1,91
 374.750976562 655.2734375 374.750976562 655.2734375 353.193359375 655.2734375 c 256,72,73
351.15625 597.200195312 m 0,92,93
 362.512695312 596.94140625 362.512695312 596.94140625 372.213867188 576.907226562 c 0,94,95
 382.5546875 556.34765625 382.5546875 556.34765625 389.162109375 520.291015625 c 0,96,97
 396.333007812 484.387695312 396.333007812 484.387695312 400.458984375 434.8359375 c 0,98,99
 405.1015625 385.672851562 405.1015625 385.672851562 404.56640625 330.15234375 c 0,100,101
 405.1015625 272.196289062 405.1015625 272.196289062 400.458984375 224.399414062 c 0,102,103
 396.333007812 176.247070312 396.333007812 176.247070312 389.162109375 140.010742188 c 0,104,105
 382.5546875 103.366210938 382.5546875 103.366210938 372.213867188 83.3974609375 c 0,106,107
 362.512695312 62.7705078125 362.512695312 62.7705078125 351.15625 63.1005859375 c 0,108,109
 341.220703125 62.7705078125 341.220703125 62.7705078125 330.616210938 83.3974609375 c 0,110,111
 319.92578125 103.366210938 319.92578125 103.366210938 313.155273438 140.010742188 c 0,112,113
 306.1484375 176.247070312 306.1484375 176.247070312 301.85546875 224.399414062 c 0,114,115
 297.381835938 272.196289062 297.381835938 272.196289062 297.749023438 330.15234375 c 0,116,117
 297.381835938 385.672851562 297.381835938 385.672851562 301.85546875 434.8359375 c 0,118,119
 306.1484375 484.387695312 306.1484375 484.387695312 313.155273438 520.291015625 c 0,120,121
 319.92578125 556.34765625 319.92578125 556.34765625 330.616210938 576.907226562 c 0,122,123
 341.220703125 596.94140625 341.220703125 596.94140625 351.15625 597.200195312 c 0,92,93
141.51171875 655.2734375 m 256,124,125
 119.958007812 655.2734375 119.958007812 655.2734375 100.301757812 630.185546875 c 128,-1,126
 80.6474609375 605.098632812 80.6474609375 605.098632812 66.701171875 559.783203125 c 128,-1,127
 52.7509765625 514.46484375 52.7509765625 514.46484375 44.509765625 453.770507812 c 128,-1,128
 36.267578125 393.077148438 36.267578125 393.077148438 36.267578125 323.482421875 c 0,129,130
 36.267578125 252.26953125 36.267578125 252.26953125 44.509765625 191.57421875 c 128,-1,131
 52.7509765625 130.883789062 52.7509765625 130.883789062 66.701171875 86.375 c 128,-1,132
 80.6474609375 41.8642578125 80.6474609375 41.8642578125 100.301757812 15.96875 c 128,-1,133
 119.958007812 -9.9248046875 119.958007812 -9.9248046875 141.51171875 -9.9248046875 c 256,134,135
 163.0703125 -9.9248046875 163.0703125 -9.9248046875 182.087890625 15.96875 c 128,-1,136
 201.111328125 41.8642578125 201.111328125 41.8642578125 215.694335938 86.375 c 128,-1,137
 230.272460938 130.883789062 230.272460938 130.883789062 238.516601562 191.57421875 c 128,-1,138
 246.760742188 252.26953125 246.760742188 252.26953125 246.760742188 323.482421875 c 0,139,140
 246.760742188 393.077148438 246.760742188 393.077148438 238.516601562 453.770507812 c 128,-1,141
 230.272460938 514.46484375 230.272460938 514.46484375 215.694335938 559.783203125 c 128,-1,142
 201.111328125 605.098632812 201.111328125 605.098632812 182.087890625 630.185546875 c 128,-1,143
 163.0703125 655.2734375 163.0703125 655.2734375 141.51171875 655.2734375 c 256,124,125
EndSplineSet
Validated: 41
EndChar

StartChar: colon.deva
Encoding: 58 58 26
Width: 294
Flags: W
LayerCount: 2
Fore
SplineSet
147 414 m 256,0,1
 121 414 121 414 103 430 c 128,-1,2
 85 446 85 446 85 482 c 0,3,4
 85 520 85 520 103 535 c 128,-1,5
 121 550 121 550 147 550 c 256,6,7
 173 550 173 550 191 535 c 128,-1,8
 209 520 209 520 209 482 c 0,9,10
 209 446 209 446 191 430 c 128,-1,11
 173 414 173 414 147 414 c 256,0,1
147 -14 m 256,12,13
 121 -14 121 -14 103 2 c 128,-1,14
 85 18 85 18 85 54 c 0,15,16
 85 92 85 92 103 107 c 128,-1,17
 121 122 121 122 147 122 c 256,18,19
 173 122 173 122 191 107 c 128,-1,20
 209 92 209 92 209 54 c 0,21,22
 209 18 209 18 191 2 c 128,-1,23
 173 -14 173 -14 147 -14 c 256,12,13
EndSplineSet
Validated: 1
EndChar

StartChar: semicolon.deva
Encoding: 59 59 27
Width: 294
Flags: W
LayerCount: 2
Fore
SplineSet
190 116 m 1,0,-1
 197 105 l 1,1,2
 188 70 188 70 174 29.5 c 128,-1,3
 160 -11 160 -11 144 -51.5 c 128,-1,4
 128 -92 128 -92 111 -129 c 1,5,-1
 44 -129 l 1,6,7
 54 -89 54 -89 63.5 -45.5 c 128,-1,8
 73 -2 73 -2 80.5 40 c 128,-1,9
 88 82 88 82 93 116 c 1,10,-1
 190 116 l 1,0,-1
147 414 m 256,11,12
 121 414 121 414 103 430 c 128,-1,13
 85 446 85 446 85 482 c 0,14,15
 85 520 85 520 103 535 c 128,-1,16
 121 550 121 550 147 550 c 256,17,18
 173 550 173 550 191 535 c 128,-1,19
 209 520 209 520 209 482 c 0,20,21
 209 446 209 446 191 430 c 128,-1,22
 173 414 173 414 147 414 c 256,11,12
EndSplineSet
Validated: 1
EndChar

StartChar: less.deva
Encoding: 60 60 28
Width: 551
Flags: W
LayerCount: 2
Fore
SplineSet
50 284 m 1,0,-1
 50 333 l 1,1,-1
 501 568 l 1,2,-1
 501 490 l 1,3,-1
 142 313 l 1,4,-1
 501 155 l 1,5,-1
 501 77 l 1,6,-1
 50 284 l 1,0,-1
EndSplineSet
Validated: 1
EndChar

StartChar: equal.deva
Encoding: 61 61 29
Width: 551
Flags: W
LayerCount: 2
Fore
SplineSet
50 459 m 1,0,-1
 501 459 l 1,1,-1
 501 386 l 1,2,-1
 50 386 l 1,3,-1
 50 459 l 1,0,-1
50 259 m 1,4,-1
 501 259 l 1,5,-1
 501 186 l 1,6,-1
 50 186 l 1,7,-1
 50 259 l 1,4,-1
EndSplineSet
Validated: 1
EndChar

StartChar: greater.deva
Encoding: 62 62 30
Width: 551
Flags: W
LayerCount: 2
Fore
SplineSet
50 155 m 1,0,-1
 409 313 l 1,1,-1
 50 490 l 1,2,-1
 50 568 l 1,3,-1
 501 333 l 1,4,-1
 501 284 l 1,5,-1
 50 77 l 1,6,-1
 50 155 l 1,0,-1
EndSplineSet
Validated: 1
EndChar

StartChar: question.deva
Encoding: 63 63 31
Width: 518
Flags: W
LayerCount: 2
Fore
SplineSet
190 202 m 1,0,-1
 190 220 l 2,1,2
 190 258 190 258 197 285.5 c 128,-1,3
 204 313 204 313 222.5 338 c 128,-1,4
 241 363 241 363 273 390 c 0,5,6
 304 417 304 417 323.5 438 c 128,-1,7
 343 459 343 459 352 483 c 128,-1,8
 361 507 361 507 361 541 c 0,9,10
 361 588 361 588 332.5 617 c 128,-1,11
 304 646 304 646 250 646 c 0,12,13
 210 646 210 646 173 633.5 c 128,-1,14
 136 621 136 621 102 604 c 1,15,-1
 71 675 l 1,16,17
 111 695 111 695 157 709.5 c 128,-1,18
 203 724 203 724 250 724 c 0,19,20
 341 724 341 724 393.5 676 c 128,-1,21
 446 628 446 628 446 542 c 0,22,23
 446 499 446 499 434.5 467 c 128,-1,24
 423 435 423 435 399.5 408 c 128,-1,25
 376 381 376 381 341 350 c 0,26,27
 308 321 308 321 290 300.5 c 128,-1,28
 272 280 272 280 265 260 c 128,-1,29
 258 240 258 240 258 211 c 2,30,-1
 258 202 l 1,31,-1
 190 202 l 1,0,-1
167 54 m 0,32,33
 167 92 167 92 185 107 c 128,-1,34
 203 122 203 122 229 122 c 256,35,36
 255 122 255 122 273 107 c 128,-1,37
 291 92 291 92 291 54 c 0,38,39
 291 18 291 18 273 2 c 128,-1,40
 255 -14 255 -14 229 -14 c 256,41,42
 203 -14 203 -14 185 2 c 128,-1,43
 167 18 167 18 167 54 c 0,32,33
EndSplineSet
Validated: 1
EndChar

StartChar: bracketleft.deva
Encoding: 91 91 32
Width: 329
Flags: W
LayerCount: 2
Fore
SplineSet
304 -158 m 1,0,-1
 80 -158 l 1,1,-1
 80 714 l 1,2,-1
 304 714 l 1,3,-1
 304 642 l 1,4,-1
 166 642 l 1,5,-1
 166 -86 l 1,6,-1
 304 -86 l 1,7,-1
 304 -158 l 1,0,-1
EndSplineSet
EndChar

StartChar: backslash.deva
Encoding: 92 92 33
Width: 372
Flags: W
LayerCount: 2
Fore
SplineSet
96 714 m 1,0,-1
 363 0 l 1,1,-1
 276 0 l 1,2,-1
 10 714 l 1,3,-1
 96 714 l 1,0,-1
EndSplineSet
EndChar

StartChar: bracketright.deva
Encoding: 93 93 34
Width: 329
Flags: W
LayerCount: 2
Fore
SplineSet
25 -86 m 1,0,-1
 163 -86 l 1,1,-1
 163 642 l 1,2,-1
 25 642 l 1,3,-1
 25 714 l 1,4,-1
 249 714 l 1,5,-1
 249 -158 l 1,6,-1
 25 -158 l 1,7,-1
 25 -86 l 1,0,-1
EndSplineSet
EndChar

StartChar: asciicircum.deva
Encoding: 94 94 35
Width: 572
Flags: W
LayerCount: 2
Fore
SplineSet
38 267 m 1,0,-1
 250 719 l 1,1,-1
 300 719 l 1,2,-1
 534 267 l 1,3,-1
 456 267 l 1,4,-1
 276 626 l 1,5,-1
 116 267 l 1,6,-1
 38 267 l 1,0,-1
EndSplineSet
EndChar

StartChar: underscore.deva
Encoding: 95 95 36
Width: 444
Flags: W
LayerCount: 2
Fore
SplineSet
446 -154 m 1,0,-1
 -2 -154 l 1,1,-1
 -2 -90 l 1,2,-1
 446 -90 l 1,3,-1
 446 -154 l 1,0,-1
EndSplineSet
EndChar

StartChar: braceleft.deva
Encoding: 123 123 37
Width: 391
Flags: W
LayerCount: 2
Fore
SplineSet
44 370 m 1,0,1
 84 370 84 370 111.5 379 c 128,-1,2
 139 388 139 388 153 408 c 128,-1,3
 167 428 167 428 167 460 c 2,4,-1
 167 691 l 2,5,6
 167 741 167 741 189 771.5 c 128,-1,7
 211 802 211 802 249.5 816.5 c 128,-1,8
 288 831 288 831 337 832 c 1,9,-1
 337 760 l 1,10,11
 310 760 310 760 290 753.5 c 128,-1,12
 270 747 270 747 259 731.5 c 128,-1,13
 248 716 248 716 248 685 c 2,14,-1
 248 455 l 2,15,16
 248 405 248 405 221 375.5 c 128,-1,17
 194 346 194 346 142 335 c 1,18,-1
 142 330 l 1,19,20
 194 320 194 320 221 291 c 128,-1,21
 248 262 248 262 248 211 c 2,22,-1
 248 -18 l 2,23,24
 248 -49 248 -49 259 -65 c 128,-1,25
 270 -81 270 -81 290 -87 c 128,-1,26
 310 -93 310 -93 337 -94 c 1,27,-1
 337 -166 l 1,28,29
 288 -165 288 -165 249.5 -150.5 c 128,-1,30
 211 -136 211 -136 189 -105.5 c 128,-1,31
 167 -75 167 -75 167 -25 c 2,32,-1
 167 206 l 2,33,34
 167 239 167 239 153 258.5 c 128,-1,35
 139 278 139 278 111.5 287 c 128,-1,36
 84 296 84 296 44 296 c 1,37,-1
 44 370 l 1,0,1
EndSplineSet
Validated: 1
EndChar

StartChar: bar.deva
Encoding: 124 124 38
Width: 540
Flags: W
LayerCount: 2
Fore
SplineSet
234 832 m 1,0,-1
 306 832 l 1,1,-1
 306 -166 l 1,2,-1
 234 -166 l 1,3,-1
 234 832 l 1,0,-1
EndSplineSet
Validated: 1
EndChar

StartChar: braceright.deva
Encoding: 125 125 39
Width: 376
Flags: W
LayerCount: 2
Fore
SplineSet
347 296 m 1,0,1
 307 296 307 296 280 287 c 128,-1,2
 253 278 253 278 239 258.5 c 128,-1,3
 225 239 225 239 225 206 c 2,4,-1
 225 -25 l 2,5,6
 225 -75 225 -75 202.5 -105.5 c 128,-1,7
 180 -136 180 -136 141.5 -150.5 c 128,-1,8
 103 -165 103 -165 54 -166 c 1,9,-1
 54 -94 l 1,10,11
 82 -93 82 -93 102 -87 c 128,-1,12
 122 -81 122 -81 132.5 -65 c 128,-1,13
 143 -49 143 -49 143 -18 c 2,14,-1
 143 211 l 2,15,16
 143 262 143 262 170 291 c 128,-1,17
 197 320 197 320 249 330 c 1,18,-1
 249 335 l 1,19,20
 197 346 197 346 170 375.5 c 128,-1,21
 143 405 143 405 143 455 c 2,22,-1
 143 685 l 2,23,24
 143 716 143 716 132.5 731.5 c 128,-1,25
 122 747 122 747 102 753.5 c 128,-1,26
 82 760 82 760 54 760 c 1,27,-1
 54 832 l 1,28,29
 103 831 103 831 141.5 816.5 c 128,-1,30
 180 802 180 802 202.5 771.5 c 128,-1,31
 225 741 225 741 225 691 c 2,32,-1
 225 460 l 2,33,34
 225 428 225 428 239 408 c 128,-1,35
 253 388 253 388 280 379 c 128,-1,36
 307 370 307 370 347 370 c 1,37,-1
 347 296 l 1,0,1
EndSplineSet
Validated: 1
EndChar

StartChar: asciitilde.deva
Encoding: 126 126 40
Width: 551
Flags: W
LayerCount: 2
Fore
SplineSet
50 335 m 1,0,1
 75 362 75 362 105 375 c 128,-1,2
 135 388 135 388 171 388 c 0,3,4
 190 388 190 388 206 385.5 c 128,-1,5
 222 383 222 383 242 376.5 c 128,-1,6
 262 370 262 370 292 357 c 0,7,8
 329 341 329 341 349 335.5 c 128,-1,9
 369 330 369 330 390 330 c 0,10,11
 418 330 418 330 448 347 c 128,-1,12
 478 364 478 364 501 389 c 1,13,-1
 501 310 l 1,14,15
 477 284 477 284 446.5 270.5 c 128,-1,16
 416 257 416 257 380 257 c 0,17,18
 361 257 361 257 345 259.5 c 128,-1,19
 329 262 329 262 309.5 268.5 c 128,-1,20
 290 275 290 275 259 288 c 0,21,22
 223 304 223 304 203.5 309.5 c 128,-1,23
 184 315 184 315 161 315 c 0,24,25
 134 315 134 315 104 298 c 128,-1,26
 74 281 74 281 50 256 c 1,27,-1
 50 335 l 1,0,1
EndSplineSet
Validated: 1
EndChar

StartChar: A
Encoding: 65 65 42
Width: 561
Flags: W
LayerCount: 2
Fore
SplineSet
412 -116 m 4,0,1
 412 -138 412 -138 424 -149.5 c 132,-1,2
 436 -161 436 -161 457 -161 c 4,3,4
 474 -161 474 -161 485.5 -158.5 c 132,-1,5
 497 -156 497 -156 505 -155 c 5,6,-1
 505 -211 l 5,7,8
 491 -215 491 -215 477 -217.5 c 132,-1,9
 463 -220 463 -220 443 -220 c 4,10,11
 390 -220 390 -220 365 -195 c 132,-1,12
 340 -170 340 -170 340 -126 c 4,13,14
 340 -97 340 -97 354.5 -70 c 132,-1,15
 369 -43 369 -43 390.5 -21 c 132,-1,16
 412 1 412 1 432 15 c 5,17,-1
 480 0 l 5,18,19
 446 -32 446 -32 429 -58.5 c 132,-1,20
 412 -85 412 -85 412 -116 c 4,0,1
288 545 m 0,21,22
 386 545 386 545 433 502 c 128,-1,23
 480 459 480 459 480 365 c 2,24,-1
 480 0 l 5,25,-1
 416 0 l 5,26,-1
 399 76 l 1,27,-1
 395 76 l 1,28,29
 372 47 372 47 347.5 27.5 c 128,-1,30
 323 8 323 8 291.5 -1 c 128,-1,31
 260 -10 260 -10 215 -10 c 0,32,33
 167 -10 167 -10 128.5 7 c 128,-1,34
 90 24 90 24 68 59.5 c 128,-1,35
 46 95 46 95 46 149 c 0,36,37
 46 229 46 229 109 272.5 c 128,-1,38
 172 316 172 316 303 320 c 2,39,-1
 394 323 l 1,40,-1
 394 355 l 2,41,42
 394 422 394 422 365 448 c 128,-1,43
 336 474 336 474 283 474 c 0,44,45
 241 474 241 474 203 461.5 c 128,-1,46
 165 449 165 449 132 433 c 1,47,-1
 105 499 l 1,48,49
 140 518 140 518 188 531.5 c 128,-1,50
 236 545 236 545 288 545 c 0,21,22
314 259 m 2,51,52
 214 255 214 255 175.5 227 c 128,-1,53
 137 199 137 199 137 148 c 0,54,55
 137 103 137 103 164.5 82 c 128,-1,56
 192 61 192 61 235 61 c 0,57,58
 303 61 303 61 348 98.5 c 128,-1,59
 393 136 393 136 393 214 c 2,60,-1
 393 262 l 1,61,-1
 314 259 l 2,51,52
EndSplineSet
EndChar

StartChar: C
Encoding: 67 67 44
Width: 490
Flags: W
AnchorPoint: "Anchor-7" 251 268 basechar 0
AnchorPoint: "Anchor-6" 460 536 basechar 0
AnchorPoint: "Anchor-5" 281 0 basechar 0
AnchorPoint: "Anchor-4" 284 737 basechar 0
LayerCount: 2
Fore
SplineSet
285 737 m 4,0,1
 305 737 305 737 320.5 723.5 c 132,-1,2
 336 710 336 710 336 681 c 4,3,4
 336 653 336 653 320.5 639 c 132,-1,5
 305 625 305 625 285 625 c 4,6,7
 263 625 263 625 248 639 c 132,-1,8
 233 653 233 653 233 681 c 4,9,10
 233 710 233 710 248 723.5 c 132,-1,11
 263 737 263 737 285 737 c 4,0,1
301 -10 m 0,12,13
 183 -10 183 -10 118 57 c 128,-1,14
 53 124 53 124 53 245 c 0,15,16
 53 325 53 325 82 380.5 c 128,-1,17
 111 436 111 436 165 465 c 1,18,-1
 32 465 l 1,19,-1
 32 537 l 1,20,-1
 458 537 l 1,21,-1
 458 465 l 1,22,-1
 345 465 l 2,23,24
 251 465 251 465 197.5 411.5 c 128,-1,25
 144 358 144 358 144 252 c 0,26,27
 144 165 144 165 187 114.5 c 128,-1,28
 230 64 230 64 310 64 c 0,29,30
 347 64 347 64 381 73.5 c 128,-1,31
 415 83 415 83 447 99 c 1,32,-1
 447 21 l 1,33,34
 418 5 418 5 383 -2.5 c 128,-1,35
 348 -10 348 -10 301 -10 c 0,12,13
EndSplineSet
EndChar

StartChar: D
Encoding: 68 68 45
Width: 615
Flags: W
AnchorPoint: "Anchor-7" 308 268 basechar 0
AnchorPoint: "Anchor-6" 553 760 basechar 0
AnchorPoint: "Anchor-5" 292 0 basechar 0
AnchorPoint: "Anchor-4" 275 760 basechar 0
LayerCount: 2
Fore
SplineSet
104 238 m 1,0,-1
 104 303 l 1,1,-1
 480 303 l 1,2,-1
 480 238 l 1,3,-1
 104 238 l 1,0,-1
275 -10 m 0,4,5
 175 -10 175 -10 115 59.5 c 128,-1,6
 55 129 55 129 55 267 c 256,7,8
 55 405 55 405 115.5 475.5 c 128,-1,9
 176 546 176 546 276 546 c 0,10,11
 318 546 318 546 349 535.5 c 128,-1,12
 380 525 380 525 403 507 c 128,-1,13
 426 489 426 489 442 467 c 1,14,-1
 448 467 l 1,15,16
 447 480 447 480 444.5 505.5 c 128,-1,17
 442 531 442 531 442 546 c 2,18,-1
 442 760 l 1,19,-1
 530 760 l 1,20,-1
 530 0 l 1,21,-1
 459 0 l 1,22,-1
 446 72 l 1,23,-1
 442 72 l 1,24,25
 426 49 426 49 403 30.5 c 128,-1,26
 380 12 380 12 348.5 1 c 128,-1,27
 317 -10 317 -10 275 -10 c 0,4,5
289 63 m 0,28,29
 374 63 374 63 408.5 109.5 c 128,-1,30
 443 156 443 156 443 250 c 2,31,-1
 443 266 l 2,32,33
 443 366 443 366 410 419.5 c 128,-1,34
 377 473 377 473 288 473 c 0,35,36
 217 473 217 473 181.5 416.5 c 128,-1,37
 146 360 146 360 146 265 c 0,38,39
 146 169 146 169 181.5 116 c 128,-1,40
 217 63 217 63 289 63 c 0,28,29
EndSplineSet
EndChar

StartChar: G
Encoding: 71 71 48
Width: 615
Flags: W
AnchorPoint: "Anchor-7" 292 153 basechar 0
AnchorPoint: "Anchor-6" 555 536 basechar 0
AnchorPoint: "Anchor-5" 298 -240 basechar 0
AnchorPoint: "Anchor-4" 297 737 basechar 0
LayerCount: 2
Fore
SplineSet
275 546 m 0,0,1
 328 546 328 546 370.5 526 c 128,-1,2
 413 506 413 506 443 465 c 1,3,-1
 448 465 l 1,4,-1
 460 536 l 1,5,-1
 530 536 l 1,6,-1
 530 -9 l 2,7,8
 530 -85 530 -85 504 -136.5 c 128,-1,9
 478 -188 478 -188 425 -214 c 128,-1,10
 372 -240 372 -240 290 -240 c 0,11,12
 232 -240 232 -240 183.5 -231.5 c 128,-1,13
 135 -223 135 -223 97 -206 c 1,14,-1
 97 -125 l 1,15,16
 135 -145 135 -145 186 -156 c 128,-1,17
 237 -167 237 -167 295 -167 c 0,18,19
 364 -167 364 -167 403.5 -126.5 c 128,-1,20
 443 -86 443 -86 443 -16 c 2,21,-1
 443 5 l 2,22,23
 443 17 443 17 444 39.5 c 128,-1,24
 445 62 445 62 446 71 c 1,25,-1
 442 71 l 1,26,27
 414 30 414 30 372.5 10 c 128,-1,28
 331 -10 331 -10 276 -10 c 0,29,30
 172 -10 172 -10 113.5 63 c 128,-1,31
 55 136 55 136 55 267 c 0,32,33
 55 395 55 395 113.5 470.5 c 128,-1,34
 172 546 172 546 275 546 c 0,0,1
287 472 m 0,35,36
 242 472 242 472 210.5 448 c 128,-1,37
 179 424 179 424 162.5 378 c 128,-1,38
 146 332 146 332 146 266 c 0,39,40
 146 167 146 167 182.5 114.5 c 128,-1,41
 219 62 219 62 289 62 c 0,42,43
 330 62 330 62 359 72.5 c 128,-1,44
 388 83 388 83 407 105.5 c 128,-1,45
 426 128 426 128 435 163 c 128,-1,46
 444 198 444 198 444 246 c 2,47,-1
 444 267 l 2,48,49
 444 340 444 340 427.5 385 c 128,-1,50
 411 430 411 430 376 451 c 128,-1,51
 341 472 341 472 287 472 c 0,35,36
298 737 m 0,52,53
 318 737 318 737 333.5 723.5 c 128,-1,54
 349 710 349 710 349 681 c 0,55,56
 349 653 349 653 333.5 639 c 128,-1,57
 318 625 318 625 298 625 c 0,58,59
 276 625 276 625 261 639 c 128,-1,60
 246 653 246 653 246 681 c 0,61,62
 246 710 246 710 261 723.5 c 128,-1,63
 276 737 276 737 298 737 c 0,52,53
EndSplineSet
EndChar

StartChar: H
Encoding: 72 72 49
Width: 617
Flags: W
AnchorPoint: "Anchor-7" 311 382 basechar 0
LayerCount: 2
Fore
SplineSet
85 611 m 2,0,1
 85 665 85 665 102.5 699 c 128,-1,2
 120 733 120 733 153.5 749 c 128,-1,3
 187 765 187 765 233 765 c 0,4,5
 262 765 262 765 286.5 760.5 c 128,-1,6
 311 756 311 756 327 749 c 1,7,-1
 312 680 l 1,8,9
 296 685 296 685 278.5 688.5 c 128,-1,10
 261 692 261 692 241 692 c 0,11,12
 207 692 207 692 190 671.5 c 128,-1,13
 173 651 173 651 173 613 c 2,14,-1
 173 535 l 2,15,16
 173 513 173 513 171.5 488 c 128,-1,17
 170 463 170 463 169 452 c 1,18,-1
 174 452 l 1,19,20
 193 483 193 483 218.5 502 c 128,-1,21
 244 521 244 521 277 530 c 128,-1,22
 310 539 310 539 350 539 c 0,23,24
 410 539 410 539 451.5 518 c 128,-1,25
 493 497 493 497 515 453.5 c 128,-1,26
 537 410 537 410 537 343 c 2,27,-1
 537 0 l 1,28,-1
 449 0 l 1,29,-1
 449 326 l 2,30,31
 449 398 449 398 420 431.5 c 128,-1,32
 391 465 391 465 331 465 c 0,33,34
 273 465 273 465 238.5 443.5 c 128,-1,35
 204 422 204 422 188.5 379 c 128,-1,36
 173 336 173 336 173 271 c 2,37,-1
 173 0 l 1,38,-1
 85 0 l 1,39,-1
 85 611 l 2,0,1
EndSplineSet
EndChar

StartChar: I
Encoding: 73 73 50
Width: 258
Flags: W
AnchorPoint: "Anchor-7" 129 268 basechar 0
AnchorPoint: "Anchor-5" 133 0 basechar 0
AnchorPoint: "Anchor-4" 129 766 basechar 0
LayerCount: 2
Fore
SplineSet
277 756 m 1,0,1
 268 742 268 742 251 722 c 0,2,3
 234 702 234 702 213.5 680.5 c 0,4,5
 193 659 193 659 172.5 639.5 c 0,6,7
 152 620 152 620 134 606 c 1,8,-1
 76 606 l 1,9,-1
 76 618 l 1,10,11
 91 637 91 637 108.5 663 c 0,12,13
 126 689 126 689 143 716.5 c 0,14,15
 160 744 160 744 171 766 c 1,16,-1
 277 766 l 1,17,-1
 277 756 l 1,0,1
173 0 m 5,18,-1
 85 0 l 5,19,-1
 85 536 l 5,20,-1
 173 536 l 5,21,-1
 173 0 l 5,18,-1
EndSplineSet
EndChar

StartChar: K
Encoding: 75 75 52
Width: 534
Flags: W
AnchorPoint: "Anchor-7" 305 380 basechar 0
AnchorPoint: "Anchor-6" 369 840 basechar 0
AnchorPoint: "Anchor-5" 267 0 basechar 0
AnchorPoint: "Anchor-4" 129 760 basechar 0
LayerCount: 2
Fore
SplineSet
285 737 m 4,0,1
 305 737 305 737 320.5 723.5 c 132,-1,2
 336 710 336 710 336 681 c 4,3,4
 336 653 336 653 320.5 639 c 132,-1,5
 305 625 305 625 285 625 c 4,6,7
 263 625 263 625 248 639 c 132,-1,8
 233 653 233 653 233 681 c 4,9,10
 233 710 233 710 248 723.5 c 132,-1,11
 263 737 263 737 285 737 c 4,0,1
172 363 m 2,12,13
 172 347 172 347 170.5 321 c 128,-1,14
 169 295 169 295 168 276 c 1,15,-1
 172 276 l 1,16,17
 178 284 178 284 190 299 c 128,-1,18
 202 314 202 314 214.5 329.5 c 128,-1,19
 227 345 227 345 236 355 c 2,20,-1
 407 536 l 1,21,-1
 510 536 l 1,22,-1
 293 307 l 1,23,-1
 525 0 l 1,24,-1
 419 0 l 1,25,-1
 233 250 l 1,26,-1
 172 197 l 1,27,-1
 172 0 l 1,28,-1
 85 0 l 1,29,-1
 85 536 l 1,30,-1
 172 536 l 1,31,-1
 172 363 l 2,12,13
EndSplineSet
EndChar

StartChar: M
Encoding: 77 77 54
Width: 935
Flags: W
AnchorPoint: "Anchor-7" 469 273 basechar 0
AnchorPoint: "Anchor-6" 885 536 basechar 0
AnchorPoint: "Anchor-5" 471 0 basechar 0
AnchorPoint: "Anchor-4" 479 737 basechar 0
LayerCount: 2
Fore
SplineSet
673 546 m 0,0,1
 764 546 764 546 809 499.5 c 128,-1,2
 854 453 854 453 854 349 c 2,3,-1
 854 0 l 1,4,-1
 767 0 l 1,5,-1
 767 345 l 2,6,7
 767 408 767 408 740.5 440 c 128,-1,8
 714 472 714 472 658 472 c 0,9,10
 580 472 580 472 546.5 427 c 128,-1,11
 513 382 513 382 513 296 c 2,12,-1
 513 0 l 1,13,-1
 426 0 l 1,14,-1
 426 345 l 2,15,16
 426 387 426 387 414 415.5 c 128,-1,17
 402 444 402 444 378 458 c 128,-1,18
 354 472 354 472 316 472 c 0,19,20
 262 472 262 472 231 449.5 c 128,-1,21
 200 427 200 427 186.5 384 c 128,-1,22
 173 341 173 341 173 278 c 2,23,-1
 173 0 l 1,24,-1
 85 0 l 1,25,-1
 85 536 l 1,26,-1
 156 536 l 1,27,-1
 169 463 l 1,28,-1
 174 463 l 1,29,30
 191 491 191 491 215.5 509.5 c 128,-1,31
 240 528 240 528 270 537 c 128,-1,32
 300 546 300 546 332 546 c 0,33,34
 394 546 394 546 435.5 524 c 128,-1,35
 477 502 477 502 496 456 c 1,36,-1
 501 456 l 1,37,38
 528 502 528 502 574.5 524 c 128,-1,39
 621 546 621 546 673 546 c 0,0,1
480 737 m 0,40,41
 500 737 500 737 515.5 723.5 c 128,-1,42
 531 710 531 710 531 681 c 0,43,44
 531 653 531 653 515.5 639 c 128,-1,45
 500 625 500 625 480 625 c 0,46,47
 458 625 458 625 443 639 c 128,-1,48
 428 653 428 653 428 681 c 0,49,50
 428 710 428 710 443 723.5 c 128,-1,51
 458 737 458 737 480 737 c 0,40,41
EndSplineSet
EndChar

StartChar: N
Encoding: 78 78 55
Width: 618
Flags: W
AnchorPoint: "Anchor-7" 311 273 basechar 0
AnchorPoint: "Anchor-6" 562 536 basechar 0
AnchorPoint: "Anchor-5" 309 0 basechar 0
AnchorPoint: "Anchor-4" 309 536 basechar 0
LayerCount: 2
Fore
SplineSet
285 737 m 4,0,1
 305 737 305 737 320.5 723.5 c 132,-1,2
 336 710 336 710 336 681 c 4,3,4
 336 653 336 653 320.5 639 c 132,-1,5
 305 625 305 625 285 625 c 4,6,7
 263 625 263 625 248 639 c 132,-1,8
 233 653 233 653 233 681 c 4,9,10
 233 710 233 710 248 723.5 c 132,-1,11
 263 737 263 737 285 737 c 4,0,1
343 546 m 0,12,13
 439 546 439 546 488 499.5 c 128,-1,14
 537 453 537 453 537 349 c 2,15,-1
 537 0 l 1,16,-1
 450 0 l 1,17,-1
 450 343 l 2,18,19
 450 408 450 408 421 440 c 128,-1,20
 392 472 392 472 330 472 c 0,21,22
 241 472 241 472 207 422 c 128,-1,23
 173 372 173 372 173 278 c 2,24,-1
 173 0 l 1,25,-1
 85 0 l 1,26,-1
 85 536 l 1,27,-1
 156 536 l 1,28,-1
 169 463 l 1,29,-1
 174 463 l 1,30,31
 192 491 192 491 218.5 509.5 c 128,-1,32
 245 528 245 528 277 537 c 128,-1,33
 309 546 309 546 343 546 c 0,12,13
EndSplineSet
EndChar

StartChar: O
Encoding: 79 79 56
Width: 605
Flags: W
AnchorPoint: "Anchor-7" 303 268 basechar 0
AnchorPoint: "Anchor-5" 303 0 basechar 0
AnchorPoint: "Anchor-4" 303 536 basechar 0
LayerCount: 2
Fore
SplineSet
551 269 m 256,0,1
 551 180 551 180 520.5 117.5 c 128,-1,2
 490 55 490 55 434 22.5 c 128,-1,3
 378 -10 378 -10 301 -10 c 0,4,5
 230 -10 230 -10 174.5 22.5 c 128,-1,6
 119 55 119 55 87 117.5 c 128,-1,7
 55 180 55 180 55 269 c 0,8,9
 55 402 55 402 122 474 c 128,-1,10
 189 546 189 546 304 546 c 0,11,12
 377 546 377 546 432.5 513.5 c 128,-1,13
 488 481 488 481 519.5 419.5 c 128,-1,14
 551 358 551 358 551 269 c 256,0,1
303 63 m 256,15,16
 354 63 354 63 387.5 83 c 128,-1,17
 421 103 421 103 438.5 142.5 c 128,-1,18
 456 182 456 182 459 239 c 1,19,-1
 146 239 l 1,20,21
 149 182 149 182 167 142.5 c 128,-1,22
 185 103 185 103 218.5 83 c 128,-1,23
 252 63 252 63 303 63 c 256,15,16
302 472 m 0,24,25
 228 472 228 472 191 431.5 c 128,-1,26
 154 391 154 391 147 312 c 1,27,-1
 459 312 l 1,28,29
 454 365 454 365 435.5 400.5 c 128,-1,30
 417 436 417 436 384 454 c 128,-1,31
 351 472 351 472 302 472 c 0,24,25
EndSplineSet
EndChar

StartChar: P
Encoding: 80 80 57
Width: 587
Flags: W
AnchorPoint: "Anchor-7" 312 153 basechar 0
AnchorPoint: "Anchor-5" 294 -240 basechar 0
AnchorPoint: "Anchor-4" 294 536 basechar 0
LayerCount: 2
Fore
SplineSet
193 744 m 4,0,1
 213 744 213 744 228.5 730.5 c 132,-1,2
 244 717 244 717 244 688 c 4,3,4
 244 660 244 660 228.5 646 c 132,-1,5
 213 632 213 632 193 632 c 4,6,7
 171 632 171 632 156 646 c 132,-1,8
 141 660 141 660 141 688 c 4,9,10
 141 717 141 717 156 730.5 c 132,-1,11
 171 744 171 744 193 744 c 4,0,1
331 546 m 0,12,13
 391 546 391 546 438 521 c 128,-1,14
 485 496 485 496 512 446.5 c 128,-1,15
 539 397 539 397 539 323 c 0,16,17
 539 252 539 252 512 193 c 128,-1,18
 485 134 485 134 436 90.5 c 128,-1,19
 387 47 387 47 320 21 c 128,-1,20
 253 -5 253 -5 173 -10 c 1,21,-1
 173 -240 l 1,22,-1
 85 -240 l 1,23,-1
 85 536 l 1,24,-1
 157 536 l 1,25,-1
 169 463 l 1,26,-1
 173 463 l 1,27,28
 188 486 188 486 209 505 c 128,-1,29
 230 524 230 524 260 535 c 128,-1,30
 290 546 290 546 331 546 c 0,12,13
313 472 m 0,31,32
 263 472 263 472 232 451.5 c 128,-1,33
 201 431 201 431 187 390 c 128,-1,34
 173 349 173 349 173 286 c 2,35,-1
 173 62 l 1,36,37
 238 70 238 70 288.5 91.5 c 128,-1,38
 339 113 339 113 375 146.5 c 128,-1,39
 411 180 411 180 429.5 224 c 128,-1,40
 448 268 448 268 448 321 c 0,41,42
 448 367 448 367 432 400.5 c 128,-1,43
 416 434 416 434 386 453 c 128,-1,44
 356 472 356 472 313 472 c 0,31,32
EndSplineSet
EndChar

StartChar: R
Encoding: 82 82 59
Width: 413
Flags: W
AnchorPoint: "Anchor-7" 241 273 basechar 0
AnchorPoint: "Anchor-6" 393 536 basechar 0
AnchorPoint: "Anchor-5" 126 0 basechar 0
LayerCount: 2
Fore
SplineSet
259 744 m 4,0,1
 279 744 279 744 294.5 730.5 c 132,-1,2
 310 717 310 717 310 688 c 4,3,4
 310 660 310 660 294.5 646 c 132,-1,5
 279 632 279 632 259 632 c 4,6,7
 237 632 237 632 222 646 c 132,-1,8
 207 660 207 660 207 688 c 4,9,10
 207 717 207 717 222 730.5 c 132,-1,11
 237 744 237 744 259 744 c 4,0,1
335 546 m 0,12,13
 350 546 350 546 367.5 544.5 c 128,-1,14
 385 543 385 543 398 540 c 1,15,-1
 387 459 l 1,16,17
 374 462 374 462 358.5 464 c 128,-1,18
 343 466 343 466 329 466 c 0,19,20
 298 466 298 466 270 453 c 128,-1,21
 242 440 242 440 220 416.5 c 128,-1,22
 198 393 198 393 185.5 360 c 128,-1,23
 173 327 173 327 173 286 c 2,24,-1
 173 0 l 1,25,-1
 85 0 l 1,26,-1
 85 536 l 1,27,-1
 157 536 l 1,28,-1
 167 438 l 1,29,-1
 171 438 l 1,30,31
 188 468 188 468 212 492.5 c 128,-1,32
 236 517 236 517 267 531.5 c 128,-1,33
 298 546 298 546 335 546 c 0,12,13
EndSplineSet
EndChar

StartChar: S
Encoding: 83 83 60
Width: 479
Flags: W
AnchorPoint: "Anchor-7" 242 268 basechar 0
AnchorPoint: "Anchor-6" 439 536 basechar 0
AnchorPoint: "Anchor-5" 240 0 basechar 0
LayerCount: 2
Fore
SplineSet
259 744 m 4,0,1
 279 744 279 744 294.5 730.5 c 132,-1,2
 310 717 310 717 310 688 c 4,3,4
 310 660 310 660 294.5 646 c 132,-1,5
 279 632 279 632 259 632 c 4,6,7
 237 632 237 632 222 646 c 132,-1,8
 207 660 207 660 207 688 c 4,9,10
 207 717 207 717 222 730.5 c 132,-1,11
 237 744 237 744 259 744 c 4,0,1
434 148 m 0,12,13
 434 96 434 96 408 61 c 128,-1,14
 382 26 382 26 334 8 c 128,-1,15
 286 -10 286 -10 220 -10 c 0,16,17
 164 -10 164 -10 123.5 -1 c 128,-1,18
 83 8 83 8 52 24 c 1,19,-1
 52 104 l 1,20,21
 84 88 84 88 129.5 74.5 c 128,-1,22
 175 61 175 61 222 61 c 0,23,24
 289 61 289 61 319 82.5 c 128,-1,25
 349 104 349 104 349 140 c 0,26,27
 349 160 349 160 338 176 c 128,-1,28
 327 192 327 192 298.5 208 c 128,-1,29
 270 224 270 224 217 244 c 0,30,31
 165 264 165 264 128 284 c 128,-1,32
 91 304 91 304 71 332 c 128,-1,33
 51 360 51 360 51 404 c 0,34,35
 51 472 51 472 106.5 509 c 128,-1,36
 162 546 162 546 252 546 c 0,37,38
 301 546 301 546 343.5 536.5 c 128,-1,39
 386 527 386 527 423 510 c 1,40,-1
 393 440 l 1,41,42
 359 454 359 454 322 464 c 128,-1,43
 285 474 285 474 246 474 c 0,44,45
 192 474 192 474 163.5 456.5 c 128,-1,46
 135 439 135 439 135 409 c 0,47,48
 135 387 135 387 148 371.5 c 128,-1,49
 161 356 161 356 191.5 341.5 c 128,-1,50
 222 327 222 327 273 307 c 0,51,52
 324 288 324 288 360 268 c 128,-1,53
 396 248 396 248 415 219.5 c 128,-1,54
 434 191 434 191 434 148 c 0,12,13
EndSplineSet
EndChar

StartChar: T
Encoding: 84 84 61
Width: 490
Flags: W
AnchorPoint: "Anchor-7" 237 262 basechar 0
LayerCount: 2
Fore
SplineSet
332 -11 m 0,0,1
 286 -11 286 -11 247 2.5 c 128,-1,2
 208 16 208 16 184 52 c 128,-1,3
 160 88 160 88 160 155 c 2,4,-1
 160 468 l 1,5,-1
 16 468 l 1,6,-1
 16 536 l 1,7,-1
 458 536 l 1,8,-1
 458 468 l 1,9,-1
 249 468 l 1,10,-1
 249 164 l 2,11,12
 249 126 249 126 261 103 c 128,-1,13
 273 80 273 80 295 70 c 128,-1,14
 317 60 317 60 345 60 c 0,15,16
 367 60 367 60 390.5 63.5 c 128,-1,17
 414 67 414 67 430 71 c 1,18,-1
 430 5 l 1,19,20
 416 -1 416 -1 388.5 -6 c 128,-1,21
 361 -11 361 -11 332 -11 c 0,0,1
EndSplineSet
EndChar

StartChar: U
Encoding: 85 85 62
Width: 618
Flags: W
AnchorPoint: "Anchor-7" 306 263 basechar 0
AnchorPoint: "Anchor-6" 562 536 basechar 0
AnchorPoint: "Anchor-5" 294 -220 basechar 0
AnchorPoint: "Anchor-4" 309 536 basechar 0
LayerCount: 2
Fore
SplineSet
533 536 m 1,0,-1
 533 0 l 1,1,-1
 461 0 l 1,2,-1
 448 71 l 1,3,-1
 444 71 l 1,4,5
 427 43 427 43 400 25 c 128,-1,6
 373 7 373 7 341 -1.5 c 128,-1,7
 309 -10 309 -10 274 -10 c 0,8,9
 210 -10 210 -10 166.5 10.5 c 128,-1,10
 123 31 123 31 101 74 c 128,-1,11
 79 117 79 117 79 185 c 2,12,-1
 79 536 l 1,13,-1
 168 536 l 1,14,-1
 168 191 l 2,15,16
 168 127 168 127 197 95 c 128,-1,17
 226 63 226 63 287 63 c 0,18,19
 347 63 347 63 381.5 85.5 c 128,-1,20
 416 108 416 108 430.5 151.5 c 128,-1,21
 445 195 445 195 445 257 c 2,22,-1
 445 536 l 1,23,-1
 533 536 l 1,0,-1
448 -116 m 0,24,25
 448 -138 448 -138 460 -149.5 c 128,-1,26
 472 -161 472 -161 493 -161 c 0,27,28
 510 -161 510 -161 521.5 -158.5 c 128,-1,29
 533 -156 533 -156 541 -155 c 1,30,-1
 541 -211 l 1,31,32
 527 -215 527 -215 513 -217.5 c 128,-1,33
 499 -220 499 -220 479 -220 c 0,34,35
 426 -220 426 -220 401 -195 c 128,-1,36
 376 -170 376 -170 376 -126 c 0,37,38
 376 -97 376 -97 390.5 -70 c 128,-1,39
 405 -43 405 -43 426.5 -21 c 128,-1,40
 448 1 448 1 468 15 c 1,41,-1
 516 0 l 1,42,43
 482 -32 482 -32 465 -58.5 c 128,-1,44
 448 -85 448 -85 448 -116 c 0,24,25
EndSplineSet
EndChar

StartChar: V
Encoding: 86 86 63
Width: 516
Flags: W
AnchorPoint: "Anchor-4" 230 737 basechar 0
AnchorPoint: "Anchor-7" 243 268 basechar 0
LayerCount: 2
Fore
SplineSet
231 737 m 4,0,1
 251 737 251 737 266.5 723.5 c 132,-1,2
 282 710 282 710 282 681 c 4,3,4
 282 653 282 653 266.5 639 c 132,-1,5
 251 625 251 625 231 625 c 4,6,7
 209 625 209 625 194 639 c 132,-1,8
 179 653 179 653 179 681 c 4,9,10
 179 710 179 710 194 723.5 c 132,-1,11
 209 737 209 737 231 737 c 4,0,1
190 0 m 1,12,-1
 0 536 l 1,13,-1
 91 536 l 1,14,-1
 188 247 l 2,15,16
 196 223 196 223 208 190 c 128,-1,17
 220 157 220 157 230.5 125.5 c 128,-1,18
 241 94 241 94 246 74 c 1,19,-1
 250 74 l 1,20,21
 307 137 307 137 339.5 206.5 c 128,-1,22
 372 276 372 276 385.5 357.5 c 128,-1,23
 399 439 399 439 399 536 c 1,24,-1
 486 536 l 1,25,26
 486 431 486 431 468 340.5 c 128,-1,27
 450 250 450 250 406.5 166.5 c 128,-1,28
 363 83 363 83 285 0 c 1,29,-1
 190 0 l 1,12,-1
EndSplineSet
EndChar

StartChar: Y
Encoding: 89 89 66
Width: 510
Flags: W
AnchorPoint: "Anchor-7" 255 148 basechar 0
AnchorPoint: "Anchor-6" 490 536 basechar 0
AnchorPoint: "Anchor-5" 94 -240 basechar 0
LayerCount: 2
Fore
SplineSet
259 744 m 4,0,1
 279 744 279 744 294.5 730.5 c 132,-1,2
 310 717 310 717 310 688 c 4,3,4
 310 660 310 660 294.5 646 c 132,-1,5
 279 632 279 632 259 632 c 4,6,7
 237 632 237 632 222 646 c 132,-1,8
 207 660 207 660 207 688 c 4,9,10
 207 717 207 717 222 730.5 c 132,-1,11
 237 744 237 744 259 744 c 4,0,1
1 536 m 1,12,-1
 95 536 l 1,13,-1
 211 231 l 2,14,15
 221 204 221 204 229.5 179 c 128,-1,16
 238 154 238 154 245 130.5 c 128,-1,17
 252 107 252 107 256 85 c 1,18,-1
 260 85 l 1,19,20
 266 110 266 110 279 150.5 c 128,-1,21
 292 191 292 191 306 232 c 2,22,-1
 415 536 l 1,23,-1
 510 536 l 1,24,-1
 279 -74 l 2,25,26
 260 -124 260 -124 234.5 -161.5 c 128,-1,27
 209 -199 209 -199 172.5 -219.5 c 128,-1,28
 136 -240 136 -240 84 -240 c 0,29,30
 60 -240 60 -240 42 -237.5 c 128,-1,31
 24 -235 24 -235 11 -232 c 1,32,-1
 11 -162 l 1,33,34
 22 -164 22 -164 37.5 -166 c 128,-1,35
 53 -168 53 -168 70 -168 c 0,36,37
 101 -168 101 -168 123.5 -156.5 c 128,-1,38
 146 -145 146 -145 162 -123.5 c 128,-1,39
 178 -102 178 -102 189 -73 c 2,40,-1
 217 -2 l 1,41,-1
 1 536 l 1,12,-1
EndSplineSet
EndChar

StartChar: Z
Encoding: 90 90 67
Width: 479
Flags: W
AnchorPoint: "Anchor-7" 240 286 basechar 0
AnchorPoint: "Anchor-6" 459 572 basechar 0
AnchorPoint: "Anchor-5" 240 0 basechar 0
AnchorPoint: "Anchor-4" 240 773 basechar 0
LayerCount: 2
Fore
SplineSet
29 0 m 1,0,-1
 29 56 l 1,1,-1
 332 499 l 1,2,-1
 40 499 l 1,3,-1
 40 572 l 1,4,-1
 443 572 l 1,5,-1
 443 515 l 1,6,-1
 140 73 l 1,7,-1
 451 73 l 1,8,-1
 451 0 l 1,9,-1
 29 0 l 1,0,-1
245 773 m 0,10,11
 265 773 265 773 280.5 759.5 c 128,-1,12
 296 746 296 746 296 717 c 0,13,14
 296 689 296 689 280.5 675 c 128,-1,15
 265 661 265 661 245 661 c 0,16,17
 223 661 223 661 208 675 c 128,-1,18
 193 689 193 689 193 717 c 0,19,20
 193 746 193 746 208 759.5 c 128,-1,21
 223 773 223 773 245 773 c 0,10,11
EndSplineSet
EndChar

StartChar: a
Encoding: 97 97 68
Width: 615
Flags: W
AnchorPoint: "Anchor-7" 328 268 basechar 0
AnchorPoint: "Anchor-5" 308 0 basechar 0
AnchorPoint: "Anchor-4" 308 536 basechar 0
LayerCount: 2
Fore
SplineSet
275 -10 m 0,0,1
 175 -10 175 -10 115 59.5 c 128,-1,2
 55 129 55 129 55 267 c 256,3,4
 55 405 55 405 115.5 475.5 c 128,-1,5
 176 546 176 546 276 546 c 0,6,7
 338 546 338 546 377.5 523 c 128,-1,8
 417 500 417 500 442 467 c 1,9,-1
 446 467 l 1,10,-1
 460 536 l 1,11,-1
 530 536 l 1,12,-1
 530 118 l 2,13,14
 530 87 530 87 542 74.5 c 128,-1,15
 554 62 554 62 571 62 c 0,16,17
 579 62 579 62 588 64 c 128,-1,18
 597 66 597 66 601 67 c 1,19,-1
 601 3 l 1,20,21
 596 0 596 0 587 -3 c 128,-1,22
 578 -6 578 -6 567 -8 c 128,-1,23
 556 -10 556 -10 545 -10 c 0,24,25
 507 -10 507 -10 482 8 c 128,-1,26
 457 26 457 26 446 72 c 1,27,-1
 442 72 l 1,28,29
 418 38 418 38 378 14 c 128,-1,30
 338 -10 338 -10 275 -10 c 0,0,1
289 63 m 0,31,32
 346 63 346 63 379.5 83.5 c 128,-1,33
 413 104 413 104 428 146 c 128,-1,34
 443 188 443 188 443 250 c 2,35,-1
 443 266 l 2,36,37
 443 366 443 366 410 419.5 c 128,-1,38
 377 473 377 473 288 473 c 0,39,40
 217 473 217 473 181.5 416.5 c 128,-1,41
 146 360 146 360 146 265 c 0,42,43
 146 169 146 169 181.5 116 c 128,-1,44
 217 63 217 63 289 63 c 0,31,32
EndSplineSet
EndChar

StartChar: b
Encoding: 98 98 69
Width: 615
Flags: W
AnchorPoint: "Anchor-7" 322 375 basechar 0
AnchorPoint: "Anchor-6" 515 760 basechar 0
AnchorPoint: "Anchor-5" 322 0 basechar 0
AnchorPoint: "Anchor-4" 338 760 basechar 0
LayerCount: 2
Fore
SplineSet
173 575 m 2,0,1
 173 541 173 541 171.5 511.5 c 128,-1,2
 170 482 170 482 168 465 c 1,3,-1
 173 465 l 1,4,5
 196 499 196 499 236 522 c 128,-1,6
 276 545 276 545 339 545 c 0,7,8
 439 545 439 545 499.5 475.5 c 128,-1,9
 560 406 560 406 560 268 c 0,10,11
 560 176 560 176 532.5 114 c 128,-1,12
 505 52 505 52 455 21 c 128,-1,13
 405 -10 405 -10 339 -10 c 0,14,15
 276 -10 276 -10 236 13 c 128,-1,16
 196 36 196 36 173 68 c 1,17,-1
 166 68 l 1,18,-1
 148 0 l 1,19,-1
 85 0 l 1,20,-1
 85 760 l 1,21,-1
 173 760 l 1,22,-1
 173 575 l 2,0,1
324 472 m 0,23,24
 267 472 267 472 234 450.5 c 128,-1,25
 201 429 201 429 187 384.5 c 128,-1,26
 173 340 173 340 173 271 c 2,27,-1
 173 267 l 2,28,29
 173 168 173 168 205.5 115.5 c 128,-1,30
 238 63 238 63 326 63 c 0,31,32
 398 63 398 63 433.5 116 c 128,-1,33
 469 169 469 169 469 269 c 0,34,35
 469 370 469 370 433.5 421 c 128,-1,36
 398 472 398 472 324 472 c 0,23,24
EndSplineSet
EndChar

StartChar: c
Encoding: 99 99 70
Width: 490
Flags: W
AnchorPoint: "Anchor-1" 245 536 basechar 0
AnchorPoint: "Anchor-0" 245 0 basechar 0
LayerCount: 2
Fore
SplineSet
301 -10 m 0,0,1
 183 -10 183 -10 118 57 c 128,-1,2
 53 124 53 124 53 245 c 0,3,4
 53 325 53 325 82 380.5 c 128,-1,5
 111 436 111 436 165 465 c 1,6,-1
 32 465 l 1,7,-1
 32 537 l 1,8,-1
 458 537 l 1,9,-1
 458 465 l 1,10,-1
 345 465 l 2,11,12
 251 465 251 465 197.5 411.5 c 128,-1,13
 144 358 144 358 144 252 c 0,14,15
 144 165 144 165 187 114.5 c 128,-1,16
 230 64 230 64 310 64 c 0,17,18
 347 64 347 64 381 73.5 c 128,-1,19
 415 83 415 83 447 99 c 1,20,-1
 447 21 l 1,21,22
 418 5 418 5 383 -2.5 c 128,-1,23
 348 -10 348 -10 301 -10 c 0,0,1
EndSplineSet
EndChar

StartChar: d
Encoding: 100 100 71
Width: 615
Flags: W
AnchorPoint: "Anchor-7" 308 268 basechar 0
AnchorPoint: "Anchor-6" 553 760 basechar 0
AnchorPoint: "Anchor-5" 292 0 basechar 0
AnchorPoint: "Anchor-4" 275 760 basechar 0
LayerCount: 2
Fore
SplineSet
275 -10 m 0,0,1
 175 -10 175 -10 115 59.5 c 128,-1,2
 55 129 55 129 55 267 c 256,3,4
 55 405 55 405 115.5 475.5 c 128,-1,5
 176 546 176 546 276 546 c 0,6,7
 318 546 318 546 349 535.5 c 128,-1,8
 380 525 380 525 403 507 c 128,-1,9
 426 489 426 489 442 467 c 1,10,-1
 448 467 l 1,11,12
 447 480 447 480 444.5 505.5 c 128,-1,13
 442 531 442 531 442 546 c 2,14,-1
 442 760 l 1,15,-1
 530 760 l 1,16,-1
 530 0 l 1,17,-1
 459 0 l 1,18,-1
 446 72 l 1,19,-1
 442 72 l 1,20,21
 426 49 426 49 403 30.5 c 128,-1,22
 380 12 380 12 348.5 1 c 128,-1,23
 317 -10 317 -10 275 -10 c 0,0,1
289 63 m 0,24,25
 374 63 374 63 408.5 109.5 c 128,-1,26
 443 156 443 156 443 250 c 2,27,-1
 443 266 l 2,28,29
 443 366 443 366 410 419.5 c 128,-1,30
 377 473 377 473 288 473 c 0,31,32
 217 473 217 473 181.5 416.5 c 128,-1,33
 146 360 146 360 146 265 c 0,34,35
 146 169 146 169 181.5 116 c 128,-1,36
 217 63 217 63 289 63 c 0,24,25
EndSplineSet
EndChar

StartChar: e
Encoding: 101 101 72
Width: 564
Flags: W
AnchorPoint: "Anchor-7" 284 268 basechar 0
AnchorPoint: "Anchor-6" 544 536 basechar 0
AnchorPoint: "Anchor-5" 301 0 basechar 0
AnchorPoint: "Anchor-4" 285 536 basechar 0
LayerCount: 2
Fore
SplineSet
292 546 m 0,0,1
 361 546 361 546 410.5 516 c 128,-1,2
 460 486 460 486 486.5 431.5 c 128,-1,3
 513 377 513 377 513 304 c 2,4,-1
 513 251 l 1,5,-1
 146 251 l 1,6,7
 148 160 148 160 192.5 112.5 c 128,-1,8
 237 65 237 65 317 65 c 0,9,10
 368 65 368 65 407.5 74.5 c 128,-1,11
 447 84 447 84 489 102 c 1,12,-1
 489 25 l 1,13,14
 448 7 448 7 408 -1.5 c 128,-1,15
 368 -10 368 -10 313 -10 c 0,16,17
 237 -10 237 -10 178.5 21 c 128,-1,18
 120 52 120 52 87.5 113.5 c 128,-1,19
 55 175 55 175 55 264 c 0,20,21
 55 352 55 352 84.5 415 c 128,-1,22
 114 478 114 478 167.5 512 c 128,-1,23
 221 546 221 546 292 546 c 0,0,1
291 474 m 0,24,25
 228 474 228 474 191.5 433.5 c 128,-1,26
 155 393 155 393 148 321 c 1,27,-1
 421 321 l 1,28,29
 421 367 421 367 407 401 c 128,-1,30
 393 435 393 435 364.5 454.5 c 128,-1,31
 336 474 336 474 291 474 c 0,24,25
EndSplineSet
EndChar

StartChar: f
Encoding: 102 102 73
Width: 344
Flags: W
AnchorPoint: "Anchor-7" 201 382 basechar 0
AnchorPoint: "Anchor-6" 380 765 basechar 0
AnchorPoint: "Anchor-5" 153 0 basechar 0
AnchorPoint: "Anchor-4" 252 765 basechar 0
LayerCount: 2
Fore
SplineSet
332 468 m 1,0,-1
 197 468 l 1,1,-1
 197 0 l 1,2,-1
 109 0 l 1,3,-1
 109 468 l 1,4,-1
 15 468 l 1,5,-1
 15 509 l 1,6,-1
 109 539 l 1,7,-1
 109 570 l 2,8,9
 109 639 109 639 129.5 682 c 128,-1,10
 150 725 150 725 189 745 c 128,-1,11
 228 765 228 765 283 765 c 0,12,13
 315 765 315 765 341.5 759.5 c 128,-1,14
 368 754 368 754 387 747 c 1,15,-1
 364 678 l 1,16,17
 348 683 348 683 327 688 c 128,-1,18
 306 693 306 693 284 693 c 0,19,20
 240 693 240 693 218.5 663.5 c 128,-1,21
 197 634 197 634 197 571 c 2,22,-1
 197 536 l 1,23,-1
 332 536 l 1,24,-1
 332 468 l 1,0,-1
EndSplineSet
EndChar

StartChar: g
Encoding: 103 103 74
Width: 615
Flags: W
AnchorPoint: "Anchor-7" 292 153 basechar 0
AnchorPoint: "Anchor-6" 555 536 basechar 0
AnchorPoint: "Anchor-5" 298 -240 basechar 0
AnchorPoint: "Anchor-4" 297 536 basechar 0
LayerCount: 2
Fore
SplineSet
275 546 m 0,0,1
 328 546 328 546 370.5 526 c 128,-1,2
 413 506 413 506 443 465 c 1,3,-1
 448 465 l 1,4,-1
 460 536 l 1,5,-1
 530 536 l 1,6,-1
 530 -9 l 2,7,8
 530 -85 530 -85 504 -136.5 c 128,-1,9
 478 -188 478 -188 425 -214 c 128,-1,10
 372 -240 372 -240 290 -240 c 0,11,12
 232 -240 232 -240 183.5 -231.5 c 128,-1,13
 135 -223 135 -223 97 -206 c 1,14,-1
 97 -125 l 1,15,16
 135 -145 135 -145 186 -156 c 128,-1,17
 237 -167 237 -167 295 -167 c 0,18,19
 364 -167 364 -167 403.5 -126.5 c 128,-1,20
 443 -86 443 -86 443 -16 c 2,21,-1
 443 5 l 2,22,23
 443 17 443 17 444 39.5 c 128,-1,24
 445 62 445 62 446 71 c 1,25,-1
 442 71 l 1,26,27
 414 30 414 30 372.5 10 c 128,-1,28
 331 -10 331 -10 276 -10 c 0,29,30
 172 -10 172 -10 113.5 63 c 128,-1,31
 55 136 55 136 55 267 c 0,32,33
 55 395 55 395 113.5 470.5 c 128,-1,34
 172 546 172 546 275 546 c 0,0,1
287 472 m 0,35,36
 242 472 242 472 210.5 448 c 128,-1,37
 179 424 179 424 162.5 378 c 128,-1,38
 146 332 146 332 146 266 c 0,39,40
 146 167 146 167 182.5 114.5 c 128,-1,41
 219 62 219 62 289 62 c 0,42,43
 330 62 330 62 359 72.5 c 128,-1,44
 388 83 388 83 407 105.5 c 128,-1,45
 426 128 426 128 435 163 c 128,-1,46
 444 198 444 198 444 246 c 2,47,-1
 444 267 l 2,48,49
 444 340 444 340 427.5 385 c 128,-1,50
 411 430 411 430 376 451 c 128,-1,51
 341 472 341 472 287 472 c 0,35,36
EndSplineSet
EndChar

StartChar: h
Encoding: 104 104 75
Width: 618
Flags: W
AnchorPoint: "Anchor-7" 309 268 basechar 0
AnchorPoint: "Anchor-6" 535 760 basechar 0
AnchorPoint: "Anchor-5" 310 0 basechar 0
AnchorPoint: "Anchor-4" 130 760 basechar 0
LayerCount: 2
Fore
SplineSet
173 537 m 2,0,1
 173 518 173 518 171.5 498 c 128,-1,2
 170 478 170 478 168 462 c 1,3,-1
 174 462 l 1,4,5
 191 490 191 490 217 508 c 128,-1,6
 243 526 243 526 275 535.5 c 128,-1,7
 307 545 307 545 341 545 c 0,8,9
 406 545 406 545 449.5 524.5 c 128,-1,10
 493 504 493 504 515 461 c 128,-1,11
 537 418 537 418 537 349 c 2,12,-1
 537 0 l 1,13,-1
 450 0 l 1,14,-1
 450 343 l 2,15,16
 450 408 450 408 421 440 c 128,-1,17
 392 472 392 472 330 472 c 0,18,19
 270 472 270 472 236 449.5 c 128,-1,20
 202 427 202 427 187.5 383.5 c 128,-1,21
 173 340 173 340 173 277 c 2,22,-1
 173 0 l 1,23,-1
 85 0 l 1,24,-1
 85 760 l 1,25,-1
 173 760 l 1,26,-1
 173 537 l 2,0,1
EndSplineSet
EndChar

StartChar: i
Encoding: 105 105 76
Width: 258
Flags: W
AnchorPoint: "Anchor-7" 129 368 basechar 0
AnchorPoint: "Anchor-6" 238 737 basechar 0
AnchorPoint: "Anchor-5" 131 0 basechar 0
AnchorPoint: "Anchor-4" 129 737 basechar 0
LayerCount: 2
Fore
SplineSet
173 536 m 1,0,-1
 173 0 l 1,1,-1
 85 0 l 1,2,-1
 85 536 l 1,3,-1
 173 536 l 1,0,-1
130 737 m 0,4,5
 150 737 150 737 165.5 723.5 c 128,-1,6
 181 710 181 710 181 681 c 0,7,8
 181 653 181 653 165.5 639 c 128,-1,9
 150 625 150 625 130 625 c 0,10,11
 108 625 108 625 93 639 c 128,-1,12
 78 653 78 653 78 681 c 0,13,14
 78 710 78 710 93 723.5 c 128,-1,15
 108 737 108 737 130 737 c 0,4,5
EndSplineSet
Substitution2: "Single Substitution lookup 127 subtable" dotlessi
Substitution2: "Single Substitution lookup 126 subtable" dotlessi
EndChar

StartChar: j
Encoding: 106 106 77
Width: 470
Flags: W
AnchorPoint: "Anchor-1" 235 536 basechar 0
AnchorPoint: "Anchor-0" 235 0 basechar 0
LayerCount: 2
Fore
SplineSet
424 536 m 1,0,-1
 424 470 l 1,1,-1
 313 313 l 1,2,-1
 414 313 l 1,3,-1
 414 243 l 1,4,-1
 263 243 l 1,5,-1
 140 68 l 1,6,-1
 431 68 l 1,7,-1
 431 0 l 1,8,-1
 39 0 l 1,9,-1
 39 58 l 1,10,-1
 169 243 l 1,11,-1
 57 243 l 1,12,-1
 57 313 l 1,13,-1
 218 313 l 1,14,-1
 327 468 l 1,15,-1
 56 468 l 1,16,-1
 56 536 l 1,17,-1
 424 536 l 1,0,-1
EndSplineSet
Substitution2: "Single Substitution lookup 127 subtable" uni0237
Substitution2: "Single Substitution lookup 126 subtable" uni0237
EndChar

StartChar: k
Encoding: 107 107 78
Width: 534
Flags: W
AnchorPoint: "Anchor-7" 305 380 basechar 0
AnchorPoint: "Anchor-6" 369 840 basechar 0
AnchorPoint: "Anchor-5" 267 0 basechar 0
AnchorPoint: "Anchor-4" 129 760 basechar 0
LayerCount: 2
Fore
SplineSet
172 363 m 2,0,1
 172 347 172 347 170.5 321 c 128,-1,2
 169 295 169 295 168 276 c 1,3,-1
 172 276 l 1,4,5
 178 284 178 284 190 299 c 128,-1,6
 202 314 202 314 214.5 329.5 c 128,-1,7
 227 345 227 345 236 355 c 2,8,-1
 407 536 l 1,9,-1
 510 536 l 1,10,-1
 293 307 l 1,11,-1
 525 0 l 1,12,-1
 419 0 l 1,13,-1
 233 250 l 1,14,-1
 172 197 l 1,15,-1
 172 0 l 1,16,-1
 85 0 l 1,17,-1
 85 536 l 1,18,-1
 172 536 l 5,19,-1
 172 363 l 2,0,1
EndSplineSet
EndChar

StartChar: l
Encoding: 108 108 79
Width: 348
Flags: W
AnchorPoint: "Anchor-7" 214 352 basechar 0
AnchorPoint: "Anchor-5" 204 0 basechar 0
AnchorPoint: "Anchor-4" 138 714 basechar 0
LayerCount: 2
Fore
SplineSet
243 -10 m 0,0,1
 199 -10 199 -10 164.5 4.5 c 128,-1,2
 130 19 130 19 110 55.5 c 128,-1,3
 90 92 90 92 90 157 c 2,4,-1
 90 714 l 1,5,-1
 179 714 l 1,6,-1
 179 165 l 2,7,8
 179 117 179 117 197.5 93 c 128,-1,9
 216 69 216 69 256 69 c 0,10,11
 278 69 278 69 301.5 72.5 c 128,-1,12
 325 76 325 76 338 80 c 1,13,-1
 338 6 l 1,14,15
 324 -1 324 -1 296.5 -5.5 c 128,-1,16
 269 -10 269 -10 243 -10 c 0,0,1
EndSplineSet
EndChar

StartChar: m
Encoding: 109 109 80
Width: 935
Flags: W
AnchorPoint: "Anchor-7" 469 273 basechar 0
AnchorPoint: "Anchor-6" 885 536 basechar 0
AnchorPoint: "Anchor-5" 471 0 basechar 0
AnchorPoint: "Anchor-4" 479 536 basechar 0
LayerCount: 2
Fore
SplineSet
673 546 m 0,0,1
 764 546 764 546 809 499.5 c 128,-1,2
 854 453 854 453 854 349 c 2,3,-1
 854 0 l 1,4,-1
 767 0 l 1,5,-1
 767 345 l 2,6,7
 767 408 767 408 740.5 440 c 128,-1,8
 714 472 714 472 658 472 c 0,9,10
 580 472 580 472 546.5 427 c 128,-1,11
 513 382 513 382 513 296 c 2,12,-1
 513 0 l 1,13,-1
 426 0 l 1,14,-1
 426 345 l 2,15,16
 426 387 426 387 414 415.5 c 128,-1,17
 402 444 402 444 378 458 c 128,-1,18
 354 472 354 472 316 472 c 0,19,20
 262 472 262 472 231 449.5 c 128,-1,21
 200 427 200 427 186.5 384 c 128,-1,22
 173 341 173 341 173 278 c 2,23,-1
 173 0 l 1,24,-1
 85 0 l 1,25,-1
 85 536 l 1,26,-1
 156 536 l 1,27,-1
 169 463 l 1,28,-1
 174 463 l 1,29,30
 191 491 191 491 215.5 509.5 c 128,-1,31
 240 528 240 528 270 537 c 128,-1,32
 300 546 300 546 332 546 c 0,33,34
 394 546 394 546 435.5 524 c 128,-1,35
 477 502 477 502 496 456 c 1,36,-1
 501 456 l 1,37,38
 528 502 528 502 574.5 524 c 128,-1,39
 621 546 621 546 673 546 c 0,0,1
EndSplineSet
EndChar

StartChar: n
Encoding: 110 110 81
Width: 618
Flags: W
AnchorPoint: "Anchor-7" 311 273 basechar 0
AnchorPoint: "Anchor-6" 562 536 basechar 0
AnchorPoint: "Anchor-5" 309 0 basechar 0
AnchorPoint: "Anchor-4" 309 536 basechar 0
LayerCount: 2
Fore
SplineSet
343 546 m 0,0,1
 439 546 439 546 488 499.5 c 128,-1,2
 537 453 537 453 537 349 c 2,3,-1
 537 0 l 1,4,-1
 450 0 l 1,5,-1
 450 343 l 2,6,7
 450 408 450 408 421 440 c 128,-1,8
 392 472 392 472 330 472 c 0,9,10
 241 472 241 472 207 422 c 128,-1,11
 173 372 173 372 173 278 c 2,12,-1
 173 0 l 1,13,-1
 85 0 l 1,14,-1
 85 536 l 1,15,-1
 156 536 l 1,16,-1
 169 463 l 1,17,-1
 174 463 l 1,18,19
 192 491 192 491 218.5 509.5 c 128,-1,20
 245 528 245 528 277 537 c 128,-1,21
 309 546 309 546 343 546 c 0,0,1
EndSplineSet
EndChar

StartChar: o
Encoding: 111 111 82
Width: 605
Flags: W
AnchorPoint: "Anchor-7" 303 268 basechar 0
AnchorPoint: "Anchor-6" 575 536 basechar 0
AnchorPoint: "Anchor-5" 301 0 basechar 0
AnchorPoint: "Anchor-4" 303 536 basechar 0
LayerCount: 2
Fore
SplineSet
551 269 m 0,0,1
 551 202 551 202 533.5 150.5 c 128,-1,2
 516 99 516 99 483.5 63 c 128,-1,3
 451 27 451 27 404.5 8.5 c 128,-1,4
 358 -10 358 -10 301 -10 c 0,5,6
 248 -10 248 -10 203 8.5 c 128,-1,7
 158 27 158 27 125 63 c 128,-1,8
 92 99 92 99 73.5 150.5 c 128,-1,9
 55 202 55 202 55 269 c 0,10,11
 55 358 55 358 85 419.5 c 128,-1,12
 115 481 115 481 171 513.5 c 128,-1,13
 227 546 227 546 304 546 c 0,14,15
 377 546 377 546 432.5 513.5 c 128,-1,16
 488 481 488 481 519.5 419.5 c 128,-1,17
 551 358 551 358 551 269 c 0,0,1
146 269 m 0,18,19
 146 206 146 206 162.5 159.5 c 128,-1,20
 179 113 179 113 214 88 c 128,-1,21
 249 63 249 63 303 63 c 256,22,23
 357 63 357 63 392 88 c 128,-1,24
 427 113 427 113 443.5 159.5 c 128,-1,25
 460 206 460 206 460 269 c 0,26,27
 460 333 460 333 443 378 c 128,-1,28
 426 423 426 423 391.5 447.5 c 128,-1,29
 357 472 357 472 302 472 c 0,30,31
 220 472 220 472 183 418 c 128,-1,32
 146 364 146 364 146 269 c 0,18,19
EndSplineSet
EndChar

StartChar: p
Encoding: 112 112 83
Width: 615
Flags: W
AnchorPoint: "Anchor-7" 322 153 basechar 0
AnchorPoint: "Anchor-6" 585 536 basechar 0
AnchorPoint: "Anchor-5" 129 -240 basechar 0
AnchorPoint: "Anchor-4" 332 536 basechar 0
LayerCount: 2
Fore
SplineSet
340 546 m 0,0,1
 439 546 439 546 499.5 477 c 128,-1,2
 560 408 560 408 560 269 c 0,3,4
 560 178 560 178 532.5 115.5 c 128,-1,5
 505 53 505 53 455.5 21.5 c 128,-1,6
 406 -10 406 -10 339 -10 c 0,7,8
 298 -10 298 -10 266 1 c 128,-1,9
 234 12 234 12 211.5 29.5 c 128,-1,10
 189 47 189 47 173 68 c 1,11,-1
 167 68 l 1,12,13
 169 51 169 51 171 25 c 128,-1,14
 173 -1 173 -1 173 -20 c 2,15,-1
 173 -240 l 1,16,-1
 85 -240 l 1,17,-1
 85 536 l 1,18,-1
 157 536 l 1,19,-1
 169 463 l 1,20,-1
 173 463 l 1,21,22
 189 486 189 486 211.5 505 c 128,-1,23
 234 524 234 524 265.5 535 c 128,-1,24
 297 546 297 546 340 546 c 0,0,1
324 472 m 0,25,26
 270 472 270 472 237 451.5 c 128,-1,27
 204 431 204 431 189 390 c 128,-1,28
 174 349 174 349 173 286 c 2,29,-1
 173 269 l 2,30,31
 173 203 173 203 187 157 c 128,-1,32
 201 111 201 111 234.5 87 c 128,-1,33
 268 63 268 63 326 63 c 0,34,35
 375 63 375 63 406.5 90 c 128,-1,36
 438 117 438 117 453.5 163.5 c 128,-1,37
 469 210 469 210 469 270 c 0,38,39
 469 362 469 362 433.5 417 c 128,-1,40
 398 472 398 472 324 472 c 0,25,26
EndSplineSet
EndChar

StartChar: q
Encoding: 113 113 84
Width: 534
Flags: W
AnchorPoint: "Anchor-1" 267 765 basechar 0
AnchorPoint: "Anchor-0" 267 0 basechar 0
LayerCount: 2
Fore
SplineSet
206 765 m 0,0,1
 225 765 225 765 243 761 c 128,-1,2
 261 757 261 757 271 752 c 1,3,-1
 271 679 l 1,4,5
 264 682 264 682 250 685.5 c 128,-1,6
 236 689 236 689 219 689 c 0,7,8
 197 689 197 689 184.5 676 c 128,-1,9
 172 663 172 663 172 631 c 2,10,-1
 172 363 l 2,11,12
 172 347 172 347 171 321 c 128,-1,13
 170 295 170 295 168 276 c 1,14,-1
 172 276 l 1,15,16
 178 285 178 285 190 299.5 c 128,-1,17
 202 314 202 314 214.5 329.5 c 128,-1,18
 227 345 227 345 236 355 c 2,19,-1
 407 536 l 1,20,-1
 510 536 l 1,21,-1
 293 307 l 1,22,-1
 525 0 l 1,23,-1
 419 0 l 1,24,-1
 233 250 l 1,25,-1
 172 197 l 1,26,-1
 172 0 l 1,27,-1
 85 0 l 1,28,-1
 85 625 l 2,29,30
 85 765 85 765 206 765 c 0,0,1
EndSplineSet
EndChar

StartChar: r
Encoding: 114 114 85
Width: 413
Flags: W
AnchorPoint: "Anchor-7" 241 273 basechar 0
AnchorPoint: "Anchor-6" 393 536 basechar 0
AnchorPoint: "Anchor-5" 126 0 basechar 0
AnchorPoint: "Anchor-4" 240 536 basechar 0
LayerCount: 2
Fore
SplineSet
335 546 m 0,0,1
 350 546 350 546 367.5 544.5 c 128,-1,2
 385 543 385 543 398 540 c 1,3,-1
 387 459 l 1,4,5
 374 462 374 462 358.5 464 c 128,-1,6
 343 466 343 466 329 466 c 0,7,8
 298 466 298 466 270 453 c 128,-1,9
 242 440 242 440 220 416.5 c 128,-1,10
 198 393 198 393 185.5 360 c 128,-1,11
 173 327 173 327 173 286 c 2,12,-1
 173 0 l 1,13,-1
 85 0 l 1,14,-1
 85 536 l 1,15,-1
 157 536 l 1,16,-1
 167 438 l 1,17,-1
 171 438 l 1,18,19
 188 468 188 468 212 492.5 c 128,-1,20
 236 517 236 517 267 531.5 c 128,-1,21
 298 546 298 546 335 546 c 0,0,1
EndSplineSet
EndChar

StartChar: s
Encoding: 115 115 86
Width: 479
Flags: W
AnchorPoint: "Anchor-7" 242 268 basechar 0
AnchorPoint: "Anchor-6" 439 536 basechar 0
AnchorPoint: "Anchor-5" 240 0 basechar 0
AnchorPoint: "Anchor-4" 240 536 basechar 0
LayerCount: 2
Fore
SplineSet
434 148 m 0,0,1
 434 96 434 96 408 61 c 128,-1,2
 382 26 382 26 334 8 c 128,-1,3
 286 -10 286 -10 220 -10 c 0,4,5
 164 -10 164 -10 123.5 -1 c 128,-1,6
 83 8 83 8 52 24 c 1,7,-1
 52 104 l 1,8,9
 84 88 84 88 129.5 74.5 c 128,-1,10
 175 61 175 61 222 61 c 0,11,12
 289 61 289 61 319 82.5 c 128,-1,13
 349 104 349 104 349 140 c 0,14,15
 349 160 349 160 338 176 c 128,-1,16
 327 192 327 192 298.5 208 c 128,-1,17
 270 224 270 224 217 244 c 0,18,19
 165 264 165 264 128 284 c 128,-1,20
 91 304 91 304 71 332 c 128,-1,21
 51 360 51 360 51 404 c 0,22,23
 51 472 51 472 106.5 509 c 128,-1,24
 162 546 162 546 252 546 c 0,25,26
 301 546 301 546 343.5 536.5 c 128,-1,27
 386 527 386 527 423 510 c 1,28,-1
 393 440 l 1,29,30
 359 454 359 454 322 464 c 128,-1,31
 285 474 285 474 246 474 c 0,32,33
 192 474 192 474 163.5 456.5 c 128,-1,34
 135 439 135 439 135 409 c 0,35,36
 135 387 135 387 148 371.5 c 128,-1,37
 161 356 161 356 191.5 341.5 c 128,-1,38
 222 327 222 327 273 307 c 0,39,40
 324 288 324 288 360 268 c 128,-1,41
 396 248 396 248 415 219.5 c 128,-1,42
 434 191 434 191 434 148 c 0,0,1
EndSplineSet
EndChar

StartChar: t
Encoding: 116 116 87
Width: 361
Flags: W
AnchorPoint: "Anchor-7" 181 268 basechar 0
AnchorPoint: "Anchor-6" 225 840 basechar 0
AnchorPoint: "Anchor-5" 214 0 basechar 0
AnchorPoint: "Anchor-4" 154 659 basechar 0
LayerCount: 2
Fore
SplineSet
264 62 m 0,0,1
 284 62 284 62 305 65.5 c 128,-1,2
 326 69 326 69 339 73 c 1,3,-1
 339 6 l 1,4,5
 325 -1 325 -1 299 -5.5 c 128,-1,6
 273 -10 273 -10 249 -10 c 0,7,8
 207 -10 207 -10 171.5 4.5 c 128,-1,9
 136 19 136 19 114 55 c 128,-1,10
 92 91 92 91 92 156 c 2,11,-1
 92 468 l 1,12,-1
 16 468 l 1,13,-1
 16 510 l 1,14,-1
 93 545 l 1,15,-1
 128 659 l 1,16,-1
 180 659 l 1,17,-1
 180 536 l 1,18,-1
 335 536 l 1,19,-1
 335 468 l 1,20,-1
 180 468 l 1,21,-1
 180 158 l 2,22,23
 180 109 180 109 203.5 85.5 c 128,-1,24
 227 62 227 62 264 62 c 0,0,1
EndSplineSet
EndChar

StartChar: u
Encoding: 117 117 88
Width: 618
Flags: W
AnchorPoint: "Anchor-7" 306 263 basechar 0
AnchorPoint: "Anchor-6" 562 536 basechar 0
AnchorPoint: "Anchor-5" 294 0 basechar 0
AnchorPoint: "Anchor-4" 309 536 basechar 0
LayerCount: 2
Fore
SplineSet
533 536 m 1,0,-1
 533 0 l 1,1,-1
 461 0 l 1,2,-1
 448 71 l 1,3,-1
 444 71 l 1,4,5
 427 43 427 43 400 25 c 128,-1,6
 373 7 373 7 341 -1.5 c 128,-1,7
 309 -10 309 -10 274 -10 c 0,8,9
 210 -10 210 -10 166.5 10.5 c 128,-1,10
 123 31 123 31 101 74 c 128,-1,11
 79 117 79 117 79 185 c 2,12,-1
 79 536 l 1,13,-1
 168 536 l 1,14,-1
 168 191 l 2,15,16
 168 127 168 127 197 95 c 128,-1,17
 226 63 226 63 287 63 c 0,18,19
 347 63 347 63 381.5 85.5 c 128,-1,20
 416 108 416 108 430.5 151.5 c 128,-1,21
 445 195 445 195 445 257 c 2,22,-1
 445 536 l 1,23,-1
 533 536 l 1,0,-1
EndSplineSet
EndChar

StartChar: v
Encoding: 118 118 89
Width: 508
Flags: W
AnchorPoint: "Anchor-7" 254 268 basechar 0
AnchorPoint: "Anchor-6" 488 536 basechar 0
AnchorPoint: "Anchor-5" 252 0 basechar 0
AnchorPoint: "Anchor-4" 252 536 basechar 0
LayerCount: 2
Fore
SplineSet
203 0 m 1,0,-1
 0 536 l 1,1,-1
 94 536 l 1,2,-1
 208 220 l 2,3,4
 216 198 216 198 225 171 c 128,-1,5
 234 144 234 144 241 119.5 c 128,-1,6
 248 95 248 95 251 78 c 1,7,-1
 255 78 l 1,8,9
 259 95 259 95 266.5 120 c 128,-1,10
 274 145 274 145 283.5 172 c 128,-1,11
 293 199 293 199 300 220 c 2,12,-1
 414 536 l 1,13,-1
 508 536 l 1,14,-1
 304 0 l 1,15,-1
 203 0 l 1,0,-1
EndSplineSet
EndChar

StartChar: w
Encoding: 119 119 90
Width: 516
Flags: W
AnchorPoint: "Anchor-1" 259 536 basechar 0
AnchorPoint: "Anchor-0" 258 0 basechar 0
LayerCount: 2
Fore
SplineSet
259 682 m 4,0,1
 279 682 279 682 294.5 668.5 c 132,-1,2
 310 655 310 655 310 626 c 4,3,4
 310 598 310 598 294.5 584 c 132,-1,5
 279 570 279 570 259 570 c 4,6,7
 237 570 237 570 222 584 c 132,-1,8
 207 598 207 598 207 626 c 4,9,10
 207 655 207 655 222 668.5 c 132,-1,11
 237 682 237 682 259 682 c 4,0,1
496 541 m 0,12,13
 508 541 508 541 518 539 c 128,-1,14
 528 537 528 537 537 535 c 1,15,-1
 537 467 l 1,16,17
 524 472 524 472 503 472 c 0,18,19
 481 472 481 472 467 452 c 128,-1,20
 453 432 453 432 439 390 c 2,21,-1
 316 0 l 1,22,-1
 199 0 l 1,23,-1
 0 536 l 1,24,-1
 92 536 l 1,25,-1
 219 181 l 2,26,27
 234 139 234 139 244 107.5 c 128,-1,28
 254 76 254 76 256 62 c 1,29,-1
 260 62 l 1,30,31
 264 83 264 83 272 119 c 128,-1,32
 280 155 280 155 291 189 c 2,33,-1
 361 407 l 2,34,35
 378 459 378 459 394.5 488 c 128,-1,36
 411 517 411 517 434.5 529 c 128,-1,37
 458 541 458 541 496 541 c 0,12,13
EndSplineSet
EndChar

StartChar: x
Encoding: 120 120 91
Width: 529
Flags: W
AnchorPoint: "Anchor-7" 264 268 basechar 0
AnchorPoint: "Anchor-6" 509 536 basechar 0
AnchorPoint: "Anchor-5" 265 0 basechar 0
AnchorPoint: "Anchor-4" 263 536 basechar 0
LayerCount: 2
Fore
SplineSet
212 274 m 1,0,-1
 27 536 l 1,1,-1
 127 536 l 1,2,-1
 265 334 l 1,3,-1
 402 536 l 1,4,-1
 501 536 l 1,5,-1
 316 274 l 1,6,-1
 511 0 l 1,7,-1
 411 0 l 1,8,-1
 265 214 l 1,9,-1
 117 0 l 1,10,-1
 18 0 l 1,11,-1
 212 274 l 1,0,-1
EndSplineSet
EndChar

StartChar: y
Encoding: 121 121 92
Width: 510
Flags: W
AnchorPoint: "Anchor-7" 255 148 basechar 0
AnchorPoint: "Anchor-6" 490 536 basechar 0
AnchorPoint: "Anchor-5" 94 -240 basechar 0
AnchorPoint: "Anchor-4" 255 536 basechar 0
LayerCount: 2
Fore
SplineSet
1 536 m 1,0,-1
 95 536 l 1,1,-1
 211 231 l 2,2,3
 221 204 221 204 229.5 179 c 128,-1,4
 238 154 238 154 245 130.5 c 128,-1,5
 252 107 252 107 256 85 c 1,6,-1
 260 85 l 1,7,8
 266 110 266 110 279 150.5 c 128,-1,9
 292 191 292 191 306 232 c 2,10,-1
 415 536 l 1,11,-1
 510 536 l 1,12,-1
 279 -74 l 2,13,14
 260 -124 260 -124 234.5 -161.5 c 128,-1,15
 209 -199 209 -199 172.5 -219.5 c 128,-1,16
 136 -240 136 -240 84 -240 c 0,17,18
 60 -240 60 -240 42 -237.5 c 128,-1,19
 24 -235 24 -235 11 -232 c 1,20,-1
 11 -162 l 1,21,22
 22 -164 22 -164 37.5 -166 c 128,-1,23
 53 -168 53 -168 70 -168 c 0,24,25
 101 -168 101 -168 123.5 -156.5 c 128,-1,26
 146 -145 146 -145 162 -123.5 c 128,-1,27
 178 -102 178 -102 189 -73 c 2,28,-1
 217 -2 l 1,29,-1
 1 536 l 1,0,-1
EndSplineSet
EndChar

StartChar: z
Encoding: 122 122 93
Width: 470
Flags: W
AnchorPoint: "Anchor-7" 235 268 basechar 0
AnchorPoint: "Anchor-6" 430 536 basechar 0
AnchorPoint: "Anchor-5" 242 0 basechar 0
AnchorPoint: "Anchor-4" 235 536 basechar 0
LayerCount: 2
Fore
SplineSet
431 0 m 1,0,-1
 39 0 l 1,1,-1
 39 58 l 1,2,-1
 327 468 l 1,3,-1
 56 468 l 1,4,-1
 56 536 l 1,5,-1
 424 536 l 1,6,-1
 424 470 l 1,7,-1
 140 68 l 1,8,-1
 431 68 l 1,9,-1
 431 0 l 1,0,-1
EndSplineSet
EndChar

StartChar: at
Encoding: 64 64 94
Width: 899
Flags: W
LayerCount: 2
Fore
SplineSet
841 357 m 0,0,1
 841 311 841 311 830.5 267 c 128,-1,2
 820 223 820 223 798 187.5 c 128,-1,3
 776 152 776 152 744 130.5 c 128,-1,4
 712 109 712 109 668 109 c 0,5,6
 622 109 622 109 595.5 135.5 c 128,-1,7
 569 162 569 162 563 196 c 1,8,-1
 558 196 l 1,9,10
 540 159 540 159 505 134 c 128,-1,11
 470 109 470 109 417 109 c 0,12,13
 341 109 341 109 299.5 160 c 128,-1,14
 258 211 258 211 258 295 c 0,15,16
 258 361 258 361 284 411.5 c 128,-1,17
 310 462 310 462 357.5 491 c 128,-1,18
 405 520 405 520 470 520 c 0,19,20
 514 520 514 520 556.5 512.5 c 128,-1,21
 599 505 599 505 623 496 c 1,22,-1
 613 293 l 2,23,24
 612 275 612 275 612 267.5 c 128,-1,25
 612 260 612 260 612 257 c 0,26,27
 612 205 612 205 630.5 188 c 128,-1,28
 649 171 649 171 674 171 c 0,29,30
 705 171 705 171 726.5 196.5 c 128,-1,31
 748 222 748 222 759.5 264.5 c 128,-1,32
 771 307 771 307 771 358 c 0,33,34
 771 451 771 451 733.5 515.5 c 128,-1,35
 696 580 696 580 630.5 614 c 128,-1,36
 565 648 565 648 482 648 c 0,37,38
 397 648 397 648 331 621 c 128,-1,39
 265 594 265 594 220.5 545 c 128,-1,40
 176 496 176 496 153 429.5 c 128,-1,41
 130 363 130 363 130 283 c 0,42,43
 130 185 130 185 165 116.5 c 128,-1,44
 200 48 200 48 267.5 12.5 c 128,-1,45
 335 -23 335 -23 433 -23 c 0,46,47
 494 -23 494 -23 549.5 -9.5 c 128,-1,48
 605 4 605 4 648 20 c 1,49,-1
 648 -48 l 1,50,51
 605 -66 605 -66 551.5 -77.5 c 128,-1,52
 498 -89 498 -89 433 -89 c 0,53,54
 315 -89 315 -89 231 -45 c 128,-1,55
 147 -1 147 -1 102.5 81.5 c 128,-1,56
 58 164 58 164 58 280 c 0,57,58
 58 373 58 373 87 452.5 c 128,-1,59
 116 532 116 532 171 590.5 c 128,-1,60
 226 649 226 649 304.5 681.5 c 128,-1,61
 383 714 383 714 482 714 c 0,62,63
 560 714 560 714 625.5 689.5 c 128,-1,64
 691 665 691 665 739.5 618.5 c 128,-1,65
 788 572 788 572 814.5 506 c 128,-1,66
 841 440 841 440 841 357 c 0,0,1
336 293 m 0,67,68
 336 229 336 229 361.5 200 c 128,-1,69
 387 171 387 171 430 171 c 0,70,71
 486 171 486 171 510.5 213 c 128,-1,72
 535 255 535 255 539 322 c 2,73,-1
 545 447 l 1,74,75
 532 451 532 451 512 454 c 128,-1,76
 492 457 492 457 471 457 c 0,77,78
 422 457 422 457 392 433 c 128,-1,79
 362 409 362 409 349 371.5 c 128,-1,80
 336 334 336 334 336 293 c 0,67,68
EndSplineSet
Validated: 1
EndChar

StartChar: ampersand
Encoding: 38 38 95
Width: 732
Flags: W
LayerCount: 2
Fore
SplineSet
304 725 m 0,0,1
 358 725 358 725 396.5 706.5 c 128,-1,2
 435 688 435 688 456 654 c 128,-1,3
 477 620 477 620 477 571 c 0,4,5
 477 508 477 508 436.5 464 c 128,-1,6
 396 420 396 420 334 384 c 1,7,-1
 527 198 l 1,8,9
 553 229 553 229 569.5 269.5 c 128,-1,10
 586 310 586 310 597 357 c 1,11,-1
 686 357 l 1,12,13
 670 293 670 293 646 238 c 128,-1,14
 622 183 622 183 584 142 c 1,15,-1
 730 0 l 1,16,-1
 611 0 l 1,17,-1
 524 84 l 1,18,19
 493 56 493 56 457 35 c 128,-1,20
 421 14 421 14 377.5 2 c 128,-1,21
 334 -10 334 -10 278 -10 c 0,22,23
 209 -10 209 -10 158.5 12.5 c 128,-1,24
 108 35 108 35 80.5 79 c 128,-1,25
 53 123 53 123 53 186 c 0,26,27
 53 237 53 237 71.5 274 c 128,-1,28
 90 311 90 311 125 340 c 128,-1,29
 160 369 160 369 207 396 c 1,30,31
 186 420 186 420 166 446 c 128,-1,32
 146 472 146 472 133 502.5 c 128,-1,33
 120 533 120 533 120 569 c 0,34,35
 120 618 120 618 142 653 c 128,-1,36
 164 688 164 688 205.5 706.5 c 128,-1,37
 247 725 247 725 304 725 c 0,0,1
260 341 m 1,38,39
 224 320 224 320 198.5 298.5 c 128,-1,40
 173 277 173 277 159 251 c 128,-1,41
 145 225 145 225 145 189 c 0,42,43
 145 134 145 134 182 101 c 128,-1,44
 219 68 219 68 281 68 c 0,45,46
 345 68 345 68 391 89 c 128,-1,47
 437 110 437 110 468 139 c 1,48,-1
 260 341 l 1,38,39
301 653 m 0,49,50
 259 653 259 653 232.5 631 c 128,-1,51
 206 609 206 609 206 570 c 0,52,53
 206 534 206 534 225 503.5 c 128,-1,54
 244 473 244 473 280 436 c 1,55,56
 339 470 339 470 364.5 500.5 c 128,-1,57
 390 531 390 531 390 571 c 0,58,59
 390 607 390 607 366 630 c 128,-1,60
 342 653 342 653 301 653 c 0,49,50
EndSplineSet
Validated: 1
EndChar

StartChar: dollar
Encoding: 36 36 96
Width: 572
Flags: W
LayerCount: 2
Fore
SplineSet
253 49 m 1,0,1
 198 50 198 50 146 58.5 c 128,-1,2
 94 67 94 67 62 82 c 1,3,-1
 62 167 l 1,4,5
 96 151 96 151 149 139 c 128,-1,6
 202 127 202 127 253 126 c 1,7,-1
 253 328 l 1,8,9
 187 346 187 346 145 369.5 c 128,-1,10
 103 393 103 393 82.5 427 c 128,-1,11
 62 461 62 461 62 508 c 0,12,13
 62 557 62 557 85.5 592 c 128,-1,14
 109 627 109 627 152 647.5 c 128,-1,15
 195 668 195 668 253 671 c 1,16,-1
 253 759 l 1,17,-1
 317 759 l 1,18,-1
 317 672 l 1,19,20
 370 671 370 671 413.5 660.5 c 128,-1,21
 457 650 457 650 493 635 c 1,22,-1
 466 561 l 1,23,24
 434 574 434 574 395.5 583.5 c 128,-1,25
 357 593 357 593 317 596 c 1,26,-1
 317 395 l 1,27,28
 383 376 383 376 427 354.5 c 128,-1,29
 471 333 471 333 493.5 301.5 c 128,-1,30
 516 270 516 270 516 220 c 0,31,32
 516 150 516 150 464 106.5 c 128,-1,33
 412 63 412 63 317 53 c 1,34,-1
 317 -58 l 1,35,-1
 253 -58 l 1,36,-1
 253 49 l 1,0,1
317 131 m 1,37,38
 376 137 376 137 403 158.5 c 128,-1,39
 430 180 430 180 430 214 c 0,40,41
 430 239 430 239 420 255.5 c 128,-1,42
 410 272 410 272 385.5 284 c 128,-1,43
 361 296 361 296 317 307 c 1,44,-1
 317 131 l 1,37,38
253 594 m 1,45,46
 217 592 217 592 194 581.5 c 128,-1,47
 171 571 171 571 159.5 554 c 128,-1,48
 148 537 148 537 148 515 c 0,49,50
 148 489 148 489 157.5 470.5 c 128,-1,51
 167 452 167 452 190 439.5 c 128,-1,52
 213 427 213 427 253 417 c 1,53,-1
 253 594 l 1,45,46
EndSplineSet
Validated: 1
EndChar

StartChar: grave
Encoding: 96 96 97
Width: 281
Flags: W
LayerCount: 2
Fore
SplineSet
145 766 m 1,0,1
 156 744 156 744 172.5 716.5 c 128,-1,2
 189 689 189 689 207.5 663 c 128,-1,3
 226 637 226 637 241 618 c 1,4,-1
 241 606 l 1,5,-1
 182 606 l 1,6,7
 165 620 165 620 144 639.5 c 128,-1,8
 123 659 123 659 102.5 680.5 c 128,-1,9
 82 702 82 702 65.5 722 c 128,-1,10
 49 742 49 742 40 756 c 1,11,-1
 40 766 l 1,12,-1
 145 766 l 1,0,1
EndSplineSet
EndChar

StartChar: yen
Encoding: 165 165 98
Width: 572
Flags: W
LayerCount: 2
Fore
SplineSet
334 723 m 0,0,1
 389 723 389 723 433 711 c 128,-1,2
 477 699 477 699 511 682 c 1,3,-1
 480 612 l 1,4,5
 450 626 450 626 413.5 638 c 128,-1,6
 377 650 377 650 336 650 c 0,7,8
 279 650 279 650 249 620.5 c 128,-1,9
 219 591 219 591 219 525 c 2,10,-1
 219 216 l 2,11,12
 219 176 219 176 209.5 149.5 c 128,-1,13
 200 123 200 123 184.5 107 c 128,-1,14
 169 91 169 91 151 80 c 1,15,-1
 535 80 l 1,16,-1
 535 0 l 1,17,-1
 32 0 l 1,18,-1
 32 74 l 1,19,20
 61 81 61 81 83 97.5 c 128,-1,21
 105 114 105 114 118 142.5 c 128,-1,22
 131 171 131 171 131 215 c 2,23,-1
 131 534 l 2,24,25
 131 594 131 594 156 636 c 128,-1,26
 181 678 181 678 227 700.5 c 128,-1,27
 273 723 273 723 334 723 c 0,0,1
EndSplineSet
EndChar

StartChar: sterling
Encoding: 163 163 99
Width: 572
Flags: W
LayerCount: 2
Fore
SplineSet
334 723 m 0,0,1
 389 723 389 723 433 711 c 128,-1,2
 477 699 477 699 511 682 c 1,3,-1
 480 612 l 1,4,5
 450 626 450 626 413.5 638 c 128,-1,6
 377 650 377 650 336 650 c 0,7,8
 279 650 279 650 249 620.5 c 128,-1,9
 219 591 219 591 219 525 c 2,10,-1
 219 386 l 1,11,-1
 423 386 l 1,12,-1
 423 320 l 1,13,-1
 219 320 l 1,14,-1
 219 216 l 2,15,16
 219 176 219 176 209.5 149.5 c 128,-1,17
 200 123 200 123 184.5 107 c 128,-1,18
 169 91 169 91 151 80 c 1,19,-1
 535 80 l 1,20,-1
 535 0 l 1,21,-1
 32 0 l 1,22,-1
 32 74 l 1,23,24
 61 81 61 81 83 97.5 c 128,-1,25
 105 114 105 114 118 142.5 c 128,-1,26
 131 171 131 171 131 215 c 2,27,-1
 131 320 l 1,28,-1
 35 320 l 1,29,-1
 35 386 l 1,30,-1
 131 386 l 1,31,-1
 131 534 l 2,32,33
 131 594 131 594 156 636 c 128,-1,34
 181 678 181 678 227 700.5 c 128,-1,35
 273 723 273 723 334 723 c 0,0,1
EndSplineSet
EndChar

StartChar: currency
Encoding: 164 164 100
Width: 524
Flags: W
AnchorPoint: "Anchor-5" 262 357 basechar 0
AnchorPoint: "Anchor-4" 140 714 basechar 0
LayerCount: 2
Fore
SplineSet
97 0 m 1,0,-1
 97 714 l 1,1,-1
 187 714 l 1,2,-1
 187 80 l 1,3,-1
 499 80 l 1,4,-1
 499 0 l 1,5,-1
 97 0 l 1,0,-1
EndSplineSet
EndChar

StartChar: brokenbar
Encoding: 166 166 101
Width: 650
Flags: W
AnchorPoint: "Anchor-5" 346 357 basechar 0
AnchorPoint: "Anchor-4" 322 714 basechar 0
LayerCount: 2
Fore
SplineSet
301 714 m 2,0,1
 435 714 435 714 503.5 674.5 c 128,-1,2
 572 635 572 635 572 537 c 0,3,4
 572 495 572 495 556.5 462.5 c 128,-1,5
 541 430 541 430 510.5 408.5 c 128,-1,6
 480 387 480 387 436 379 c 1,7,-1
 436 374 l 1,8,9
 481 367 481 367 517.5 348 c 128,-1,10
 554 329 554 329 575 294 c 128,-1,11
 596 259 596 259 596 203 c 0,12,13
 596 138 596 138 566 92.5 c 128,-1,14
 536 47 536 47 480.5 23.5 c 128,-1,15
 425 0 425 0 348 0 c 2,16,-1
 97 0 l 1,17,-1
 97 714 l 1,18,-1
 301 714 l 2,0,1
319 410 m 2,19,20
 411 410 411 410 445 439.5 c 128,-1,21
 479 469 479 469 479 527 c 0,22,23
 479 586 479 586 437.5 611.5 c 128,-1,24
 396 637 396 637 305 637 c 2,25,-1
 187 637 l 1,26,-1
 187 410 l 1,27,-1
 319 410 l 2,19,20
187 335 m 1,28,-1
 187 76 l 1,29,-1
 331 76 l 2,30,31
 426 76 426 76 463 113 c 128,-1,32
 500 150 500 150 500 210 c 0,33,34
 500 248 500 248 483.5 276 c 128,-1,35
 467 304 467 304 428.5 319.5 c 128,-1,36
 390 335 390 335 324 335 c 2,37,-1
 187 335 l 1,28,-1
EndSplineSet
EndChar

StartChar: section
Encoding: 167 167 102
Width: 572
Flags: W
LayerCount: 2
Fore
SplineSet
235 -8 m 0,0,1
 180 -8 180 -8 136 4 c 128,-1,2
 92 16 92 16 58 33 c 1,3,-1
 89 103 l 1,4,5
 119 89 119 89 155.5 77 c 128,-1,6
 192 65 192 65 233 65 c 0,7,8
 290 65 290 65 320 94.5 c 128,-1,9
 350 124 350 124 350 190 c 2,10,-1
 350 635 l 1,11,-1
 63 635 l 1,12,-1
 63 715 l 1,13,-1
 438 715 l 1,14,-1
 438 181 l 2,15,16
 438 121 438 121 413 79 c 128,-1,17
 388 37 388 37 342 14.5 c 128,-1,18
 296 -8 296 -8 235 -8 c 0,0,1
EndSplineSet
EndChar

StartChar: dieresis
Encoding: 168 168 103
Width: 572
Flags: W
LayerCount: 2
Fore
SplineSet
235 -8 m 0,0,1
 180 -8 180 -8 136 4 c 128,-1,2
 92 16 92 16 58 33 c 1,3,-1
 89 103 l 1,4,5
 119 89 119 89 155.5 77 c 128,-1,6
 192 65 192 65 233 65 c 0,7,8
 290 65 290 65 320 94.5 c 128,-1,9
 350 124 350 124 350 190 c 2,10,-1
 350 499 l 2,11,12
 350 539 350 539 359.5 565.5 c 128,-1,13
 369 592 369 592 384.5 608 c 128,-1,14
 400 624 400 624 418 635 c 1,15,-1
 34 635 l 1,16,-1
 34 715 l 1,17,-1
 537 715 l 1,18,-1
 537 641 l 1,19,20
 508 634 508 634 486 617.5 c 128,-1,21
 464 601 464 601 451 572.5 c 128,-1,22
 438 544 438 544 438 500 c 2,23,-1
 438 181 l 2,24,25
 438 121 438 121 413 79 c 128,-1,26
 388 37 388 37 342 14.5 c 128,-1,27
 296 -8 296 -8 235 -8 c 0,0,1
EndSplineSet
EndChar

StartChar: copyright
Encoding: 169 169 104
Width: 572
Flags: W
LayerCount: 2
Fore
SplineSet
235 -8 m 0,0,1
 180 -8 180 -8 136 4 c 128,-1,2
 92 16 92 16 58 33 c 1,3,-1
 89 103 l 1,4,5
 119 89 119 89 155.5 77 c 128,-1,6
 192 65 192 65 233 65 c 0,7,8
 290 65 290 65 320 94.5 c 128,-1,9
 350 124 350 124 350 190 c 2,10,-1
 350 329 l 1,11,-1
 146 329 l 1,12,-1
 146 395 l 1,13,-1
 350 395 l 1,14,-1
 350 499 l 2,15,16
 350 539 350 539 359.5 565.5 c 128,-1,17
 369 592 369 592 384.5 608 c 128,-1,18
 400 624 400 624 418 635 c 1,19,-1
 34 635 l 1,20,-1
 34 715 l 1,21,-1
 537 715 l 1,22,-1
 537 641 l 1,23,24
 508 634 508 634 486 617.5 c 128,-1,25
 464 601 464 601 451 572.5 c 128,-1,26
 438 544 438 544 438 500 c 2,27,-1
 438 395 l 1,28,-1
 534 395 l 1,29,-1
 534 329 l 1,30,-1
 438 329 l 1,31,-1
 438 181 l 2,32,33
 438 121 438 121 413 79 c 128,-1,34
 388 37 388 37 342 14.5 c 128,-1,35
 296 -8 296 -8 235 -8 c 0,0,1
EndSplineSet
EndChar

StartChar: ordfeminine
Encoding: 170 170 105
Width: 631
Flags: W
LayerCount: 2
Fore
SplineSet
522 617 m 0,0,1
 522 583 522 583 508 557.5 c 128,-1,2
 494 532 494 532 473 512.5 c 128,-1,3
 452 493 452 493 431 477 c 128,-1,4
 410 461 410 461 396 445.5 c 128,-1,5
 382 430 382 430 382 412 c 0,6,7
 382 399 382 399 388.5 388 c 128,-1,8
 395 377 395 377 414 362.5 c 128,-1,9
 433 348 433 348 470 323 c 0,10,11
 506 299 506 299 532 275 c 128,-1,12
 558 251 558 251 572 222 c 128,-1,13
 586 193 586 193 586 153 c 0,14,15
 586 96 586 96 562.5 60 c 128,-1,16
 539 24 539 24 497 7 c 128,-1,17
 455 -10 455 -10 400 -10 c 0,18,19
 353 -10 353 -10 317 -1 c 128,-1,20
 281 8 281 8 255 24 c 1,21,-1
 255 103 l 1,22,23
 272 93 272 93 295 83 c 128,-1,24
 318 73 318 73 344.5 67 c 128,-1,25
 371 61 371 61 397 61 c 0,26,27
 452 61 452 61 476 84 c 128,-1,28
 500 107 500 107 500 147 c 0,29,30
 500 171 500 171 491.5 189.5 c 128,-1,31
 483 208 483 208 462.5 226 c 128,-1,32
 442 244 442 244 406 267 c 0,33,34
 364 294 364 294 340.5 315.5 c 128,-1,35
 317 337 317 337 307 359 c 128,-1,36
 297 381 297 381 297 407 c 0,37,38
 297 438 297 438 310.5 460 c 128,-1,39
 324 482 324 482 344.5 498.5 c 128,-1,40
 365 515 365 515 385.5 531 c 128,-1,41
 406 547 406 547 419.5 566 c 128,-1,42
 433 585 433 585 433 612 c 0,43,44
 433 654 433 654 397.5 673 c 128,-1,45
 362 692 362 692 306 692 c 0,46,47
 271 692 271 692 240.5 682.5 c 128,-1,48
 210 673 210 673 191.5 650 c 128,-1,49
 173 627 173 627 173 584 c 2,50,-1
 173 0 l 1,51,-1
 85 0 l 1,52,-1
 85 584 l 2,53,54
 85 651 85 651 114 690.5 c 128,-1,55
 143 730 143 730 193 747.5 c 128,-1,56
 243 765 243 765 306 765 c 0,57,58
 371 765 371 765 419.5 748.5 c 128,-1,59
 468 732 468 732 495 699.5 c 128,-1,60
 522 667 522 667 522 617 c 0,0,1
EndSplineSet
EndChar

StartChar: guillemotleft
Encoding: 171 171 106
Width: 858
Flags: W
AnchorPoint: "Anchor-5" 429 263 basechar 0
LayerCount: 2
Fore
SplineSet
285 -10 m 0,0,1
 223 -10 223 -10 180.5 24 c 128,-1,2
 138 58 138 58 116 119 c 128,-1,3
 94 180 94 180 94 260 c 0,4,5
 94 322 94 322 105.5 467 c 128,-1,6
 117 612 117 612 136 652 c 1,7,-1
 22 652 l 1,8,-1
 22 725 l 1,9,-1
 836 725 l 1,10,-1
 836 652 l 1,11,-1
 722 652 l 1,12,13
 742 612 742 612 753 467 c 128,-1,14
 764 322 764 322 764 260 c 0,15,16
 764 180 764 180 742 119 c 128,-1,17
 720 58 720 58 677.5 24 c 128,-1,18
 635 -10 635 -10 573 -10 c 0,19,20
 518 -10 518 -10 483 15.5 c 128,-1,21
 448 41 448 41 431 100 c 1,22,-1
 426 100 l 1,23,24
 416 61 416 61 397 36.5 c 128,-1,25
 378 12 378 12 350 1 c 128,-1,26
 322 -10 322 -10 285 -10 c 0,0,1
291 63 m 0,27,28
 324 63 324 63 345.5 80 c 128,-1,29
 367 97 367 97 377 126.5 c 128,-1,30
 387 156 387 156 387 193 c 2,31,-1
 387 344 l 1,32,-1
 471 344 l 1,33,-1
 471 193 l 2,34,35
 471 152 471 152 482.5 122.5 c 128,-1,36
 494 93 494 93 515 78 c 128,-1,37
 536 63 536 63 566 63 c 0,38,39
 600 63 600 63 624.5 85 c 128,-1,40
 649 107 649 107 662.5 151 c 128,-1,41
 676 195 676 195 676 259 c 0,42,43
 676 322 676 322 665 467 c 128,-1,44
 654 612 654 612 634 652 c 1,45,-1
 225 652 l 1,46,47
 206 612 206 612 194 467 c 128,-1,48
 182 322 182 322 182 259 c 0,49,50
 182 162 182 162 212 112.5 c 128,-1,51
 242 63 242 63 291 63 c 0,27,28
EndSplineSet
EndChar

StartChar: logicalnot
Encoding: 172 172 107
Width: 556
Flags: W
AnchorPoint: "Anchor-5" 296 357 basechar 0
AnchorPoint: "Anchor-4" 305 714 basechar 0
LayerCount: 2
Fore
SplineSet
496 0 m 1,0,-1
 97 0 l 1,1,-1
 97 714 l 1,2,-1
 496 714 l 1,3,-1
 496 635 l 1,4,-1
 187 635 l 1,5,-1
 187 412 l 1,6,-1
 478 412 l 1,7,-1
 478 334 l 1,8,-1
 187 334 l 1,9,-1
 187 79 l 1,10,-1
 496 79 l 1,11,-1
 496 0 l 1,0,-1
EndSplineSet
EndChar

StartChar: uni00AD
Encoding: 173 173 108
Width: 519
Flags: W
AnchorPoint: "Anchor-5" 296 357 basechar 0
AnchorPoint: "Anchor-4" 298 714 basechar 0
LayerCount: 2
Fore
SplineSet
187 0 m 1,0,-1
 97 0 l 1,1,-1
 97 714 l 1,2,-1
 496 714 l 1,3,-1
 496 635 l 1,4,-1
 187 635 l 1,5,-1
 187 382 l 1,6,-1
 477 382 l 1,7,-1
 477 303 l 1,8,-1
 187 303 l 1,9,-1
 187 0 l 1,0,-1
EndSplineSet
EndChar

StartChar: uni00B2
Encoding: 178 178 109
Width: 886
Flags: W
LayerCount: 2
Fore
SplineSet
109.493164062 -6.771484375 m 0,0,1
 130.60546875 -6.771484375 130.60546875 -6.771484375 148.198242188 20.75 c 128,-1,2
 165.79296875 48.2705078125 165.79296875 48.2705078125 179.27734375 97.9853515625 c 128,-1,3
 192.767578125 147.700195312 192.767578125 147.700195312 200.389648438 214.282226562 c 128,-1,4
 208.013671875 280.864257812 208.013671875 280.864257812 208.013671875 357.211914062 c 0,5,6
 208.013671875 435.334960938 208.013671875 435.334960938 200.389648438 501.916015625 c 128,-1,7
 192.767578125 568.497070312 192.767578125 568.497070312 179.27734375 617.325195312 c 128,-1,8
 165.79296875 666.151367188 165.79296875 666.151367188 148.198242188 694.559570312 c 128,-1,9
 130.60546875 722.969726562 130.60546875 722.969726562 109.493164062 722.969726562 c 0,10,11
 89.5546875 722.969726562 89.5546875 722.969726562 71.96484375 694.559570312 c 128,-1,12
 54.369140625 666.151367188 54.369140625 666.151367188 41.466796875 617.325195312 c 128,-1,13
 28.5654296875 568.497070312 28.5654296875 568.497070312 20.943359375 501.916015625 c 128,-1,14
 13.318359375 435.334960938 13.318359375 435.334960938 13.318359375 357.211914062 c 0,15,16
 13.318359375 280.864257812 13.318359375 280.864257812 20.943359375 214.282226562 c 128,-1,17
 28.5654296875 147.700195312 28.5654296875 147.700195312 41.466796875 97.9853515625 c 128,-1,18
 54.369140625 48.2705078125 54.369140625 48.2705078125 71.96484375 20.75 c 128,-1,19
 89.5546875 -6.771484375 89.5546875 -6.771484375 109.493164062 -6.771484375 c 0,0,1
328.819335938 -6.771484375 m 0,20,21
 349.931640625 -6.771484375 349.931640625 -6.771484375 367.5234375 20.75 c 128,-1,22
 385.118164062 48.2705078125 385.118164062 48.2705078125 398.606445312 97.9853515625 c 128,-1,23
 412.09375 147.700195312 412.09375 147.700195312 419.129882812 214.282226562 c 128,-1,24
 426.165039062 280.864257812 426.165039062 280.864257812 426.165039062 357.211914062 c 0,25,26
 426.165039062 435.334960938 426.165039062 435.334960938 419.129882812 501.916015625 c 128,-1,27
 412.09375 568.497070312 412.09375 568.497070312 398.606445312 617.325195312 c 128,-1,28
 385.118164062 666.151367188 385.118164062 666.151367188 367.5234375 694.559570312 c 128,-1,29
 349.931640625 722.969726562 349.931640625 722.969726562 328.819335938 722.969726562 c 0,30,31
 308.881835938 722.969726562 308.881835938 722.969726562 291.287109375 694.559570312 c 128,-1,32
 273.6953125 666.151367188 273.6953125 666.151367188 260.794921875 617.325195312 c 128,-1,33
 247.893554688 568.497070312 247.893554688 568.497070312 239.682617188 501.916015625 c 128,-1,34
 231.471679688 435.334960938 231.471679688 435.334960938 231.471679688 357.211914062 c 0,35,36
 231.471679688 280.864257812 231.471679688 280.864257812 239.682617188 214.282226562 c 128,-1,37
 247.893554688 147.700195312 247.893554688 147.700195312 260.794921875 97.9853515625 c 128,-1,38
 273.6953125 48.2705078125 273.6953125 48.2705078125 291.287109375 20.75 c 128,-1,39
 308.881835938 -6.771484375 308.881835938 -6.771484375 328.819335938 -6.771484375 c 0,20,21
328.819335938 135.270507812 m 256,40,41
 315.919921875 135.270507812 315.919921875 135.270507812 304.776367188 152.137695312 c 128,-1,42
 293.634765625 169.005859375 293.634765625 169.005859375 285.422851562 199.189453125 c 128,-1,43
 277.21484375 229.374023438 277.21484375 229.374023438 272.520507812 270.209960938 c 128,-1,44
 267.830078125 311.049804688 267.830078125 311.049804688 267.830078125 357.211914062 c 0,45,46
 267.830078125 405.1484375 267.830078125 405.1484375 272.520507812 445.098632812 c 128,-1,47
 277.21484375 485.049804688 277.21484375 485.049804688 285.422851562 515.233398438 c 128,-1,48
 293.634765625 545.416015625 293.634765625 545.416015625 304.776367188 562.282226562 c 128,-1,49
 315.919921875 579.151367188 315.919921875 579.151367188 328.819335938 579.151367188 c 256,50,51
 341.72265625 579.151367188 341.72265625 579.151367188 352.861328125 562.282226562 c 128,-1,52
 364.005859375 545.416015625 364.005859375 545.416015625 372.21484375 515.233398438 c 128,-1,53
 380.423828125 485.049804688 380.423828125 485.049804688 385.118164062 445.098632812 c 128,-1,54
 389.807617188 405.1484375 389.807617188 405.1484375 389.807617188 357.211914062 c 0,55,56
 389.807617188 311.049804688 389.807617188 311.049804688 385.118164062 270.209960938 c 128,-1,57
 380.423828125 229.374023438 380.423828125 229.374023438 372.21484375 199.189453125 c 128,-1,58
 364.005859375 169.005859375 364.005859375 169.005859375 352.861328125 152.137695312 c 128,-1,59
 341.72265625 135.270507812 341.72265625 135.270507812 328.819335938 135.270507812 c 256,40,41
550.491210938 -6.771484375 m 256,60,61
 570.430664062 -6.771484375 570.430664062 -6.771484375 588.610351562 20.75 c 128,-1,62
 606.7890625 48.2705078125 606.7890625 48.2705078125 619.688476562 97.9853515625 c 128,-1,63
 632.590820312 147.700195312 632.590820312 147.700195312 640.215820312 214.282226562 c 128,-1,64
 647.840820312 280.864257812 647.840820312 280.864257812 647.840820312 357.211914062 c 0,65,66
 647.840820312 435.334960938 647.840820312 435.334960938 640.215820312 501.916015625 c 128,-1,67
 632.590820312 568.497070312 632.590820312 568.497070312 619.688476562 617.325195312 c 128,-1,68
 606.7890625 666.151367188 606.7890625 666.151367188 588.610351562 694.559570312 c 128,-1,69
 570.430664062 722.969726562 570.430664062 722.969726562 550.491210938 722.969726562 c 256,70,71
 530.552734375 722.969726562 530.552734375 722.969726562 512.958007812 694.559570312 c 128,-1,72
 495.368164062 666.151367188 495.368164062 666.151367188 481.877929688 617.325195312 c 128,-1,73
 468.389648438 568.497070312 468.389648438 568.497070312 460.765625 501.916015625 c 128,-1,74
 453.143554688 435.334960938 453.143554688 435.334960938 453.143554688 357.211914062 c 0,75,76
 453.143554688 280.864257812 453.143554688 280.864257812 460.765625 214.282226562 c 128,-1,77
 468.389648438 147.700195312 468.389648438 147.700195312 481.877929688 97.9853515625 c 128,-1,78
 495.368164062 48.2705078125 495.368164062 48.2705078125 512.958007812 20.75 c 128,-1,79
 530.552734375 -6.771484375 530.552734375 -6.771484375 550.491210938 -6.771484375 c 256,60,61
550.491210938 135.270507812 m 256,80,81
 537.591796875 135.270507812 537.591796875 135.270507812 526.447265625 152.137695312 c 128,-1,82
 515.3046875 169.005859375 515.3046875 169.005859375 507.092773438 199.189453125 c 128,-1,83
 498.885742188 229.374023438 498.885742188 229.374023438 494.193359375 270.209960938 c 128,-1,84
 489.500976562 311.049804688 489.500976562 311.049804688 489.500976562 357.211914062 c 0,85,86
 489.500976562 405.1484375 489.500976562 405.1484375 494.193359375 445.098632812 c 128,-1,87
 498.885742188 485.049804688 498.885742188 485.049804688 507.092773438 515.233398438 c 128,-1,88
 515.3046875 545.416015625 515.3046875 545.416015625 526.447265625 562.282226562 c 128,-1,89
 537.591796875 579.151367188 537.591796875 579.151367188 550.491210938 579.151367188 c 256,90,91
 563.39453125 579.151367188 563.39453125 579.151367188 574.53515625 562.282226562 c 128,-1,92
 585.67578125 545.416015625 585.67578125 545.416015625 593.88671875 515.233398438 c 128,-1,93
 602.095703125 485.049804688 602.095703125 485.049804688 606.7890625 445.098632812 c 128,-1,94
 611.4765625 405.1484375 611.4765625 405.1484375 611.4765625 357.211914062 c 0,95,96
 611.4765625 311.049804688 611.4765625 311.049804688 606.7890625 270.209960938 c 128,-1,97
 602.095703125 229.374023438 602.095703125 229.374023438 593.88671875 199.189453125 c 128,-1,98
 585.67578125 169.005859375 585.67578125 169.005859375 574.53515625 152.137695312 c 128,-1,99
 563.39453125 135.270507812 563.39453125 135.270507812 550.491210938 135.270507812 c 256,80,81
769.815429688 -6.771484375 m 256,100,101
 789.754882812 -6.771484375 789.754882812 -6.771484375 807.934570312 20.75 c 128,-1,102
 826.112304688 48.2705078125 826.112304688 48.2705078125 839.016601562 97.9853515625 c 128,-1,103
 851.916992188 147.700195312 851.916992188 147.700195312 859.540039062 214.282226562 c 128,-1,104
 867.1640625 280.864257812 867.1640625 280.864257812 867.1640625 357.211914062 c 0,105,106
 867.1640625 435.334960938 867.1640625 435.334960938 859.540039062 501.916015625 c 128,-1,107
 851.916992188 568.497070312 851.916992188 568.497070312 839.016601562 617.325195312 c 128,-1,108
 826.112304688 666.151367188 826.112304688 666.151367188 807.934570312 694.559570312 c 128,-1,109
 789.754882812 722.969726562 789.754882812 722.969726562 769.815429688 722.969726562 c 256,110,111
 749.876953125 722.969726562 749.876953125 722.969726562 732.284179688 694.559570312 c 128,-1,112
 714.69140625 666.151367188 714.69140625 666.151367188 701.203125 617.325195312 c 128,-1,113
 687.715820312 568.497070312 687.715820312 568.497070312 680.092773438 501.916015625 c 128,-1,114
 672.46875 435.334960938 672.46875 435.334960938 672.46875 357.211914062 c 0,115,116
 672.46875 280.864257812 672.46875 280.864257812 680.092773438 214.282226562 c 128,-1,117
 687.715820312 147.700195312 687.715820312 147.700195312 701.203125 97.9853515625 c 128,-1,118
 714.69140625 48.2705078125 714.69140625 48.2705078125 732.284179688 20.75 c 128,-1,119
 749.876953125 -6.771484375 749.876953125 -6.771484375 769.815429688 -6.771484375 c 256,100,101
769.815429688 135.270507812 m 0,120,121
 756.9140625 135.270507812 756.9140625 135.270507812 745.772460938 152.137695312 c 128,-1,122
 734.630859375 169.005859375 734.630859375 169.005859375 726.421875 199.189453125 c 128,-1,123
 718.208984375 229.374023438 718.208984375 229.374023438 713.51953125 270.209960938 c 128,-1,124
 708.827148438 311.049804688 708.827148438 311.049804688 708.827148438 357.211914062 c 0,125,126
 708.827148438 405.1484375 708.827148438 405.1484375 713.51953125 445.098632812 c 128,-1,127
 718.208984375 485.049804688 718.208984375 485.049804688 726.421875 515.233398438 c 128,-1,128
 734.630859375 545.416015625 734.630859375 545.416015625 745.772460938 562.282226562 c 128,-1,129
 756.9140625 579.151367188 756.9140625 579.151367188 769.815429688 579.151367188 c 0,130,131
 781.545898438 579.151367188 781.545898438 579.151367188 793.270507812 562.282226562 c 128,-1,132
 805.001953125 545.416015625 805.001953125 545.416015625 813.212890625 515.233398438 c 128,-1,133
 821.421875 485.049804688 821.421875 485.049804688 826.112304688 445.098632812 c 128,-1,134
 830.805664062 405.1484375 830.805664062 405.1484375 830.805664062 357.211914062 c 0,135,136
 830.805664062 311.049804688 830.805664062 311.049804688 826.112304688 270.209960938 c 128,-1,137
 821.421875 229.374023438 821.421875 229.374023438 813.212890625 199.189453125 c 128,-1,138
 805.001953125 169.005859375 805.001953125 169.005859375 793.270507812 152.137695312 c 128,-1,139
 781.545898438 135.270507812 781.545898438 135.270507812 769.815429688 135.270507812 c 0,120,121
EndSplineSet
Validated: 9
EndChar

